<?xml version="1.0" encoding="UTF-8"?> <svg xmlns="http://www.w3.org/2000/svg" width="288.833" height="342" viewBox="0 0 288.833 342"><g id="Group_1508" data-name="Group 1508" transform="translate(83.5 -1412.5)"><g id="Group_1507" data-name="Group 1507" transform="translate(-245.114 1359.111)"><g id="Layer_1" data-name="Layer 1"><g id="Group_1502" data-name="Group 1502"><path id="Path_1092" data-name="Path 1092" d="M228.462,360.96v4.889H226.09V360.96h-2.237v-2.025h6.923v2.025Z" fill="#fff"></path><path id="Path_1093" data-name="Path 1093" d="M235.678,363.3v1.9H233.7v-1.9h-1.958v-2.035H233.7v-1.881h1.976v1.881h1.977V363.3Z" fill="#fff"></path><path id="Path_1094" data-name="Path 1094" d="M239.075,365.849v-6.914h2.411v4.744h3.886v2.17Z" fill="#fff"></path><path id="Path_1095" data-name="Path 1095" d="M246.069,361.577c.608-.087.878-.28.955-.79-.058,0-.125.009-.193.009-.723,0-.954-.135-.954-.926,0-.743.308-.983,1.1-.983.829,0,1.109.337,1.109,1.34a1.933,1.933,0,0,1-1.929,2.208Z" fill="#fff"></path><path id="Path_1096" data-name="Path 1096" d="M248.868,363.486h2.574c.164.636.868.829,1.8.829.877,0,1.253-.164,1.253-.52,0-.434-.424-.473-2.3-.6-2.083-.134-3.077-.675-3.077-2.091,0-1.467,1.292-2.372,3.607-2.372,2.353,0,3.654.675,4.069,2.448h-2.459c-.145-.578-.733-.742-1.677-.742-.907,0-1.2.222-1.2.53,0,.328.25.444,2.034.55,2.257.125,3.337.656,3.337,2.112s-1.138,2.42-3.741,2.42C250.237,366.051,249.167,365.193,248.868,363.486Z" fill="#fff"></path><path id="Path_1097" data-name="Path 1097" d="M264.52,366.042c-2.564,0-4.126-1.09-4.126-3.6v-.02c0-2.3,1.726-3.664,4.233-3.664,2.295,0,3.924,1.013,4.166,3.143h-2.527c-.106-.655-.646-1.1-1.63-1.1-1.147,0-1.842.521-1.842,1.61v.01c0,1.061.656,1.572,1.794,1.572,1.08,0,1.591-.463,1.688-1.2h2.536C268.619,364.932,267.1,366.042,264.52,366.042Z" fill="#fff"></path><path id="Path_1098" data-name="Path 1098" d="M269.761,362.435v-.02c0-2.3,1.717-3.654,4.185-3.654,2.43,0,4.147,1.331,4.147,3.645v.039c0,2.43-1.659,3.6-4.166,3.6C271.362,366.042,269.761,364.9,269.761,362.435Zm5.931,0c0-1.128-.685-1.63-1.765-1.63-1.1,0-1.765.53-1.765,1.62v.01c0,1.042.665,1.562,1.755,1.562S275.692,363.544,275.692,362.435Z" fill="#fff"></path><path id="Path_1099" data-name="Path 1099" d="M279.447,365.849v-6.914h2.411v4.744h3.885v2.17Z" fill="#fff"></path><path id="Path_1100" data-name="Path 1100" d="M286.856,365.849v-6.914h2.41v4.744h3.886v2.17Z" fill="#fff"></path><path id="Path_1101" data-name="Path 1101" d="M301.332,365.849h-6.817v-6.914h6.672v1.8h-4.455v.926h3.983v1.378h-3.983v.936h4.6Z" fill="#fff"></path><path id="Path_1102" data-name="Path 1102" d="M306.465,366.042c-2.565,0-4.127-1.09-4.127-3.6v-.02c0-2.3,1.726-3.664,4.233-3.664,2.295,0,3.925,1.013,4.166,3.143H308.21c-.106-.655-.646-1.1-1.629-1.1-1.148,0-1.842.521-1.842,1.61v.01c0,1.061.656,1.572,1.794,1.572,1.08,0,1.591-.463,1.687-1.2h2.536C310.564,364.932,309.04,366.042,306.465,366.042Z" fill="#fff"></path><path id="Path_1103" data-name="Path 1103" d="M316.2,360.96v4.889h-2.372V360.96H311.59v-2.025h6.923v2.025Z" fill="#fff"></path><path id="Path_1104" data-name="Path 1104" d="M319.789,365.849v-2.093h1.716V361h-1.716v-2.064h5.679V361h-1.725v2.757h1.725v2.093Z" fill="#fff"></path><path id="Path_1105" data-name="Path 1105" d="M326.541,362.435v-.02c0-2.3,1.717-3.654,4.186-3.654,2.43,0,4.146,1.331,4.146,3.645v.039c0,2.43-1.659,3.6-4.166,3.6C328.142,366.042,326.541,364.9,326.541,362.435Zm5.931,0c0-1.128-.685-1.63-1.765-1.63-1.1,0-1.764.53-1.764,1.62v.01c0,1.042.665,1.562,1.755,1.562S332.472,363.544,332.472,362.435Z" fill="#fff"></path><path id="Path_1106" data-name="Path 1106" d="M338.464,361.741v4.108h-2.237v-6.914h2.257l3.316,3.973v-3.973h2.228v6.914h-2.17Z" fill="#fff"></path><path id="Path_1107" data-name="Path 1107" d="M347.466,362.435v-.02c0-2.3,1.716-3.654,4.185-3.654,2.429,0,4.146,1.331,4.146,3.645v.039c0,2.43-1.659,3.6-4.165,3.6C349.067,366.042,347.466,364.9,347.466,362.435Zm5.93,0c0-1.128-.684-1.63-1.764-1.63-1.1,0-1.766.53-1.766,1.62v.01c0,1.042.666,1.562,1.756,1.562S353.4,363.544,353.4,362.435Z" fill="#fff"></path><path id="Path_1108" data-name="Path 1108" d="M359.389,363.882v1.967h-2.238v-6.914h6.422v1.986h-4.184v1.07h4.117v1.891Z" fill="#fff"></path><path id="Path_1109" data-name="Path 1109" d="M371.8,360.96v4.889h-2.372V360.96h-2.238v-2.025h6.924v2.025Z" fill="#fff"></path><path id="Path_1110" data-name="Path 1110" d="M380.454,363.438H377.6v2.411h-2.342v-6.914H377.6v2.439h2.855v-2.439h2.324v6.914h-2.324Z" fill="#fff"></path><path id="Path_1111" data-name="Path 1111" d="M391.258,365.849H384.44v-6.914h6.673v1.8h-4.455v.926h3.983v1.378h-3.983v.936h4.6Z" fill="#fff"></path></g><g id="Group_1503" data-name="Group 1503"><path id="Path_1112" data-name="Path 1112" d="M206,373.8l-1.8,4.108h-2.228l-2.2-6.914h2.43l1.2,4.118,1.754-4.118h1.871l1.524,4.107,1.494-4.107h2.392l-2.71,6.914h-2.208Z" fill="#fff"></path><path id="Path_1113" data-name="Path 1113" d="M212.525,374.5v-.02c0-2.305,1.717-3.655,4.185-3.655,2.43,0,4.147,1.331,4.147,3.645v.039c0,2.43-1.659,3.6-4.166,3.6C214.126,378.1,212.525,376.964,212.525,374.5Zm5.931,0c0-1.129-.685-1.63-1.765-1.63-1.1,0-1.765.53-1.765,1.619v.011c0,1.041.666,1.561,1.756,1.561S218.456,375.6,218.456,374.5Z" fill="#fff"></path><path id="Path_1114" data-name="Path 1114" d="M224.246,375.942v1.967H221.97v-6.914H225.8c2.613,0,3.549.713,3.549,2.266a1.7,1.7,0,0,1-1.369,1.794c.964.231,1.282.77,1.282,1.909v.443a.537.537,0,0,0,.251.5h-2.44a.479.479,0,0,1-.231-.463v-.521c0-.762-.28-.983-1.206-.983Zm0-3.125v1.4H225.8c.714,0,1.206-.125,1.206-.665v-.067c0-.511-.367-.666-1.177-.666Z" fill="#fff"></path><path id="Path_1115" data-name="Path 1115" d="M230.528,377.909v-6.914h2.411v4.744h3.886v2.17Z" fill="#fff"></path><path id="Path_1116" data-name="Path 1116" d="M237.687,370.995h3.52c2.652,0,4.175,1.118,4.175,3.462v.028c0,2.334-1.552,3.424-4.117,3.424h-3.578Zm2.305,1.947v3h1.128c1.369,0,1.871-.444,1.871-1.476v-.019c0-1.08-.512-1.505-1.91-1.505Z" fill="#fff"></path><path id="Path_1117" data-name="Path 1117" d="M247.514,373.637c.608-.087.878-.28.956-.79-.059,0-.126.009-.194.009-.723,0-.954-.135-.954-.926,0-.743.308-.983,1.1-.983.829,0,1.109.337,1.109,1.34A1.934,1.934,0,0,1,247.6,374.5Z" fill="#fff"></path><path id="Path_1118" data-name="Path 1118" d="M250.313,375.546h2.574c.165.636.868.829,1.8.829.878,0,1.254-.163,1.254-.52,0-.434-.424-.473-2.3-.6-2.083-.134-3.076-.674-3.076-2.091,0-1.467,1.292-2.372,3.606-2.372,2.353,0,3.654.675,4.069,2.448H255.78c-.144-.578-.733-.742-1.677-.742-.907,0-1.2.222-1.2.53,0,.328.251.444,2.034.55,2.257.125,3.337.656,3.337,2.112s-1.138,2.42-3.742,2.42C251.682,378.111,250.612,377.253,250.313,375.546Z" fill="#fff"></path><path id="Path_1119" data-name="Path 1119" d="M266.419,373.02v4.889h-2.372V373.02H261.81v-2.025h6.923v2.025Z" fill="#fff"></path><path id="Path_1120" data-name="Path 1120" d="M269.365,374.5v-.02c0-2.305,1.716-3.655,4.185-3.655,2.429,0,4.146,1.331,4.146,3.645v.039c0,2.43-1.659,3.6-4.166,3.6C270.965,378.1,269.365,376.964,269.365,374.5Zm5.93,0c0-1.129-.685-1.63-1.765-1.63-1.1,0-1.765.53-1.765,1.619v.011c0,1.041.666,1.561,1.756,1.561S275.3,375.6,275.3,374.5Z" fill="#fff"></path><path id="Path_1121" data-name="Path 1121" d="M281.047,376.25v1.659H278.8v-6.914h3.7c2.594,0,3.645.9,3.645,2.69,0,1.716-1.148,2.575-3.558,2.565Zm0-3.355v1.552h1.465c1,0,1.341-.193,1.341-.752,0-.666-.4-.8-1.369-.8Z" fill="#fff"></path><path id="Path_1122" data-name="Path 1122" d="M295.818,373.02v4.889h-2.372V373.02h-2.238v-2.025h6.924v2.025Z" fill="#fff"></path><path id="Path_1123" data-name="Path 1123" d="M301.549,375.942v1.967h-2.276v-6.914H303.1c2.612,0,3.548.713,3.548,2.266a1.7,1.7,0,0,1-1.37,1.794c.965.231,1.283.77,1.283,1.909v.443a.537.537,0,0,0,.251.5h-2.44a.479.479,0,0,1-.231-.463v-.521c0-.762-.28-.983-1.206-.983Zm0-3.125v1.4H303.1c.713,0,1.205-.125,1.205-.665v-.067c0-.511-.367-.666-1.176-.666Z" fill="#fff"></path><path id="Path_1124" data-name="Path 1124" d="M313.315,376.723h-3.047l-.492,1.186h-2.44l3.134-6.914h2.652l3.115,6.914h-2.42Zm-1.533-3.655-.839,2.015h1.687Z" fill="#fff"></path><path id="Path_1125" data-name="Path 1125" d="M318.039,377.909l-2.874-6.914h2.487l1.736,4.406,1.861-4.406h2.479l-3.066,6.914Z" fill="#fff"></path><path id="Path_1126" data-name="Path 1126" d="M331.706,377.909h-6.818v-6.914h6.673v1.8h-4.455v.926h3.983V375.1h-3.983v.936h4.6Z" fill="#fff"></path><path id="Path_1127" data-name="Path 1127" d="M332.886,377.909v-6.914H335.3v4.744h3.886v2.17Z" fill="#fff"></path><path id="Path_1128" data-name="Path 1128" d="M348.25,376.723H345.2l-.492,1.186h-2.44l3.133-6.914h2.653l3.115,6.914h-2.421Zm-1.534-3.655-.838,2.015h1.686Z" fill="#fff"></path><path id="Path_1129" data-name="Path 1129" d="M351.842,370.995h3.519c2.652,0,4.175,1.118,4.175,3.462v.028c0,2.334-1.552,3.424-4.117,3.424h-3.577Zm2.3,1.947v3h1.128c1.37,0,1.871-.444,1.871-1.476v-.019c0-1.08-.511-1.505-1.909-1.505Z" fill="#fff"></path><path id="Path_1130" data-name="Path 1130" d="M362.472,377.909l-2.874-6.914h2.488l1.736,4.406,1.861-4.406h2.479l-3.067,6.914Z" fill="#fff"></path><path id="Path_1131" data-name="Path 1131" d="M368.715,377.909v-2.093h1.716v-2.757h-1.716v-2.064h5.679v2.064h-1.725v2.757h1.725v2.093Z" fill="#fff"></path><path id="Path_1132" data-name="Path 1132" d="M375.1,375.546h2.575c.165.636.868.829,1.8.829.879,0,1.254-.163,1.254-.52,0-.434-.424-.473-2.305-.6-2.082-.134-3.076-.674-3.076-2.091,0-1.467,1.292-2.372,3.606-2.372,2.354,0,3.655.675,4.07,2.448h-2.458c-.145-.578-.734-.742-1.679-.742-.907,0-1.2.222-1.2.53,0,.328.251.444,2.034.55,2.256.125,3.336.656,3.336,2.112s-1.137,2.42-3.741,2.42C376.472,378.111,375.4,377.253,375.1,375.546Z" fill="#fff"></path><path id="Path_1133" data-name="Path 1133" d="M383.8,374.5v-.02c0-2.305,1.717-3.655,4.185-3.655,2.43,0,4.146,1.331,4.146,3.645v.039c0,2.43-1.658,3.6-4.166,3.6C385.4,378.1,383.8,376.964,383.8,374.5Zm5.931,0c0-1.129-.686-1.63-1.766-1.63-1.1,0-1.764.53-1.764,1.619v.011c0,1.041.666,1.561,1.755,1.561S389.736,375.6,389.736,374.5Z" fill="#fff"></path><path id="Path_1134" data-name="Path 1134" d="M395.516,375.942v1.967h-2.275v-6.914h3.829c2.612,0,3.548.713,3.548,2.266a1.7,1.7,0,0,1-1.37,1.794c.965.231,1.283.77,1.283,1.909v.443a.535.535,0,0,0,.251.5h-2.44a.479.479,0,0,1-.231-.463v-.521c0-.762-.281-.983-1.206-.983Zm0-3.125v1.4h1.554c.712,0,1.2-.125,1.2-.665v-.067c0-.511-.366-.666-1.176-.666Z" fill="#fff"></path><path id="Path_1135" data-name="Path 1135" d="M401.278,375.546h2.574c.165.636.868.829,1.8.829.879,0,1.255-.163,1.255-.52,0-.434-.424-.473-2.3-.6-2.082-.134-3.076-.674-3.076-2.091,0-1.467,1.292-2.372,3.606-2.372,2.353,0,3.654.675,4.069,2.448h-2.459c-.144-.578-.733-.742-1.677-.742-.907,0-1.2.222-1.2.53,0,.328.251.444,2.034.55,2.257.125,3.337.656,3.337,2.112s-1.138,2.42-3.742,2.42C402.647,378.111,401.577,377.253,401.278,375.546Z" fill="#fff"></path></g><g id="Group_1504" data-name="Group 1504"><rect id="Rectangle_580" data-name="Rectangle 580" width="287.833" height="341" transform="translate(162.114 53.889)" fill="none" stroke="#fff" stroke-width="1"></rect></g></g><g id="Layer_2" data-name="Layer 2"><path id="Path_1136" data-name="Path 1136" d="M304.919,152.9l12.36,40.361H292.557ZM265.313,84.032,197.706,265.661h72.9l6.811-22.7h54.993l6.811,22.7h72.9l-66.6-181.629Z" fill="#fff"></path><g id="Group_1505" data-name="Group 1505"><path id="Path_1137" data-name="Path 1137" d="M403.9,292.6V277.416H363.344V292.6h11.4v24.276h17.535V292.6ZM330.54,318.022c16,0,22.632-5.973,22.632-14.193,0-8.6-6.3-11.672-17.865-12.495-9.261-.657-10.631-.93-10.631-1.918,0-.821.877-1.588,3.891-1.588,3.4,0,5.48.822,6.083,2.411h18.083c-2.849-10.357-10.3-14.138-23.618-14.138-13.59,0-21.81,5.425-21.81,14.576,0,7.891,5.754,11.289,17.481,12.111,9.48.712,11.124.986,11.124,2.192,0,.877-1.041,1.37-3.781,1.37-2.85,0-5.973-.6-6.521-2.466H306.319c1.37,8.987,7.178,14.138,24.221,14.138m-35.684-1.151V301.637h-9.987V292.7h9.987V277.416H258.277V292.7h9.878v8.932h-9.878v15.234Zm-51.795,0V300.924h-18.3V277.416H206.729v39.455Z" fill="#fff"></path></g><g id="Group_1506" data-name="Group 1506"><path id="Path_1138" data-name="Path 1138" d="M257.132,345.866v-5.278c0-3.432,1.95-4.654,7.306-5.382,2.913-.416,3.51-.494,3.51-.936,0-.364-.1-.468-.909-.468-.832,0-1.04.234-1.093.65v.234h-8.814v-.416c.26-4.81,3.224-7.514,10.115-7.514,7.02,0,9.49,2.262,9.49,5.876v.026c0,3.094-1.274,4.367-4.472,5.1-2.34.546-5.642.6-6.319.884H276.5v7.228Z" fill="#fff" stroke="#fff" stroke-miterlimit="10" stroke-width="0.5"></path><path id="Path_1139" data-name="Path 1139" d="M281.079,337.312V335.8c0-6.033,3.744-9.126,10.582-9.126,6.708,0,10.322,3.12,10.322,9.126v1.534c0,6.266-3.432,8.971-10.53,8.971C284.3,346.309,281.079,343.63,281.079,337.312Zm11.414.286v-2.21c0-.7-.286-.989-.962-.989-.65,0-.936.287-.936.989v2.21c0,.728.286.988.936.988S292.493,338.326,292.493,337.6Z" fill="#fff" stroke="#fff" stroke-miterlimit="10" stroke-width="0.5"></path><path id="Path_1140" data-name="Path 1140" d="M306.351,345.866v-5.278c0-3.432,1.95-4.654,7.306-5.382,2.912-.416,3.51-.494,3.51-.936,0-.364-.1-.468-.91-.468-.832,0-1.04.234-1.092.65v.234h-8.814v-.416c.26-4.81,3.224-7.514,10.114-7.514,7.02,0,9.49,2.262,9.49,5.876v.026c0,3.094-1.273,4.367-4.472,5.1-2.339.546-5.642.6-6.318.884h10.557v7.228Z" fill="#fff" stroke="#fff" stroke-miterlimit="10" stroke-width="0.5"></path><path id="Path_1141" data-name="Path 1141" d="M330.3,337.312V335.8c0-6.033,3.744-9.126,10.583-9.126,6.708,0,10.322,3.12,10.322,9.126v1.534c0,6.266-3.432,8.971-10.53,8.971C333.521,346.309,330.3,343.63,330.3,337.312Zm11.415.286v-2.21c0-.7-.286-.989-.962-.989-.65,0-.937.287-.937.989v2.21c0,.728.287.988.937.988S341.712,338.326,341.712,337.6Z" fill="#fff" stroke="#fff" stroke-miterlimit="10" stroke-width="0.5"></path></g></g></g></g></svg> 