<?xml version="1.0" encoding="UTF-8"?> <!-- Generator: Adobe Illustrator 24.2.0, SVG Export Plug-In . SVG Version: 6.00 Build 0) --> <svg xmlns="http://www.w3.org/2000/svg" xmlns:xlink="http://www.w3.org/1999/xlink" version="1.1" id="Layer_1" x="0px" y="0px" viewBox="0 0 194 88" style="enable-background:new 0 0 194 88;" xml:space="preserve"> <style type="text/css"> .st0{fill:#FFFDFD;} </style> <g transform="translate(0.000000,88.000000) scale(0.100000,-0.100000)"> <path class="st0" d="M530,838c0-23,2-39,5-36c9,9,12,78,3,78C534,880,530,861,530,838z"></path> <path class="st0" d="M781,842c-1-28-5-41-12-36c-6,3-8,15-5,27c3,14,2,17-5,10c-13-13-8-45,6-50c6-1,16,1,24,6c11,7,11,17,3,47 l-10,39L781,842z"></path> <path class="st0" d="M860,840c23-45,25-47,34-24c3,8,2,13-3,10s-14,8-21,24c-7,17-16,30-21,30S849,862,860,840z"></path> <path class="st0" d="M912,868c-12-15-4-68,9-68c5,0,9,18,9,40C930,883,928,887,912,868z"></path> <path class="st0" d="M1093,840c0-25,2-35,4-22c2,12,11,22,20,22c10,0,14-6,10-20c-3-11-1-20,4-20c18,0,9,42-10,47 c-11,3-22,12-24,22C1094,878,1092,865,1093,840z"></path> <path class="st0" d="M1374,866c-3-8-4-27-1-43c3-24,4-23,6,9c0,20,7,39,14,41c9,4,9,6-1,6C1385,880,1377,874,1374,866z"></path> <path class="st0" d="M447,864c-4-4-1-14,6-22c10-13,9-15-5-10c-16,7-35-18-23-30c3-3,5,0,5,6c0,16,37,15,43,0c4-9,6-8,6,2 C479,831,455,872,447,864z"></path> <path class="st0" d="M563,850c-1-11,2-18,8-15c11,7,12,35,1,35C568,870,564,861,563,850z"></path> <path class="st0" d="M1275,859c-8-12,2-59,13-59c4,0,6,16,4,35C1288,872,1285,876,1275,859z"></path> <path class="st0" d="M1333,854c2-12,0-29-5-38c-6-10-5-16,1-16c16,0,23,38,11,57C1330,873,1329,873,1333,854z"></path> <path class="st0" d="M591,823c0-16,3-22,6-13c3,8,10,21,16,28c7,8,5,12-7,12C595,850,590,842,591,823z"></path> <path class="st0" d="M667,829c4-13,8-18,11-10c2,7-1,18-6,23C664,850,663,846,667,829z"></path> <path class="st0" d="M690,827c0-14,5-29,10-32c7-4,8,3,4,22C695,855,690,859,690,827z"></path> <path class="st0" d="M970,840c0-5,5-10,11-10c5,0,7,5,4,10c-3,6-8,10-11,10C972,850,970,846,970,840z"></path> <path class="st0" d="M1001,823c2-23,2-24,6-5c5,27,23,29,23,2c0-11,5-20,10-20c6,0,10,9,10,20c0,26,17,26,23,0c4-17,4-16,3,2 c-1,19-8,24-38,26C1002,851,1000,850,1001,823z"></path> <path class="st0" d="M1208,823c5-23,7-25,10-8c2,11,9,23,16,27c6,5,3,8-10,8C1206,850,1204,846,1208,823z"></path> <path class="st0" d="M630,820c0-11,4-20,9-20s7,9,4,20s-7,20-9,20S630,831,630,820z"></path> <path class="st0" d="M1151,824c-1-23,24-40,34-24c4,6-1,10-9,10s-17,8-19,18C1153,841,1152,840,1151,824z"></path> <path class="st0" d="M940,820c0-14,25-29,37-22c7,5,3,11-13,19C951,823,940,825,940,820z"></path> <path class="st0" d="M720,810c0-5,5-10,11-10c5,0,7,5,4,10c-3,6-8,10-11,10C722,820,720,816,720,810z"></path> <path class="st0" d="M115,775c-27-26-33-55-12-55c7,0,17,10,22,23c23,51,105,18,91-38c-7-27-26-35-26-10c0,8-4,15-10,15 c-5,0-10-16-10-35c0-28,4-35,19-35c25,0,61,46,61,77c0,33-51,83-85,83C151,800,128,789,115,775z"></path> <path class="st0" d="M408,610l-3-131l74,3c42,2,76,8,78,14c2,7-15,9-52,6l-55-4v50v50l40,7c56,9,62,26,8,23l-43-3l-3,49l-3,48l45-4 c32-2,46,1,46,9c0,9-19,13-64,13h-65L408,610z"></path> <path class="st0" d="M21,684c-34-43-24-101,21-125c16-8,22-8,29,2c5,8,0,17-14,24c-16,8-22,20-22,44c0,43,28,64,65,48l25-10l-23-5 c-35-6-20-27,18-27c41,0,47,14,20,48C110,721,50,721,21,684z"></path> <path class="st0" d="M260,697c0-7,9-18,20-25c51-32,1-120-52-90l-23,13l23,3c37,6,24,22-18,22c-46,0-48-7-19-44c16-20,29-26,58-26 c74,0,109,83,56,135C279,712,260,717,260,697z"></path> <path class="st0" d="M605,590c0-81,3-110,13-110c9,0,12,24,12,87v87l61-87c33-48,67-87,75-87c11,0,14,21,14,110c0,131-18,150-22,23 l-3-86l-58,86C616,734,605,731,605,590z"></path> <path class="st0" d="M847,682c-30-33-21-65,29-100c37-27,45-37,42-60c-2-23-8-28-36-30c-18-2-40,2-48,9c-11,9-14,8-14-4 c0-25,61-32,99-12c28,14,32,20,29,53c-2,30-10,41-45,65c-49,32-56,62-19,78c17,8,29,8,45,0c17-10,21-9,21,4 C950,708,868,706,847,682z"></path> <path class="st0" d="M1005,590V480h63c49,0,62,3,62,15s-4,13-19,5c-11-5-31-10-45-10c-24,0-26,3-26,45c0,40,3,45,23,45 c12,0,29,5,37,10c11,7,5,10-22,10c-38,0-38,0-38,41v41l40-4c25-2,39,0,37,7c-2,5-28,11-58,13l-54,3V590z"></path> <path class="st0" d="M1180,622c0-44-3-94-6-111c-5-24-3-31,10-31s16,14,17,88v87l32-82c18-45,35-84,38-87s22,34,42,82l36,87v-87 c1-79,3-88,20-88s18,9,17,110c-1,102-2,110-20,108c-12-2-28-27-50-80c-17-43-33-78-36-78s-17,35-31,78c-20,62-29,78-47,80 C1181,701,1180,698,1180,622z"></path> <path class="st0" d="M1438,590l-3-110h56c43,0,60,5,74,20c24,27,23,71-4,88l-21,14l20,26c18,22,19,28,7,46c-11,16-27,22-70,24 l-56,3L1438,590z M1535,650c0-16-8-29-24-37c-33-16-41-9-41,33c0,34,1,35,33,32C1530,676,1535,671,1535,650z M1531,580 c40-22,11-95-35-88c-17,2-22,11-24,51c-3,42-1,47,18,47C1502,590,1520,585,1531,580z"></path> <path class="st0" d="M1638,590l-3-110h58c32,0,57,4,57,10s-15,8-40,4l-40-7v107c0,85-3,106-14,106C1644,700,1641,678,1638,590z"></path> <path class="st0" d="M1788,590l-3-110h63c34,0,62,4,62,10s-18,7-45,3l-45-6v47c0,41,2,46,23,46c12,0,29,5,37,10c11,7,5,10-22,10 c-38,0-38,0-38,41v41l40-4c28-2,40,0,40,9s-17,13-54,13h-55L1788,590z"></path> <path class="st0" d="M101,594c-12-15-21-38-21-51c0-33,51-83,85-83c28,0,75,40,75,65c0,23-24,18-35-7c-6-13-20-24-33-26 c-48-7-82,59-47,88c13,10,15,9,15-9c0-11,5-21,10-21c6,0,10,16,10,35c0,28-4,35-19,35C130,620,112,608,101,594z"></path> <path class="st0" d="M45,420c-4-7,313-10,944-10c627,0,951,3,951,10C1940,434,54,434,45,420z"></path> <path class="st0" d="M433,343c27-4,27-5,27-79c0-59,3-74,15-74s15,15,15,74c0,74,0,75,28,79c15,2-4,4-43,4C437,347,417,345,433,343 z"></path> <path class="st0" d="M570,271c0-65,3-81,15-81c11,0,15,11,15,43v42l38-44c46-53,81-55,94-3c8,28,13,32,43,32c29,0,35-4,45-35 c6-19,17-35,25-35c9,0,4,23-18,80c-17,44-36,80-43,80c-6,0-28-34-47-75c-20-41-38-75-41-75s-17,16-32,35c-25,34-26,36-9,54 c30,34,16,56-38,59l-47,3V271z M645,330c11-18-6-50-26-50c-14,0-19,7-19,30s5,30,19,30C630,340,642,335,645,330z M783,272 c-21-5-25,2-17,34l7,29l13-30C796,280,796,274,783,272z"></path> <path class="st0" d="M855,333c3-10,16-46,28-80c12-35,26-63,32-63c5,0,24,33,40,73c17,39,32,75,33,79c2,5-2,8-10,8 c-7,0-20-26-31-60c-9-33-21-60-26-60c-4,0-16,27-26,60c-11,37-24,60-33,60S850,344,855,333z"></path> <path class="st0" d="M1025,270v-80h48c26,0,47,4,47,9c0,6-16,7-35,4c-35-6-35-5-35,30c0,31,3,36,28,40l27,4l-27,2c-24,1-28,5-28,32 c0,29,2,31,30,27c17-3,30-1,30,4c0,4-19,8-42,8h-43V270z"></path> <path class="st0" d="M1165,270v-80h43c23,0,42,4,42,10c0,5-13,7-30,4l-30-6v76c0,54-4,76-12,76C1169,350,1165,327,1165,270z"></path> <path class="st0" d="M1359,340c-9-5-22-23-29-40c-26-63,30-120,104-106c31,6,34,10,38,46c3,37,1,40-20,40c-20,0-22-3-12-14 c6-8,10-25,8-38c-4-28-43-36-73-14c-23,17-27,84-6,110c20,24,66,20,84-6l16-23v28c1,26-1,27-46,27C1396,350,1368,345,1359,340z"></path> <path class="st0" d="M1236,314c-5-14-4-15,9-4c17,14,19,20,6,20C1246,330,1239,323,1236,314z"></path> <path class="st0" d="M1505,244c0-41,4-54,15-54c12,0,14,10,12,45c-4,40-2,45,17,45c12,0,21,4,21,9s-15,9-32,9h-33V244z"></path> <path class="st0" d="M1584,276c-33-52,31-111,77-70c23,21,25,57,3,78c-24,25-34,19-19-12c19-37,9-74-19-70c-17,2-22,11-24,42 c-2,24,2,42,10,47c9,6,10,9,1,9C1606,300,1593,289,1584,276z"></path> <path class="st0" d="M1700,256c0-24,6-48,13-54c14-12,60-11,65,1c7,20,1,97-8,97c-5,0-10-21-10-46c0-38-3-45-17-42 c-13,2-19,15-21,46C1718,313,1700,312,1700,256z"></path> <path class="st0" d="M1818,219c-2-67-1-79,13-79c12,0,14,7,11,29c-3,25-1,29,15,25c31-8,55,22,51,65c-3,35-4,36-45,37l-42,2 L1818,219z M1878,281c8-5,12-22,10-42c-2-26-8-34-23-34s-21,8-23,28C1836,282,1849,300,1878,281z"></path> <path class="st0" d="M426,69c-8-42-8-49,3-49c5,0,9,6,8,13c-1,35,5,48,26,57s21,9-4,9C437,100,431,94,426,69z"></path> <path class="st0" d="M1000,88c0-7-3-24-7-38c-9-36,6-19,17,19c5,19,5,31-1,31C1004,100,1000,94,1000,88z"></path> <path class="st0" d="M1261,63c-6-20-8-39-6-42c3-2,5,1,5,9c0,9,4,9,13,2c9-8,12-5,12,13c0,13-4,21-9,18c-4-3-5,4-1,16 c3,11,4,21,1,21S1266,83,1261,63z"></path> <path class="st0" d="M1690,80c0-11,2-20,4-20s6,9,9,20s1,20-4,20S1690,91,1690,80z"></path> <path class="st0" d="M966,65c-3-9-6-24-5-33c0-9,5-4,10,12C980,76,977,92,966,65z"></path> <path class="st0" d="M1110,54c-12-31-12-34-1-34c5,0,11,13,13,30C1128,87,1123,88,1110,54z"></path> <path class="st0" d="M1175,65c-3-8-7-22-10-30c-2-8-1-15,4-15s11,13,13,30C1187,82,1183,90,1175,65z"></path> <path class="st0" d="M501,54c0-11,3-14,6-6c3,7,2,16-1,19C503,71,500,65,501,54z"></path> <path class="st0" d="M540,58c0-7-3-24-7-38c-9-36,6-19,17,19c5,19,5,31-1,31C544,70,540,64,540,58z"></path> <path class="st0" d="M572,50c0-14,2-19,5-12c2,6,2,18,0,25C574,69,572,64,572,50z"></path> <path class="st0" d="M651,63c-1-6-4-20-7-30c-5-17-5-17,6,0c6,10,9,23,6,30C653,72,651,72,651,63z"></path> <path class="st0" d="M697,63c-4-3-7-16-6-27c0-19,1-19,10,3C711,63,709,75,697,63z"></path> <path class="st0" d="M727,63c-9-9-9-43,1-43c4,0,7,11,7,25s0,25-1,25C734,70,730,67,727,63z"></path> <path class="st0" d="M775,50c-4-12-5-24-2-27c3-2,8,5,12,17s5,24,2,27C784,69,779,62,775,50z"></path> <path class="st0" d="M801,43c0-25,1-26,9-8c12,27,12,35,0,35C805,70,800,58,801,43z"></path> <path class="st0" d="M887,63c-9-9-9-43,1-43c4,0,7,11,7,25s0,25-1,25C894,70,890,67,887,63z"></path> <path class="st0" d="M1020,45c0-32,6-32,12,0c3,14,1,25-3,25C1024,70,1020,59,1020,45z"></path> <path class="st0" d="M1077,50c-3-11-1-23,4-26s9,6,9,20C1090,75,1084,78,1077,50z"></path> <path class="st0" d="M1227,50c-3-11-1-23,4-26s9,6,9,20C1240,75,1234,78,1227,50z"></path> <path class="st0" d="M1360,59c0-15,18-19,23-6c3,8-1,14-9,14S1360,63,1360,59z"></path> <path class="st0" d="M1437,50c3-11,9-20,13-20c5,0,6,9,3,20s-9,20-13,20C1435,70,1434,61,1437,50z"></path> <path class="st0" d="M1484,55c-3-8-4-20-2-27c3-7,7-1,10,15C1498,72,1493,79,1484,55z"></path> <path class="st0" d="M1516,55c-9-26-7-32,5-12c6,10,9,21,6,23C1525,69,1520,64,1516,55z"></path> <path class="st0" d="M1542,45c0-17,2-22,5-12c2,9,2,23,0,30C1544,69,1542,62,1542,45z"></path> <path class="st0" d="M1566,52c-4-13-5-26-2-29c10-11,18,4,14,29l-4,23L1566,52z"></path> <path class="st0" d="M1623,35c-6-19-8-35-3-35c8,0,23,60,17,67C1635,68,1629,54,1623,35z"></path> <path class="st0" d="M1657,51c-4-17-3-21,5-13c5,5,8,16,6,23C1665,69,1661,64,1657,51z"></path> <path class="st0" d="M1717,63c-9-9-9-43,1-43c4,0,7,11,7,25s0,25-1,25C1724,70,1720,67,1717,63z"></path> <path class="st0" d="M1827,63c-9-9-9-43,1-43c4,0,7,11,7,25s0,25-1,25C1834,70,1830,67,1827,63z"></path> <path class="st0" d="M1880,58c0-9,5-20,10-23c13-8,13,5,0,25C1882,73,1880,73,1880,58z"></path> <path class="st0" d="M594,49c-3-6-2-15,3-20s9-1,10,11C609,62,605,65,594,49z"></path> <path class="st0" d="M830,40c0-11,4-20,9-20s7,9,4,20s-7,20-9,20S830,51,830,40z"></path> <path class="st0" d="M1047,45c-4-8-3-16,1-19s9,4,9,15C1059,64,1054,66,1047,45z"></path> <path class="st0" d="M1194,49c-3-6-2-15,3-20s9-1,10,11C1209,62,1205,65,1194,49z"></path> <path class="st0" d="M1305,50c-8-13,3-30,18-29c9,0,9,2,0,5c-7,3-9,12-6,20C1323,62,1314,65,1305,50z"></path> <path class="st0" d="M1770,40c0-11,4-20,9-20s7,9,4,20s-7,20-9,20S1770,51,1770,40z"></path> <path class="st0" d="M1681,34c0-11,3-14,6-6c3,7,2,16-1,19C1683,51,1680,45,1681,34z"></path> <path class="st0" d="M1741,34c0-11,3-14,6-6c3,7,2,16-1,19C1743,51,1740,45,1741,34z"></path> </g> </svg> 