<?xml version="1.0" encoding="UTF-8"?> <!-- Generator: Adobe Illustrator 24.2.1, SVG Export Plug-In . SVG Version: 6.00 Build 0) --> <svg xmlns="http://www.w3.org/2000/svg" xmlns:xlink="http://www.w3.org/1999/xlink" version="1.1" id="Layer_1" x="0px" y="0px" viewBox="0 0 188 28" style="enable-background:new 0 0 188 28;" xml:space="preserve"> <style type="text/css"> .st0{fill:#FFFFFF;} </style> <g id="ars-icon-logo-cn-us"> <g> <polygon class="st0" points="97.3,3.4 96.9,2.2 97.3,0.1 97.1,0 91.6,4.6 91.6,4.7 "></polygon> <path class="st0" d="M13.3,25.2c-1,1-2.4,1.6-3.8,1.6c-4.4,0-5.5-3.9-5.5-8.5s1-8.5,5.4-8.5c1.4,0,2.7,0.6,3.6,1.6l2.5,3.8h0.2 V9.5h-0.2l-2.3,1.2c-1.1-0.9-2.4-1.4-3.8-1.4C5.1,9.3,0,12.6,0,18.4s5,9.1,9.5,9.1c1.5,0,2.9-0.5,4-1.5l2.2,1.3h0.2v-6h-0.2 L13.3,25.2z"></path> <path class="st0" d="M29.7,9.2c-4.2,0-9.2,3.6-9.2,9.1s5,9.1,9.2,9.1s9.2-3.6,9.2-9.1S34,9.2,29.7,9.2z M29.7,26.8 c-4.2,0-5.3-3.7-5.3-8.5s1.1-8.5,5.3-8.5s5.3,3.7,5.3,8.5S34,26.8,29.7,26.8z"></path> <polygon class="st0" points="54.8,10 57,10 57,21 56.9,21 49.1,9.5 42.1,9.5 42.1,10 44.2,10 44.2,26.6 42.1,26.6 42.1,27.1 47.1,27.1 47.1,26.6 44.9,26.6 44.9,10 44.9,10 57.5,27.4 57.7,27.4 57.7,10 59.8,10 59.8,9.5 54.8,9.5 "></polygon> <path class="st0" d="M71.5,9.5h-7.9V10h2.3v16.6h-2.3v0.5h7.9c3.9,0,10.4-1.7,10.4-8.9S75.4,9.5,71.5,9.5z M71.3,26.6h-1.9V10h1.9 c4.6,0,6.7,3.3,6.7,8.3S75.9,26.6,71.3,26.6z"></path> <path class="st0" d="M97.6,26.6H91v-8.7h3.3c0.9,1,1.7,2.2,2.3,3.4h0.2V14h-0.2c-0.6,1.2-1.4,2.4-2.3,3.4H91V10h5.9 c1.7,1.1,3.2,4.2,3.2,4.2h0.2V9.5H85.2V10h2.3v16.6h-2.3v0.5h15.6v-5.9h-0.2C99.9,23.1,98.9,25,97.6,26.6z"></path> <polygon class="st0" points="124.6,10 126.8,10 126.8,21 126.7,21 118.9,9.5 111.8,9.5 111.8,10 114,10 114,26.6 111.8,26.6 111.8,27.1 116.8,27.1 116.8,26.6 114.7,26.6 114.7,10 114.7,10 127.3,27.4 127.4,27.4 127.4,10 129.6,10 129.6,9.5 124.6,9.5 "></polygon> <path class="st0" d="M140.9,8.9h-0.2l-7.5,17.6h-2.1V27h4.7v-0.5h-2l2.7-6.3h5.7l2.9,6.3h-2.3V27h8.2v-0.5h-2.1L140.9,8.9z M136.8,19.8l2.6-6.1l2.7,6.1H136.8z"></path> <path class="st0" d="M163.4,16.8l-3.5-1.2c-1.7-0.6-3.1-1.4-3.1-3.1s1.5-2.8,3.8-2.8c1.2-0.1,2.3,0.3,3.1,1.2l2.5,3.8h0.2V9.1 h-0.2l-2.3,1.2c-0.9-0.8-2.1-1.2-3.3-1.2c-2.9-0.2-5.4,2.1-5.6,5c0,0.1,0,0.1,0,0.2c0,2.5,1.8,3.8,3.7,4.5l3.5,1.3 c1.9,0.7,3.1,1.5,3.1,3.3s-1.2,3.3-4.2,3.3c-1.5-0.1-2.9-0.6-4-1.5l-2.6-4.3h-0.3V27h0.3l2.2-1.2c1.2,0.9,2.7,1.4,4.2,1.5 c3.8,0,6.3-2.7,6.3-5.7S165.6,17.5,163.4,16.8z"></path> <path class="st0" d="M171.3,9.5V15h0.2c0.9-1.8,1.9-3.4,3.1-5h3.1v16.6h-2.8v0.5h9.1v-0.5h-2.8V10h3.1c1.2,1.6,2.2,3.2,3.1,5h0.2 V9.6h-16.3V9.5z"></path> </g> </g> </svg> 