<?xml version="1.0" encoding="UTF-8"?> <svg xmlns="http://www.w3.org/2000/svg" width="100.014" height="48.751" viewBox="0 0 100.014 48.751"><g id="Layer_2" data-name="Layer 2" transform="translate(0 0)"><g id="Layer_1" data-name="Layer 1" transform="translate(0 0)"><text id="FINALIST" transform="translate(36.34 47.751)" fill="#fff" font-size="5" font-family="Helvetica-Bold, Helvetica" font-weight="700" letter-spacing="0.05em"><tspan x="0" y="0">FINALIST</tspan></text><path id="Path_620" data-name="Path 620" d="M185.306,36.711a4.013,4.013,0,0,1-1.41.275,2.176,2.176,0,0,1-1.716-.665,2.659,2.659,0,0,1-.613-1.825A2.372,2.372,0,0,1,184,31.908a2.578,2.578,0,0,1,1.161.234l-.177.734a2.091,2.091,0,0,0-1-.213,1.366,1.366,0,0,0-1.156.475,1.8,1.8,0,0,0-.431,1.31c0,1.132.613,1.8,1.518,1.8a1.376,1.376,0,0,0,.6-.1V34.919h-.768v-.726h1.547Z" transform="translate(-116.083 -18.819)" fill="#fff"></path><path id="Path_621" data-name="Path 621" d="M194.115,36.435c0-.48,0-.82-.025-1.157h.689l.029.685h.025a.968.968,0,0,1,.865-.763.682.682,0,0,1,.188,0v.857a.974.974,0,0,0-.234-.025.755.755,0,0,0-.721.689,1.533,1.533,0,0,0-.022.271V38.86h-.8Z" transform="translate(-124.092 -20.758)" fill="#fff"></path><path id="Path_622" data-name="Path 622" d="M200.637,37.339a.9.9,0,0,0,.977.935,2.192,2.192,0,0,0,.873-.164l.119.623a2.547,2.547,0,0,1-1.107.23,1.4,1.4,0,0,1-1.184-.485,1.844,1.844,0,0,1-.442-1.34c0-.993.53-1.928,1.547-1.928s1.359.96,1.359,1.747a2.328,2.328,0,0,1-.025.381Zm1.392-.636a.849.849,0,0,0-.163-.608.65.65,0,0,0-.508-.265.85.85,0,0,0-.721.874Z" transform="translate(-127.787 -20.767)" fill="#fff"></path><path id="Path_623" data-name="Path 623" d="M209.9,37.339a.9.9,0,0,0,.977.935,2.192,2.192,0,0,0,.873-.164l.115.623a2.54,2.54,0,0,1-1.1.23,1.4,1.4,0,0,1-1.184-.485,1.844,1.844,0,0,1-.442-1.34c0-.993.53-1.928,1.547-1.928s1.359.96,1.359,1.747a1.919,1.919,0,0,1-.029.381Zm1.392-.636a.85.85,0,0,0-.159-.6.652.652,0,0,0-.5-.27.846.846,0,0,0-.721.874Z" transform="translate(-133.708 -20.767)" fill="#fff"></path><path id="Path_624" data-name="Path 624" d="M218.955,36.348c0-.41,0-.759-.025-1.071h.7l.04.541h0a1.126,1.126,0,0,1,1.01-.619c.552,0,1.121.41,1.121,1.538v2.137h-.786V36.824c0-.476-.166-.886-.613-.886a.678.678,0,0,0-.62.533.977.977,0,0,0-.036.287v2.117h-.786Z" transform="translate(-139.975 -20.761)" fill="#fff"></path><path id="Path_625" data-name="Path 625" d="M232.693,35.915a2.032,2.032,0,0,0,1.06.316c.508,0,.793-.271.793-.677s-.22-.6-.775-.82a1.558,1.558,0,0,1-1.183-1.444,1.42,1.42,0,0,1,1.547-1.432,2.082,2.082,0,0,1,1.049.246l-.191.734a1.709,1.709,0,0,0-.873-.234c-.508,0-.721.308-.721.6,0,.381.252.562.837.82a1.526,1.526,0,0,1,1.129,1.477A1.471,1.471,0,0,1,233.7,37a2.334,2.334,0,0,1-1.183-.316Z" transform="translate(-148.664 -18.79)" fill="#fff"></path><path id="Path_626" data-name="Path 626" d="M242.285,36.347c0-.41,0-.759-.025-1.071h.685l.036.529H243a1.059,1.059,0,0,1,.974-.607.915.915,0,0,1,.876.66h0a1.377,1.377,0,0,1,.386-.451.989.989,0,0,1,.642-.209c.523,0,1.053.41,1.053,1.559v2.117h-.779V36.889c0-.6-.18-.952-.563-.952a.623.623,0,0,0-.537.48,1.156,1.156,0,0,0-.04.3v2.158h-.782V36.8c0-.5-.177-.861-.544-.861a.653.653,0,0,0-.573.513,1.059,1.059,0,0,0-.04.3v2.125h-.783Z" transform="translate(-154.892 -20.76)" fill="#fff"></path><path id="Path_627" data-name="Path 627" d="M258.994,38.9l-.054-.41h-.022a1.1,1.1,0,0,1-.93.484.871.871,0,0,1-.7-.289,1.136,1.136,0,0,1-.292-.774c0-.907.721-1.366,1.875-1.362v-.057a.571.571,0,0,0-.642-.628,1.53,1.53,0,0,0-.851.267l-.166-.582a2.081,2.081,0,0,1,1.147-.316c1.013,0,1.3.726,1.3,1.514v1.3a5.933,5.933,0,0,0,.051.866Zm-.1-1.76c-.566,0-1.1.123-1.1.673a.516.516,0,0,0,.121.379.39.39,0,0,0,.334.137.659.659,0,0,0,.624-.5.735.735,0,0,0,.025-.2Z" transform="translate(-164.317 -20.778)" fill="#fff"></path><path id="Path_628" data-name="Path 628" d="M266.74,31.38h.815v5.246h-.8Z" transform="translate(-170.545 -18.508)" fill="#fff"></path><path id="Path_629" data-name="Path 629" d="M271.37,31.38h.8v5.246h-.8Z" transform="translate(-173.505 -18.508)" fill="#fff"></path><path id="Path_630" data-name="Path 630" d="M181.984,52.373c0,1.665-.891,2.621-2.1,2.621s-2.019-1.075-2.019-2.535c0-1.526.847-2.609,2.084-2.609S181.984,50.941,181.984,52.373Zm-3.271.07c0,1.017.451,1.821,1.215,1.821s1.208-.82,1.208-1.858c0-.939-.407-1.825-1.2-1.825s-1.219.833-1.219,1.854Z" transform="translate(-113.721 -29.402)" fill="#fff"></path><path id="Path_631" data-name="Path 631" d="M191.105,54.435c0-.48,0-.82-.025-1.157h.692l.029.685h.022a.971.971,0,0,1,.865-.763.67.67,0,0,1,.187,0v.857a.955.955,0,0,0-.234-.025.755.755,0,0,0-.721.689,2.019,2.019,0,0,0,0,.271v1.866h-.8Z" transform="translate(-122.167 -31.374)" fill="#fff"></path><path id="Path_632" data-name="Path 632" d="M200.008,53.314c-.018.242-.029.541-.029,1.034V56.4a2.282,2.282,0,0,1-.469,1.641,1.66,1.66,0,0,1-1.222.435,2.069,2.069,0,0,1-1.082-.283l.173-.693a1.7,1.7,0,0,0,.923.275.787.787,0,0,0,.684-.292,1.042,1.042,0,0,0,.224-.791v-.308h0a1.046,1.046,0,0,1-.92.525c-.782,0-1.341-.738-1.341-1.752,0-1.19.674-1.9,1.442-1.9a.964.964,0,0,1,.92.558h0l.029-.48Zm-.826,1.444a1.068,1.068,0,0,0-.025-.246.69.69,0,0,0-.656-.582c-.44,0-.775.439-.775,1.173,0,.611.274,1.108.775,1.108a.7.7,0,0,0,.631-.55,1.337,1.337,0,0,0,.036-.32Z" transform="translate(-125.921 -31.41)" fill="#fff"></path><path id="Path_633" data-name="Path 633" d="M209.143,56.9l-.054-.41h0a1.112,1.112,0,0,1-.934.484.87.87,0,0,1-.7-.288,1.138,1.138,0,0,1-.292-.782c0-.907.721-1.366,1.875-1.362v-.049a.571.571,0,0,0-.642-.628,1.53,1.53,0,0,0-.851.267l-.177-.582a2.09,2.09,0,0,1,1.147-.316c1.013,0,1.3.726,1.3,1.514v1.3a5.939,5.939,0,0,0,.05.866Zm-.1-1.76c-.566,0-1.1.123-1.1.673a.515.515,0,0,0,.121.379.39.39,0,0,0,.334.137.662.662,0,0,0,.627-.5.928.928,0,0,0,.022-.2Z" transform="translate(-132.449 -31.395)" fill="#fff"></path><path id="Path_634" data-name="Path 634" d="M216.825,54.348c0-.41,0-.759-.025-1.071h.7l.04.541h.018a1.123,1.123,0,0,1,1.006-.619c.552,0,1.125.41,1.125,1.538v2.137h-.8V54.824c0-.513-.166-.907-.6-.907a.685.685,0,0,0-.624.533,1.115,1.115,0,0,0-.036.287v2.117h-.8Z" transform="translate(-138.613 -31.377)" fill="#fff"></path><path id="Path_635" data-name="Path 635" d="M227.985,50.293a.523.523,0,0,1-.134.36.4.4,0,0,1-.324.132.472.472,0,0,1-.407-.51.461.461,0,0,1,.44-.473.467.467,0,0,1,.425.491Zm-.847,4.6V51.278h.8v3.6Z" transform="translate(-145.212 -29.374)" fill="#fff"></path><path id="Path_636" data-name="Path 636" d="M231.389,56.036a1.607,1.607,0,0,0,.808.263c.361,0,.508-.168.508-.41s-.13-.369-.519-.525c-.62-.242-.876-.623-.873-1.05a1.112,1.112,0,0,1,1.2-1.124,1.663,1.663,0,0,1,.84.213l-.159.64a1.312,1.312,0,0,0-.671-.209c-.281,0-.44.16-.44.381s.151.336.552.5a1.136,1.136,0,0,1-.44,2.223,1.832,1.832,0,0,1-.963-.254Z" transform="translate(-147.84 -31.372)" fill="#fff"></path><path id="Path_637" data-name="Path 637" d="M240.655,56.9l-.054-.41h-.022a1.105,1.105,0,0,1-.93.484.873.873,0,0,1-.7-.288,1.141,1.141,0,0,1-.295-.783c0-.907.721-1.366,1.875-1.362v-.049a.571.571,0,0,0-.642-.628,1.507,1.507,0,0,0-.847.267l-.155-.582a2.068,2.068,0,0,1,1.143-.316c1.017,0,1.305.726,1.305,1.514v1.3a6.551,6.551,0,0,0,.047.865Zm-.1-1.76c-.562,0-1.1.123-1.1.673a.515.515,0,0,0,.121.379.39.39,0,0,0,.334.137.659.659,0,0,0,.627-.5.731.731,0,0,0,.022-.2Z" transform="translate(-152.584 -31.395)" fill="#fff"></path><path id="Path_638" data-name="Path 638" d="M248.667,50.89v1.03h.772V52.6h-.757v1.587c0,.443.1.665.407.665a.977.977,0,0,0,.31-.041V55.5a1.618,1.618,0,0,1-.581.094.87.87,0,0,1-.685-.3,1.571,1.571,0,0,1-.252-1.009V52.6h-.451V51.92h.451V51.1Z" transform="translate(-158.198 -30.015)" fill="#fff"></path><path id="Path_639" data-name="Path 639" d="M255.421,50.29a.523.523,0,0,1-.134.36.4.4,0,0,1-.324.132.5.5,0,0,1,0-.984.4.4,0,0,1,.325.131A.519.519,0,0,1,255.421,50.29Zm-.847,4.6V51.275h.8v3.6Z" transform="translate(-162.738 -29.37)" fill="#fff"></path><path id="Path_640" data-name="Path 640" d="M261.879,55.049a1.934,1.934,0,0,1-.435,1.371,1.477,1.477,0,0,1-1.188.545,1.438,1.438,0,0,1-1.154-.526,1.883,1.883,0,0,1-.429-1.328,1.927,1.927,0,0,1,.442-1.37,1.47,1.47,0,0,1,1.195-.533,1.425,1.425,0,0,1,1.146.523A1.866,1.866,0,0,1,261.879,55.049Zm-2.383.037c0,.693.3,1.231.786,1.231s.775-.5.775-1.231c0-.566-.216-1.231-.768-1.231s-.779.632-.779,1.231Z" transform="translate(-165.384 -31.381)" fill="#fff"></path><path id="Path_641" data-name="Path 641" d="M269.355,54.348c0-.41,0-.759-.025-1.071h.7l.04.541h.018a1.126,1.126,0,0,1,1.01-.619c.548,0,1.121.41,1.121,1.538v2.137h-.8V54.824c0-.513-.166-.907-.6-.907a.678.678,0,0,0-.62.533.976.976,0,0,0-.036.287v2.117h-.8Z" transform="translate(-172.201 -31.377)" fill="#fff"></path><path id="Path_642" data-name="Path 642" d="M190.709,73.049a1.934,1.934,0,0,1-.435,1.371,1.477,1.477,0,0,1-1.188.545,1.438,1.438,0,0,1-1.154-.526,1.883,1.883,0,0,1-.429-1.328,1.928,1.928,0,0,1,.443-1.37,1.47,1.47,0,0,1,1.195-.533,1.425,1.425,0,0,1,1.146.523A1.866,1.866,0,0,1,190.709,73.049Zm-2.383.037c0,.693.3,1.231.786,1.231s.775-.5.775-1.231c0-.566-.22-1.231-.772-1.231S188.325,72.487,188.325,73.086Z" transform="translate(-119.878 -41.997)" fill="#fff"></path><path id="Path_643" data-name="Path 643" d="M197.709,72.5V69.576h-.429V68.9h.429v-.164a1.85,1.85,0,0,1,.382-1.231,1.132,1.132,0,0,1,.829-.345,1.493,1.493,0,0,1,.508.086l-.058.7a.827.827,0,0,0-.339-.066c-.4,0-.53.377-.53.82v.185h.692v.677h-.685v2.921Z" transform="translate(-126.132 -39.611)" fill="#fff"></path><path id="Path_644" data-name="Path 644" d="M208.018,68.89v1.03h.761V70.6h-.761v1.587c0,.443.1.665.407.665a1,1,0,0,0,.314-.041V73.5a1.617,1.617,0,0,1-.581.094.87.87,0,0,1-.689-.3,1.6,1.6,0,0,1-.249-1.009V70.6h-.451V69.92h.451V69.1Z" transform="translate(-132.2 -40.632)" fill="#fff"></path><path id="Path_645" data-name="Path 645" d="M214,67.38h.8v2.141h0a1.113,1.113,0,0,1,.941-.57c.537,0,1.107.41,1.107,1.559v2.117h-.8V70.608c0-.521-.166-.919-.606-.919a.674.674,0,0,0-.62.513.811.811,0,0,0-.036.275v2.149H214Z" transform="translate(-136.822 -39.741)" fill="#fff"></path><path id="Path_646" data-name="Path 646" d="M224.507,73.339a.9.9,0,0,0,.977.935,2.173,2.173,0,0,0,.869-.164l.119.623a2.54,2.54,0,0,1-1.1.23,1.4,1.4,0,0,1-1.185-.484,1.84,1.84,0,0,1-.441-1.342c0-.993.526-1.928,1.543-1.928s1.363.96,1.363,1.747a1.919,1.919,0,0,1-.029.381ZM225.9,72.7a.846.846,0,0,0-.156-.6.649.649,0,0,0-.5-.27.846.846,0,0,0-.721.874Z" transform="translate(-143.049 -42)" fill="#fff"></path><path id="Path_647" data-name="Path 647" d="M236.925,72.992V70.941L235.54,68h.916l.523,1.28c.148.365.26.648.379.984h0c.108-.316.234-.623.361-.989L238.277,68h.9l-1.442,2.871v2.1Z" transform="translate(-150.595 -40.107)" fill="#fff"></path><path id="Path_648" data-name="Path 648" d="M245.4,73.339a.9.9,0,0,0,.974.935,2.192,2.192,0,0,0,.873-.164l.119.623a2.54,2.54,0,0,1-1.1.23,1.4,1.4,0,0,1-1.186-.484,1.844,1.844,0,0,1-.444-1.342c0-.993.53-1.928,1.547-1.928s1.363.96,1.363,1.747a2.238,2.238,0,0,1-.029.381Zm1.388-.636a.846.846,0,0,0-.158-.605.649.649,0,0,0-.5-.268.85.85,0,0,0-.721.874Z" transform="translate(-156.407 -42)" fill="#fff"></path><path id="Path_649" data-name="Path 649" d="M255.907,74.9l-.058-.41h0a1.105,1.105,0,0,1-.93.484.874.874,0,0,1-.7-.288,1.141,1.141,0,0,1-.295-.783c0-.907.721-1.366,1.875-1.362v-.049a.569.569,0,0,0-.642-.628,1.507,1.507,0,0,0-.847.267l-.177-.582a2.068,2.068,0,0,1,1.143-.316c1.017,0,1.305.726,1.305,1.514v1.3a6.557,6.557,0,0,0,.047.865Zm-.108-1.76c-.563,0-1.1.123-1.1.673a.519.519,0,0,0,.123.38.394.394,0,0,0,.335.137.659.659,0,0,0,.624-.5.728.728,0,0,0,.022-.2Z" transform="translate(-162.348 -42.011)" fill="#fff"></path><path id="Path_650" data-name="Path 650" d="M263.589,72.435c0-.48,0-.82-.029-1.157h.692l.032.685h.022a.968.968,0,0,1,.865-.763.683.683,0,0,1,.188,0v.857a.975.975,0,0,0-.234-.025.755.755,0,0,0-.721.689,1.536,1.536,0,0,0-.022.271V74.86h-.8Z" transform="translate(-168.512 -41.991)" fill="#fff"></path><line id="Line_92" data-name="Line 92" y2="31.63" transform="translate(53.822 6.826)" fill="none" stroke="#fff" stroke-miterlimit="10" stroke-width="1"></line><path id="Path_651" data-name="Path 651" d="M38.863,20.368V20.2l.025.025-.032-.078a1.921,1.921,0,0,0-.137-.521l-.032.033-.126.1c.115.316.216.6.292.841A1.655,1.655,0,0,0,38.863,20.368Z" transform="translate(-24.645 -11.578)" fill="#fff"></path><path id="Path_652" data-name="Path 652" d="M21.27,40.709a1.552,1.552,0,0,1,.213-.2.479.479,0,0,0,.018-.078.846.846,0,0,0-.231.279Z" transform="translate(-13.589 -23.846)" fill="#fff"></path><path id="Path_653" data-name="Path 653" d="M39.55,22.407c.022.074.043.16.069.242l.126-.144h.022l.069-.078v.041a.177.177,0,0,0,0-.062l.05-.062C39.712,22.309,39.752,22.333,39.55,22.407Z" transform="translate(-25.278 -13.17)" fill="#fff"></path><path id="Path_654" data-name="Path 654" d="M19.88,41.886h.032l.079-.156Z" transform="translate(-12.701 -24.613)" fill="#fff"></path><path id="Path_655" data-name="Path 655" d="M17.76,40.332l.036.025.274-.246C17.929,40.159,17.789,40.221,17.76,40.332Z" transform="translate(-11.345 -23.657)" fill="#fff"></path><path id="Path_656" data-name="Path 656" d="M18.443,41l-.083.049.032.041Z" transform="translate(-11.729 -24.182)" fill="#fff"></path><path id="Path_657" data-name="Path 657" d="M37.872,20.32l-.072.062a3.95,3.95,0,0,0,.249.615,1.492,1.492,0,0,0-.177-.677Z" transform="translate(-24.159 -11.985)" fill="#fff"></path><path id="Path_658" data-name="Path 658" d="M19.18,40.491a.282.282,0,0,0,0-.2,1.2,1.2,0,0,1,0,.2Z" transform="translate(-12.253 -23.763)" fill="#fff"></path><path id="Path_659" data-name="Path 659" d="M26.276,27.076c.087-.267.025-.127.115-.2.05.217.1.5.162.82l-.018-.025.029.078c.061.316.13.665.209,1.013,0-.078.022-.16.029-.242a1.039,1.039,0,0,1,.047-.205.387.387,0,0,1,.025-.07c-.058-.308-.115-.6-.166-.87a2.384,2.384,0,0,1,.288.541l.022-.07c0-.033.029-.057.04-.086l.087-.18a8.648,8.648,0,0,0-.256-.952,5.281,5.281,0,0,0-.288-.771l-.025.07a.918.918,0,0,0-.061-.1.82.82,0,0,1-.209.242c.126.086.227-.057.141.213s-.123.086-.206.16a.543.543,0,0,0-.339-.476c.05.213-.054.312-.13.283a13.214,13.214,0,0,1-.494-1.313L25.256,25a4.153,4.153,0,0,0-.454-.911.862.862,0,0,0-.061.09,5.07,5.07,0,0,0,.242.783.175.175,0,0,0,.133-.025.523.523,0,0,0-.072.168,2.143,2.143,0,0,0,.108.217l-.04.115h0a.282.282,0,0,1,.069.16l-.04.025c.27,1.772-.173,3.868.339,5.521a8.317,8.317,0,0,1-.05-1.423c.09-.271.043-.185.126-.254a8.432,8.432,0,0,0,.238,1.69q0-.528-.043-1.054a.471.471,0,0,0,.058.066,1.918,1.918,0,0,0-.1-.582,16.169,16.169,0,0,1-.18-2.153c.09-.271.1-.139.1-.139.054.308.115.628.184.948l.043.258v-.119a10.723,10.723,0,0,0,.361,1.231c-.05-.476-.249-.82-.162-1.1s.1-.144.1-.144a4.088,4.088,0,0,0,.476,1.542.653.653,0,0,0-.025-.217.291.291,0,0,0,.025.037v-.053c-.029-.144-.058-.279-.083-.41A13.928,13.928,0,0,1,26.276,27.076ZM25.1,25.025a.233.233,0,0,0,0-.086h0a.19.19,0,0,1,.007.082Zm.415,3.581a1.356,1.356,0,0,1-.05.82c-.061-.3-.119-.759.058-.824Zm.043-1.354c-.108-.18-.043-.41-.032-.73A.779.779,0,0,1,25.555,27.253Zm.512,1.017a11.93,11.93,0,0,1-.151-1.9,11.526,11.526,0,0,1,.137,1.9Z" transform="translate(-15.808 -14.209)" fill="#fff"></path><path id="Path_660" data-name="Path 660" d="M2.324,25.625,2.288,25.6l-.458.39A2.714,2.714,0,0,0,2.324,25.625Z" transform="translate(-1.159 -15.099)" fill="#fff"></path><path id="Path_661" data-name="Path 661" d="M29.07,38.976v.033a.811.811,0,0,0-.13-.119,2.907,2.907,0,0,0,.169.632l.047-.111.061-.168a1,1,0,0,0-.112-.185q-.016-.042-.036-.082Z" transform="translate(-18.494 -22.938)" fill="#fff"></path><path id="Path_662" data-name="Path 662" d="M24.013,39.242a1.881,1.881,0,0,0,.123-.742A.967.967,0,0,0,24.013,39.242Z" transform="translate(-15.326 -22.708)" fill="#fff"></path><path id="Path_663" data-name="Path 663" d="M1.077,28.443a.093.093,0,0,0,0-.033A.093.093,0,0,0,1.077,28.443Z" transform="translate(-0.677 -16.756)" fill="#fff"></path><path id="Path_664" data-name="Path 664" d="M25.384,34.139a5.967,5.967,0,0,1-.04-.689,1.241,1.241,0,0,0-.18.9A.668.668,0,0,1,25.384,34.139Z" transform="translate(-16.067 -19.729)" fill="#fff"></path><path id="Path_665" data-name="Path 665" d="M24.89,38.731l.343-.541a8.447,8.447,0,0,1-.1-1.19,6.059,6.059,0,0,0-.238,1.731Z" transform="translate(-15.904 -21.823)" fill="#fff"></path><path id="Path_666" data-name="Path 666" d="M3.186,25.49l-.036.029.032.029.047-.045Z" transform="translate(-2.003 -15.034)" fill="#fff"></path><path id="Path_667" data-name="Path 667" d="M34.23,24.053h.018a.148.148,0,0,0-.018-.033Z" transform="translate(-21.876 -14.167)" fill="#fff"></path><path id="Path_668" data-name="Path 668" d="M28.853,41.59a1.535,1.535,0,0,0-.083.131l.018.041A.618.618,0,0,0,28.853,41.59Z" transform="translate(-18.385 -24.53)" fill="#fff"></path><path id="Path_669" data-name="Path 669" d="M2.05,29.979,2.072,30h0c.036-.045.069-.09.1-.139Z" transform="translate(-1.3 -17.612)" fill="#fff"></path><path id="Path_670" data-name="Path 670" d="M1.38,25.628A1.759,1.759,0,0,0,1.7,25.37H1.647a.978.978,0,0,0-.267.258Z" transform="translate(-0.872 -14.963)" fill="#fff"></path><path id="Path_671" data-name="Path 671" d="M40,18.77h0a.35.35,0,0,1,.018.057Z" transform="translate(-25.566 -11.071)" fill="#fff"></path><path id="Path_672" data-name="Path 672" d="M23.354,41.415A4.068,4.068,0,0,0,23.4,40.8a3.671,3.671,0,0,1-.407.82l.227.078a1.215,1.215,0,0,0,.112-.2A.094.094,0,0,0,23.354,41.415Z" transform="translate(-14.689 -24.064)" fill="#fff"></path><path id="Path_673" data-name="Path 673" d="M24.6,42.48h-.018l-.083.111a1.857,1.857,0,0,0-.151.2l.1.033h.191A.348.348,0,0,0,24.6,42.48Z" transform="translate(-15.559 -25.055)" fill="#fff"></path><path id="Path_674" data-name="Path 674" d="M28.315,39.9l-.065.193a.906.906,0,0,0,.137.283.4.4,0,0,0,.05.131.365.365,0,0,0,.043-.07l-.029.029a2.081,2.081,0,0,0,.137-.308c-.137-.205-.155-.431-.27-.6C28.315,39.671,28.311,39.786,28.315,39.9Z" transform="translate(-18.052 -23.333)" fill="#fff"></path><path id="Path_675" data-name="Path 675" d="M25.83,41.53l-.4.726h.281a1.02,1.02,0,0,1,.1-.226,2.175,2.175,0,0,0,.022.246h.054a.5.5,0,0,0,.133-.053h.072V42.2h-.018C25.9,42.022,25.931,41.723,25.83,41.53Z" transform="translate(-16.249 -24.495)" fill="#fff"></path><path id="Path_676" data-name="Path 676" d="M27.554,41.99a.667.667,0,0,0-.094-.135,1.932,1.932,0,0,1,.1.3,1,1,0,0,0,.119-.094,1.192,1.192,0,0,0-.151-.386Q27.547,41.829,27.554,41.99Z" transform="translate(-17.547 -24.577)" fill="#fff"></path><path id="Path_677" data-name="Path 677" d="M14,35.136c.22-.308.429-.632.577-.886.029-.09.058-.172.09-.25C14.429,34.361,14.216,34.755,14,35.136Z" transform="translate(-8.941 -20.054)" fill="#fff"></path><path id="Path_678" data-name="Path 678" d="M24.05,23.459c-.022.053,0,.086-.047.131-.029-.045-.022-.131-.043-.16v.139l.069.057A.332.332,0,0,0,24.05,23.459Z" transform="translate(-15.309 -13.819)" fill="#fff"></path><path id="Path_679" data-name="Path 679" d="M21.39,26a.529.529,0,0,1,.047.078v-.029Z" transform="translate(-13.666 -15.335)" fill="#fff"></path><path id="Path_680" data-name="Path 680" d="M24.7,22.714a3.6,3.6,0,0,1,.465.23C25.118,22.738,24.787,22.443,24.7,22.714Z" transform="translate(-15.783 -13.333)" fill="#fff"></path><path id="Path_681" data-name="Path 681" d="M20.17,26.09c.047.176.083.349.119.521-.022-.16-.043-.312-.065-.464Z" transform="translate(-12.886 -15.388)" fill="#fff"></path><path id="Path_682" data-name="Path 682" d="M22.247,20.294c.04.037.079.082.119.127,0-.033-.032-.066-.05-.1l.065.021a.587.587,0,0,0,0-.119.619.619,0,0,1-.13-.037,1.39,1.39,0,0,0-.548-.525.362.362,0,0,0-.224-.082H21.41A2.512,2.512,0,0,0,22.247,20.294Z" transform="translate(-13.679 -11.548)" fill="#fff"></path><path id="Path_683" data-name="Path 683" d="M23.83,25.95l0,0v0Z" transform="translate(-15.226 -15.306)" fill="#fff"></path><path id="Path_684" data-name="Path 684" d="M17.58,36.79c.087-.135.173-.271.274-.41h0A.85.85,0,0,0,17.58,36.79Z" transform="translate(-11.23 -21.457)" fill="#fff"></path><path id="Path_685" data-name="Path 685" d="M16.769,21.365a4.368,4.368,0,0,0,.526.464,6.066,6.066,0,0,1,.462.759,3.17,3.17,0,0,0,.238-.349,7.341,7.341,0,0,0,.671.582.334.334,0,0,1,0-.205l.1.168-.076-.381-.649-.41a2.354,2.354,0,0,0-.537-.48h0l-.108-.045a.535.535,0,0,1-.151.2,2.826,2.826,0,0,0-.66-.665.347.347,0,0,1-.029-.049l-.707-.2a.8.8,0,0,1-.083.16h0A1.69,1.69,0,0,0,16.769,21.365Z" transform="translate(-10.073 -12.239)" fill="#fff"></path><path id="Path_686" data-name="Path 686" d="M18.87,35.75l-.26.792A2.317,2.317,0,0,0,18.87,35.75Z" transform="translate(-11.889 -21.086)" fill="#fff"></path><path id="Path_687" data-name="Path 687" d="M18.172,37.64c-.036.115-.043.2.025.217v-.021a.3.3,0,0,1-.025-.2Z" transform="translate(-11.592 -22.2)" fill="#fff"></path><path id="Path_688" data-name="Path 688" d="M15.527,20.653h.087l-.094-.033A.137.137,0,0,0,15.527,20.653Z" transform="translate(-9.913 -12.162)" fill="#fff"></path><path id="Path_689" data-name="Path 689" d="M19.207,35l-.087.119a.3.3,0,0,1,.087-.066Z" transform="translate(-12.215 -20.643)" fill="#fff"></path><path id="Path_690" data-name="Path 690" d="M17.327,19.422l-.137.41c.195-.053.238-.139.48-.041a4.777,4.777,0,0,1,.462.226.2.2,0,0,0,.115.123l.022-.045a3.821,3.821,0,0,1,.772.615.286.286,0,0,0-.022-.066c.188.176.4.365.591.525v-.057a.6.6,0,0,1,.022-.152,4.94,4.94,0,0,0-.739-.615,2.939,2.939,0,0,0-.642-.537c-.065-.053-.13-.1-.191-.144l-.05.041c-.1-.07-.22-.078-.361-.16l-.126-.135A.386.386,0,0,1,17.327,19.422Zm.649.3a.127.127,0,0,1-.061,0h.061Z" transform="translate(-10.981 -11.448)" fill="#fff"></path><path id="Path_691" data-name="Path 691" d="M22.3,35.953a.249.249,0,0,1,.115.086.5.5,0,0,1,.036-.119A.422.422,0,0,0,22.3,35.953Z" transform="translate(-14.248 -21.186)" fill="#fff"></path><path id="Path_692" data-name="Path 692" d="M25.15,23.18a3.109,3.109,0,0,0,.361.521v-.057C25.417,23.352,25.3,23.221,25.15,23.18Z" transform="translate(-16.07 -13.672)" fill="#fff"></path><path id="Path_693" data-name="Path 693" d="M26.617,25.817a1.143,1.143,0,0,0,.047-.127H26.57A.531.531,0,0,0,26.617,25.817Z" transform="translate(-16.978 -15.152)" fill="#fff"></path><path id="Path_694" data-name="Path 694" d="M32.26,28.595a1.223,1.223,0,0,0,.1-.18,6.96,6.96,0,0,1-.281-.984,2.516,2.516,0,0,0,.184,1.165Z" transform="translate(-20.494 -16.178)" fill="#fff"></path><path id="Path_695" data-name="Path 695" d="M17.031,23.48a.292.292,0,0,0-.018-.123.243.243,0,0,1,.115.074l-.087-.254c-.53-.976-1.839-1.362-1.8-1.546h0l-.05.053C15.149,21.95,16.562,23.148,17.031,23.48Z" transform="translate(-9.7 -12.758)" fill="#fff"></path><path id="Path_696" data-name="Path 696" d="M30.789,25.7c-.025-.107-.05-.213-.079-.328a1.774,1.774,0,0,0-.169-.34,2.583,2.583,0,0,0,.249.669Z" transform="translate(-19.517 -14.763)" fill="#fff"></path><path id="Path_697" data-name="Path 697" d="M26.27,22.79l.036.041a.158.158,0,0,0-.029-.041Z" transform="translate(-16.786 -13.442)" fill="#fff"></path><path id="Path_698" data-name="Path 698" d="M18.73,26.76Z" transform="translate(-11.965 -15.783)" fill="#fff"></path><path id="Path_699" data-name="Path 699" d="M26.559,25.531h.094a.381.381,0,0,1,.029-.1.405.405,0,0,1-.126-.033A.527.527,0,0,0,26.559,25.531Z" transform="translate(-16.967 -14.981)" fill="#fff"></path><path id="Path_700" data-name="Path 700" d="M25.72,22.2h0l-.065-.1a.958.958,0,0,1-.159-.222l-.065-.09a.516.516,0,0,1-.022.062Z" transform="translate(-16.237 -12.852)" fill="#fff"></path><path id="Path_701" data-name="Path 701" d="M21.041,34.94h-.025l-.036.123a.425.425,0,0,1,.1.066,1.613,1.613,0,0,0-.025-.176Z" transform="translate(-13.404 -20.608)" fill="#fff"></path><path id="Path_702" data-name="Path 702" d="M28.36,25.259a3.947,3.947,0,0,0,.206,1.128,1.061,1.061,0,0,0,.05-.115.569.569,0,0,0,.04-.222,1.28,1.28,0,0,0-.292-.82v.037l.054.033Z" transform="translate(-18.123 -14.881)" fill="#fff"></path><path id="Path_703" data-name="Path 703" d="M27.532,26.28a1.338,1.338,0,0,0-.123.591l.361.156C27.666,26.657,27.547,26.407,27.532,26.28Z" transform="translate(-17.515 -15.5)" fill="#fff"></path><path id="Path_704" data-name="Path 704" d="M11.584,37.075l.1-.115-.1.094A.093.093,0,0,1,11.584,37.075Z" transform="translate(-7.394 -21.799)" fill="#fff"></path><path id="Path_705" data-name="Path 705" d="M11.52,36.95Z" transform="translate(-7.355 -21.793)" fill="#fff"></path><path id="Path_706" data-name="Path 706" d="M11.87,7.764h.083c.032-.057.065-.115.1-.164a.623.623,0,0,0-.18.164Z" transform="translate(-7.579 -4.483)" fill="#fff"></path><path id="Path_707" data-name="Path 707" d="M10.65,37.658l.119.107a.929.929,0,0,0,.126-.345Z" transform="translate(-6.799 -22.071)" fill="#fff"></path><path id="Path_708" data-name="Path 708" d="M9.218,34.14l-.278.242a.233.233,0,0,1,.025.053A3.058,3.058,0,0,0,9.218,34.14Z" transform="translate(-5.705 -20.136)" fill="#fff"></path><path id="Path_709" data-name="Path 709" d="M21.32,2.425v.029l.361-.074Z" transform="translate(-13.621 -1.404)" fill="#fff"></path><path id="Path_710" data-name="Path 710" d="M12.977,8.467V8.34a9.983,9.983,0,0,0-1.287.591C12.126,8.758,12.548,8.611,12.977,8.467Z" transform="translate(-7.464 -4.919)" fill="#fff"></path><path id="Path_711" data-name="Path 711" d="M25.056,21.462l-.05-.062H24.93l.18.222a.557.557,0,0,0-.054-.16Z" transform="translate(-15.93 -12.622)" fill="#fff"></path><path id="Path_712" data-name="Path 712" d="M15.16,39.15a.259.259,0,0,0,0-.18L15.128,39c-.05.123-.1.226-.148.316Z" transform="translate(-9.568 -22.985)" fill="#fff"></path><path id="Path_713" data-name="Path 713" d="M15.151,7.47h0l-.061.025Z" transform="translate(-9.638 -4.406)" fill="#fff"></path><path id="Path_714" data-name="Path 714" d="M19.21,32.57a1.552,1.552,0,0,0,.025.205A.963.963,0,0,0,19.21,32.57Z" transform="translate(-12.272 -19.21)" fill="#fff"></path><path id="Path_715" data-name="Path 715" d="M12.71,38.2l.022-.025h0Z" transform="translate(-8.116 -22.519)" fill="#fff"></path><path id="Path_716" data-name="Path 716" d="M17.1,32.5a.222.222,0,0,0,0,.168,1.586,1.586,0,0,1,.029-.2.1.1,0,0,0-.029.029Z" transform="translate(-10.913 -19.151)" fill="#fff"></path><path id="Path_717" data-name="Path 717" d="M15.64,16.264a3.229,3.229,0,0,1,.49-.021v-.025C15.889,16.17,15.7,16.162,15.64,16.264Z" transform="translate(-9.99 -9.546)" fill="#fff"></path><path id="Path_718" data-name="Path 718" d="M19.73,40.875c.076-.1.155-.205.234-.3a1.191,1.191,0,0,0-.234.3Z" transform="translate(-12.605 -23.934)" fill="#fff"></path><path id="Path_719" data-name="Path 719" d="M21.05,36.52Z" transform="translate(-13.449 -21.54)" fill="#fff"></path><path id="Path_720" data-name="Path 720" d="M15.39,17.481c.238-.033.469-.066.7-.082v-.041a1.673,1.673,0,0,0-.7.123Z" transform="translate(-9.83 -10.237)" fill="#fff"></path><path id="Path_721" data-name="Path 721" d="M19.934,40l-.094.066v.053A.541.541,0,0,0,19.934,40Z" transform="translate(-12.675 -23.592)" fill="#fff"></path><path id="Path_722" data-name="Path 722" d="M24.22,32.775v0Z" transform="translate(-15.476 -19.157)" fill="#fff"></path><path id="Path_723" data-name="Path 723" d="M32.688,26.835l.047-.1c-.13-.332-.267-.652-.415-.972L32.3,25.74H32.27a6.212,6.212,0,0,0,.361,1.231Z" transform="translate(-20.623 -15.182)" fill="#fff"></path><path id="Path_724" data-name="Path 724" d="M25.39,30.64v.41A1.711,1.711,0,0,0,25.39,30.64Z" transform="translate(-16.224 -18.072)" fill="#fff"></path><path id="Path_725" data-name="Path 725" d="M19.7,34.46Z" transform="translate(-12.586 -20.325)" fill="#fff"></path><path id="Path_726" data-name="Path 726" d="M24.942,32.56a.8.8,0,0,0,.029-.086,1.244,1.244,0,0,1-.061-.144A.584.584,0,0,1,24.942,32.56Z" transform="translate(-15.917 -19.069)" fill="#fff"></path><path id="Path_727" data-name="Path 727" d="M14.26,38.12Z" transform="translate(-9.107 -22.484)" fill="#fff"></path><path id="Path_728" data-name="Path 728" d="M11.587,8.356a.092.092,0,0,0-.047,0,.349.349,0,0,1,0,.066Z" transform="translate(-7.368 -4.926)" fill="#fff"></path><path id="Path_729" data-name="Path 729" d="M21.533,9.152H21.6A2.36,2.36,0,0,1,21.27,9,.693.693,0,0,0,21.533,9.152Z" transform="translate(-13.589 -5.308)" fill="#fff"></path><path id="Path_730" data-name="Path 730" d="M24,13.6v-.074l-.184-.131A1.552,1.552,0,0,0,24,13.6Z" transform="translate(-15.22 -7.898)" fill="#fff"></path><path id="Path_731" data-name="Path 731" d="M21.555,7.834a3.6,3.6,0,0,0,.458.107c-.2-.107-.389-.09-.544-.271h0A.114.114,0,0,0,21.555,7.834Z" transform="translate(-13.709 -4.524)" fill="#fff"></path><path id="Path_732" data-name="Path 732" d="M21.358,6.317H21.21v.094l.862-.07a5.867,5.867,0,0,0-.714-.025Z" transform="translate(-13.551 -3.725)" fill="#fff"></path><path id="Path_733" data-name="Path 733" d="M22.356,13.695a.328.328,0,0,0-.076-.025,2.7,2.7,0,0,1,.288.148A1.42,1.42,0,0,0,22.356,13.695Z" transform="translate(-14.235 -8.063)" fill="#fff"></path><path id="Path_734" data-name="Path 734" d="M23.584.053c-.065.029-.141,0-.3,0A.729.729,0,0,0,23,0c.195.057.411.115.631.172a1.088,1.088,0,0,0-.047-.119Z" transform="translate(-14.696 0)" fill="#fff"></path><path id="Path_735" data-name="Path 735" d="M32.78,11.63a.68.68,0,0,0,.148.2h0A2.055,2.055,0,0,0,32.78,11.63Z" transform="translate(-20.949 -6.859)" fill="#fff"></path><path id="Path_736" data-name="Path 736" d="M23.424,10.333l-.184-.053a3.213,3.213,0,0,1,.31.131Z" transform="translate(-14.849 -6.063)" fill="#fff"></path><path id="Path_737" data-name="Path 737" d="M24.594,4.168V4.127a1.155,1.155,0,0,0-.314-.057A.545.545,0,0,0,24.594,4.168Z" transform="translate(-15.514 -2.401)" fill="#fff"></path><path id="Path_738" data-name="Path 738" d="M32.93,4.27h-.018l-.022.041h0Z" transform="translate(-21.019 -2.518)" fill="#fff"></path><path id="Path_739" data-name="Path 739" d="M24.13,8.78l.2.078a.042.042,0,0,1,0-.021L24.22,8.8Z" transform="translate(-15.418 -5.179)" fill="#fff"></path><path id="Path_740" data-name="Path 740" d="M24.47.775H24.6L24.5.75Z" transform="translate(-15.635 -0.442)" fill="#fff"></path><path id="Path_741" data-name="Path 741" d="M22.6,7.386l.79.193a.06.06,0,0,0,0-.025c-.245-.057-.48-.111-.721-.185C22.625,7.374,22.6,7.378,22.6,7.386Z" transform="translate(-14.44 -4.347)" fill="#fff"></path><path id="Path_742" data-name="Path 742" d="M30.08,14.18l.054.049h0Z" transform="translate(-19.223 -8.363)" fill="#fff"></path><path id="Path_743" data-name="Path 743" d="M32.026,6.145c.148.107.26.217.4.336l.047-.152a.164.164,0,0,0,.108-.1L32.524,6.2l.108-.336h0a5.43,5.43,0,0,1-.959-.312l-.018.062c-.036.07-.072.148-.1.226l.054.033A4.651,4.651,0,0,1,32.026,6.145Z" transform="translate(-20.163 -3.273)" fill="#fff"></path><path id="Path_744" data-name="Path 744" d="M30.7,11.049,30.62,11a3.537,3.537,0,0,1,.361.373A.593.593,0,0,0,30.7,11.049Z" transform="translate(-19.568 -6.488)" fill="#fff"></path><path id="Path_745" data-name="Path 745" d="M29.67,12.83v.086l.422.246A4.252,4.252,0,0,0,29.67,12.83Z" transform="translate(-18.96 -7.567)" fill="#fff"></path><path id="Path_746" data-name="Path 746" d="M31.84,14.56l.058.07Z" transform="translate(-20.348 -8.588)" fill="#fff"></path><path id="Path_747" data-name="Path 747" d="M32.942,4.32H32.91l.09.07a.7.7,0,0,0-.058-.07Z" transform="translate(-21.032 -2.548)" fill="#fff"></path><path id="Path_748" data-name="Path 748" d="M34.361,8.08l.1.086a.159.159,0,0,0,0-.045V8.088H34.35Z" transform="translate(-21.953 -4.766)" fill="#fff"></path><path id="Path_749" data-name="Path 749" d="M34.608,4.4a1.566,1.566,0,0,0-.328-.2l.054.041a.692.692,0,0,0-.144-.057l.361.3a.413.413,0,0,1,.058-.09Z" transform="translate(-21.851 -2.471)" fill="#fff"></path><path id="Path_750" data-name="Path 750" d="M34.643,7.941h0L34.6,7.9Z" transform="translate(-22.113 -4.659)" fill="#fff"></path><path id="Path_751" data-name="Path 751" d="M35.014,5.932h0L34.92,5.85Z" transform="translate(-22.317 -3.45)" fill="#fff"></path><path id="Path_752" data-name="Path 752" d="M29.477,14.7l-.1-.1h0l.09.1Z" transform="translate(-18.775 -8.611)" fill="#fff"></path><path id="Path_753" data-name="Path 753" d="M22.29,2.38h0Z" transform="translate(-14.242 -1.404)" fill="#fff"></path><path id="Path_754" data-name="Path 754" d="M34.544,22.846a.445.445,0,0,0-.054.16c.155.291.3.578.447.861h.4c-.213-.468-.444-.911-.685-1.337A.854.854,0,0,0,34.544,22.846Z" transform="translate(-22.042 -13.288)" fill="#fff"></path><path id="Path_755" data-name="Path 755" d="M36.5,22.407c-.483-.16-.516-.566-.609-.857l-.18.111a5.064,5.064,0,0,1,.4,1.1,3.978,3.978,0,0,0,.115.41c.069-.074.148-.16.238-.25-.04-.107-.083-.209-.13-.316C36.435,22.58,36.5,22.407,36.5,22.407Z" transform="translate(-22.822 -12.71)" fill="#fff"></path><path id="Path_756" data-name="Path 756" d="M36.8,20.96c.191.316.4.845.613,1.251l.13-.135c-.169-.439-.361-.882-.53-1.3Z" transform="translate(-23.519 -12.256)" fill="#fff"></path><path id="Path_757" data-name="Path 757" d="M21.21,5.849v.193h.148a5.871,5.871,0,0,1,.721.037,2.29,2.29,0,0,1,.469.078,1.32,1.32,0,0,1,.029-.209A8.079,8.079,0,0,0,21.21,5.849Z" transform="translate(-13.551 -3.449)" fill="#fff"></path><path id="Path_758" data-name="Path 758" d="M41.5,18.42h0c.04.086.076.156.1.209Q41.55,18.527,41.5,18.42Z" transform="translate(-26.525 -10.864)" fill="#fff"></path><path id="Path_759" data-name="Path 759" d="M4.726,26.794a.12.12,0,0,1,.1-.119A.038.038,0,0,1,4.8,26.65l-.148.07Z" transform="translate(-2.962 -15.718)" fill="#fff"></path><path id="Path_760" data-name="Path 760" d="M15.584,41.172l.05-.045A.481.481,0,0,1,15.382,41l-.032.025A.31.31,0,0,0,15.584,41.172Z" transform="translate(-9.804 -24.182)" fill="#fff"></path><path id="Path_761" data-name="Path 761" d="M34.415,23.51H34.39l.029.053C34.419,23.551,34.415,23.531,34.415,23.51Z" transform="translate(-21.978 -13.866)" fill="#fff"></path><path id="Path_762" data-name="Path 762" d="M21.81,1.383h0a2.468,2.468,0,0,0,.92,0V.972A.588.588,0,0,1,22.647.78h-.155A4.822,4.822,0,0,0,21.6.718a1.463,1.463,0,0,0-.069.156V.837a.765.765,0,0,0-.13.271c.458-.057.905-.086,1.338-.144-.393.1-.869.234-1.363.353a.154.154,0,0,0,0,.041V1.321a.541.541,0,0,0,0,.074A1.79,1.79,0,0,1,21.81,1.383Z" transform="translate(-13.657 -0.423)" fill="#fff"></path><path id="Path_763" data-name="Path 763" d="M16.942,41.5H16.91Z" transform="translate(-10.802 -24.477)" fill="#fff"></path><path id="Path_764" data-name="Path 764" d="M22.07,7.18l.249.078c.256.074.49.127.721.185V7.291A4.314,4.314,0,0,0,22.07,7.18Z" transform="translate(-14.101 -4.235)" fill="#fff"></path><path id="Path_765" data-name="Path 765" d="M20.552,34.1c.09-.267.112-.139.112-.139.022.115.119.156.238.336-.043-.41-.083-1.231-.09-1.866v-.476a.533.533,0,0,1-.029-.062.5.5,0,0,1-.032.213l-.087.115.047-.049-.018.029-.1.144a10.4,10.4,0,0,1,0,1.3l-.339.139a.132.132,0,0,0-.018-.1.256.256,0,0,0-.115-.1l-.13-.074a.785.785,0,0,0,.361-.41,1.347,1.347,0,0,0,.036-.222,2.033,2.033,0,0,0-.339.386l-.036-.049v.09a.4.4,0,0,0,.123-.066.821.821,0,0,1-.123.094v.07c-.112.07-.195,0-.281-.057a.425.425,0,0,0-.1-.066l.036-.123a.13.13,0,0,0-.04.09c-.072,0-.137-.057-.216-.123a12.413,12.413,0,0,1-.523,1.821c.361-.242.447-.82.764-1.144h0L19.171,35.3l.061-.037.094-.045c.18-.123.3-.238.382-.287l-.123.369a2.28,2.28,0,0,0-.159.176c-.079.09-.159.193-.234.3s-.144.185-.216.267h.018l.069.062a.191.191,0,0,0,0-.045l.188.045.112-.148a4.329,4.329,0,0,0,.627-1.091,5.869,5.869,0,0,0,.3-.681,1.921,1.921,0,0,1,.05.948c-.05.148-.2.226-.361.361a1.552,1.552,0,0,0-.213.2,1.451,1.451,0,0,0-.263.468l.119.025c.216-.18.361-.5.573-.689l-.249.759h.072l.1.033a2.346,2.346,0,0,0,.231-.5C20.415,35.512,20.466,34.368,20.552,34.1Z" transform="translate(-12.068 -18.809)" fill="#fff"></path><path id="Path_766" data-name="Path 766" d="M21.21,4.942a8,8,0,0,1,1.4,0,2.457,2.457,0,0,0,.018-.254,11.034,11.034,0,0,0-1.414,0Z" transform="translate(-13.551 -2.751)" fill="#fff"></path><path id="Path_767" data-name="Path 767" d="M28.181,18.253a1.034,1.034,0,0,1,.328.41H28.6a6.429,6.429,0,0,0-.422-.623A1.142,1.142,0,0,0,28.181,18.253Z" transform="translate(-18.005 -10.64)" fill="#fff"></path><path id="Path_768" data-name="Path 768" d="M20.768,28.82l-.058.037v.057A.552.552,0,0,1,20.768,28.82Z" transform="translate(-13.231 -16.998)" fill="#fff"></path><path id="Path_769" data-name="Path 769" d="M28.26,17.31Z" transform="translate(-18.059 -10.21)" fill="#fff"></path><path id="Path_770" data-name="Path 770" d="M29.076,24.219h0l.047.062L29,24.19l.137.156A.411.411,0,0,0,29.076,24.219Z" transform="translate(-18.532 -14.267)" fill="#fff"></path><path id="Path_771" data-name="Path 771" d="M29.8,16.4a.6.6,0,0,0-.1.09l.076-.135c-.206-.254-.418-.5-.635-.73-.018.078-.036.152-.058.226a.2.2,0,0,1,0,.029,10.1,10.1,0,0,1,.606.82.214.214,0,0,1,.087-.1h-.022c-.022,0-.025,0-.025-.078S29.758,16.444,29.8,16.4Z" transform="translate(-18.583 -9.213)" fill="#fff"></path><path id="Path_772" data-name="Path 772" d="M28.33,17.143c.191.242.379.488.559.726l.072-.164A.545.545,0,0,1,29,17.644c-.18-.238-.361-.48-.573-.714A1.275,1.275,0,0,0,28.33,17.143Z" transform="translate(-18.104 -9.985)" fill="#fff"></path><path id="Path_773" data-name="Path 773" d="M9.252,31.881a.271.271,0,0,1-.112-.041,2.407,2.407,0,0,0,.191.16l.083-.094A.2.2,0,0,0,9.252,31.881Z" transform="translate(-5.833 -18.78)" fill="#fff"></path><path id="Path_774" data-name="Path 774" d="M23.14,27.22c.047-.107.1-.222.155-.328l-.025-.062a.989.989,0,0,0-.13.39Z" transform="translate(-14.785 -15.825)" fill="#fff"></path><path id="Path_775" data-name="Path 775" d="M10.137,32.516a.561.561,0,0,0-.076-.226c-.018.025-.043.049-.061.078A.832.832,0,0,1,10.137,32.516Z" transform="translate(-6.383 -19.045)" fill="#fff"></path><path id="Path_776" data-name="Path 776" d="M35.769,25.87a.261.261,0,0,0,0,.033.233.233,0,0,0,.256.021Z" transform="translate(-22.86 -15.258)" fill="#fff"></path><path id="Path_777" data-name="Path 777" d="M16.727,15.372h.043c-.036-.119-.072-.226-.112-.332H16.64A.705.705,0,0,0,16.727,15.372Z" transform="translate(-10.629 -8.871)" fill="#fff"></path><path id="Path_778" data-name="Path 778" d="M30.452,13.209l.058.07.036.041.054-.16a2.632,2.632,0,0,0-.891-.89,1.217,1.217,0,0,1-.04.23,4.271,4.271,0,0,1,.411.332C30.207,12.951,30.333,13.074,30.452,13.209Z" transform="translate(-18.96 -7.237)" fill="#fff"></path><path id="Path_779" data-name="Path 779" d="M31.806,9.015A8.644,8.644,0,0,0,30.684,8.1l-.054.209a6.8,6.8,0,0,1,1.082.98C31.744,9.2,31.773,9.109,31.806,9.015Z" transform="translate(-19.574 -4.777)" fill="#fff"></path><path id="Path_780" data-name="Path 780" d="M23.07,33.09Z" transform="translate(-14.74 -19.517)" fill="#fff"></path><path id="Path_781" data-name="Path 781" d="M32.231,7.531A5.065,5.065,0,0,0,31.149,6.51c-.043.111-.083.226-.119.349a10.2,10.2,0,0,1,1.121.931Z" transform="translate(-19.83 -3.84)" fill="#fff"></path><path id="Path_782" data-name="Path 782" d="M.11,27.6a1.168,1.168,0,0,1-.09.1c.072.066.119.131.173.119A.747.747,0,0,1,.11,27.6Z" transform="translate(-0.002 -16.279)" fill="#fff"></path><path id="Path_783" data-name="Path 783" d="M31,11.97c-.047-.131,0-.222-.018-.275a.605.605,0,0,1-.072.156l.072-.209-.407-.427c-.13-.139-.256-.267-.361-.373a1.683,1.683,0,0,0-.206-.172.14.14,0,0,0,0,.041.224.224,0,0,0,0,.074A1.12,1.12,0,0,1,29.97,11,7.278,7.278,0,0,1,31,11.97Z" transform="translate(-19.152 -6.293)" fill="#fff"></path><path id="Path_784" data-name="Path 784" d="M24.807,28.156V28.07c-.065,0-.079.156-.133.23l.184.152a1.035,1.035,0,0,0-.188.222c0,.037.047.062.1.074s.032.07.043.1,0,.09.025.135v.168a1.565,1.565,0,0,1-.119.283,2.007,2.007,0,0,0,.072.381,1.245,1.245,0,0,0,.061.144.592.592,0,0,0,.094.123q0-.271,0-.554v-.41a5.324,5.324,0,0,0-.083-1.009C24.825,28.127,24.811,28.136,24.807,28.156Zm.083.238-.025.033v-.045Z" transform="translate(-15.763 -16.556)" fill="#fff"></path><path id="Path_785" data-name="Path 785" d="M30.106,14.811c.047-.115.09-.23.13-.349-.184-.189-.361-.373-.563-.546l-.054-.049-.252-.217a1.615,1.615,0,0,0,0,.189.179.179,0,0,0,.025-.029,1.444,1.444,0,0,1-.032.23l.1.1C29.677,14.347,29.894,14.573,30.106,14.811Z" transform="translate(-18.762 -8.051)" fill="#fff"></path><path id="Path_786" data-name="Path 786" d="M21.26,2.81v.279a8.816,8.816,0,0,0,1.392-.152C22.2,2.831,21.527,2.888,21.26,2.81Z" transform="translate(-13.583 -1.657)" fill="#fff"></path><path id="Path_787" data-name="Path 787" d="M21.22,3.67V3.9a1.547,1.547,0,0,0,.281-.053C21.411,3.773,21.3,3.723,21.22,3.67Z" transform="translate(-13.557 -2.165)" fill="#fff"></path><path id="Path_788" data-name="Path 788" d="M21.116,26.211a5.592,5.592,0,0,0-.209-.7.583.583,0,0,0-.159.242v.029c-.036.1-.054.193-.115.226s-.133-.189-.227-.287a.243.243,0,0,0-.115-.074.292.292,0,0,0,.018.123c.018.041,0,.025,0,.037.022.152.043.3.065.464s.05.41.072.632c.09-.062.188-.115.285-.168a.825.825,0,0,1,.108-.64,5.04,5.04,0,0,0,.061.562q.148-.062.292-.135v-.271a.689.689,0,0,1,.083.185q.007-.042.018-.082a.916.916,0,0,0,.061-.123.865.865,0,0,0,.069-.148.181.181,0,0,1,.029-.045l-.025-.07C21.246,26.035,21.21,26.146,21.116,26.211Z" transform="translate(-12.963 -15.046)" fill="#fff"></path><path id="Path_789" data-name="Path 789" d="M23.6,32.739a.191.191,0,0,1,0,.045l.076-.094Z" transform="translate(-15.079 -19.281)" fill="#fff"></path><path id="Path_790" data-name="Path 790" d="M12.664,8.65c-.429.139-.851.291-1.273.464L11.2,9.2a.493.493,0,0,0,.029.115,11.58,11.58,0,0,1,1.442-.48Z" transform="translate(-7.151 -5.102)" fill="#fff"></path><path id="Path_791" data-name="Path 791" d="M12.658,3.41l.025.049a.5.5,0,0,0-.141.053h-.029a.592.592,0,0,0-.09.045.13.13,0,0,0-.05,0H12.2l-.047.119.588-.185a.424.424,0,0,0-.079-.082Z" transform="translate(-7.758 -2.011)" fill="#fff"></path><path id="Path_792" data-name="Path 792" d="M21.18,10.922a4.607,4.607,0,0,1,.53.185,4.682,4.682,0,0,1,.472.238,1.155,1.155,0,0,0,.137-.41,6.473,6.473,0,0,0-1.136-.234Z" transform="translate(-13.532 -6.311)" fill="#fff"></path><path id="Path_793" data-name="Path 793" d="M15.27,5.77V5.9h0Z" transform="translate(-9.753 -3.403)" fill="#fff"></path><path id="Path_794" data-name="Path 794" d="M1.813,26.18l-.173-.193c-.436.222-.84.455-1.3.7a.4.4,0,0,0,.018-.041.093.093,0,0,1,0-.033c.177-.431.692-.587,1.082-.82a.179.179,0,0,0-.025-.029l.029.025L1.5,25.75a.233.233,0,0,1-.079-.267.94.94,0,0,1-.224-.057l-.047.045.061.062-.076-.049a2.714,2.714,0,0,1-.494.365.876.876,0,0,1-.267.107.654.654,0,0,1,.1-.332.978.978,0,0,1,.267-.258.738.738,0,0,0-.534.156c0-.135-.043-.082-.054-.156a.289.289,0,0,0-.133.135h0a.1.1,0,0,1,.133,0c-.047.09-.133.135-.188.213a.566.566,0,0,1,.151.07q-.021.1-.032.193A.3.3,0,0,0,.06,26.1H.085a.264.264,0,0,1,0,.185h0a1.645,1.645,0,0,0,.1.242.862.862,0,0,0,.032.139l-.036-.053c.022.119.112.263.137.369a.658.658,0,0,0,0-.082,1.355,1.355,0,0,0,.332.39.641.641,0,0,1,.411-.435c-.09.127-.151.242-.216.349a.714.714,0,0,1-.1.139l.076.086a2.465,2.465,0,0,0,.314.263q.369-.669.8-1.292a.566.566,0,0,0-.119-.217ZM.085,25.692a.093.093,0,0,1,0-.033.233.233,0,0,1,.036-.037.555.555,0,0,1-.036.07Z" transform="translate(0.03 -14.957)" fill="#fff"></path><path id="Path_795" data-name="Path 795" d="M21,12.089v.185a3.2,3.2,0,0,1,.782.222,1.552,1.552,0,0,1,.231.123l.184.131a.872.872,0,0,0-.022-.217,3.242,3.242,0,0,0-.656-.41A1.621,1.621,0,0,0,21,12.089Zm.05.16h0v0Z" transform="translate(-13.417 -7.125)" fill="#fff"></path><path id="Path_796" data-name="Path 796" d="M7.741,31.45a3.318,3.318,0,0,1-.361.582,2.194,2.194,0,0,1,.256.279c.18-.168.361-.332.512-.5C8.018,31.7,7.878,31.577,7.741,31.45Z" transform="translate(-4.708 -18.55)" fill="#fff"></path><path id="Path_797" data-name="Path 797" d="M12.335,28.082a3.163,3.163,0,0,0-.307.119,4.381,4.381,0,0,1,.141-.665.852.852,0,0,1,.27-.41h0a.283.283,0,0,1,.094.144,1.954,1.954,0,0,0-.137.365.3.3,0,0,0,.04.2.115.115,0,0,0,.029.045l.072-.226.26-.792.083-.254a.058.058,0,0,0-.072,0,.3.3,0,0,0-.087.066l-.072.062c-.032-.119-.087.086,0-.18s.191-.082.281-.222h0a.5.5,0,0,0,.032-.078s.032-.267.058-.623v-.066a.14.14,0,0,1,0,.041v-.168a.726.726,0,0,1,0-.275v-.025a.678.678,0,0,0-.072.271,2.429,2.429,0,0,1-.083-.64.8.8,0,0,1,.191-.472h0c-.029-.533-.115-.993-.325-1.079a.324.324,0,0,0-.133-.033h0a.141.141,0,0,0-.151.09,4.174,4.174,0,0,1,.317,1.674c-.087.267-.025.127-.115.193-.3-.882-.151-1.932-.837-2.268a.23.23,0,0,0,.13-.086.458.458,0,0,1,.119-.1.471.471,0,0,1,.256.234l.137-.41c-.213-.107-.285-.381-.523-.48s-.361.094-.6,0-.112-.029-.169-.135c.1-.033.2-.283.227-.447-.27,0-.411-.041-.476-.131a.545.545,0,0,0,.411-.172l.05-.053a1.405,1.405,0,0,0,.169-.2.8.8,0,0,0,.083-.16V20.69h-.191a4.546,4.546,0,0,0-.5.107,2.737,2.737,0,0,0-.04.714.415.415,0,0,1,.26.464L11,22.056v.021c.036.111.079.226.123.349-.123-.127-.173-.263-.285-.3a.885.885,0,0,1,.148.41h0a.265.265,0,0,1,.133-.049h0a.759.759,0,0,1,.508-.053l.22.09a1.153,1.153,0,0,0-.682.086c.069.193.144.386.209.558h.061c.238.1-.025.238.213.336s.166-.176.281-.123c.04.09.072.176.1.258a1.869,1.869,0,0,0,.256.874,2.2,2.2,0,0,1-.2.82.965.965,0,0,0-.04.185,1.586,1.586,0,0,0-.029.2,7.709,7.709,0,0,1-.13.882c-.087.271-.508.894-.721,1.464-.094-.025-.115-.156-.184-.217h0a.119.119,0,0,0-.115,0,8.435,8.435,0,0,0,.631-1.017,7.53,7.53,0,0,0,.5-1.9.771.771,0,0,0-.361-1.075l-.083-.078c-.061.049-.2.144-.361.275a.938.938,0,0,1,.321.226c.025.07.05.135.072.205l-.422-.2h-.061L11,24.226a1.241,1.241,0,0,0-.234.275.428.428,0,0,0-.047.094.767.767,0,0,0-.054.312c-.184.037-.252.086-.314.053.032.074-.069.16-.05.238.094-.135.2-.156.317-.234a3.805,3.805,0,0,1-.343.312.032.032,0,0,0-.018,0,2.137,2.137,0,0,0-.4.41c.112-.18.26-.349.379-.509-.22.139-.27.464-.6.476.043.07.087.082.133.127.115-.1.22-.193.321-.275a4.394,4.394,0,0,1-.328.468,4.739,4.739,0,0,0-.389.443c-.072.074-.148.144-.224.213.025.07.047.135.069.205a.8.8,0,0,0,0,.131.377.377,0,0,0,0,.127,7.836,7.836,0,0,0,1.54-1.641l-.05.16a3.159,3.159,0,0,0-.732,1.358l.1-.049a.466.466,0,0,0,0,.1,2.011,2.011,0,0,0,.425-.41,4.055,4.055,0,0,1,.433-.369.7.7,0,0,1,.065.139c-.285.291-.606.689-.876,1.009l-.1.115v-.021a.64.64,0,0,0-.022-.1h0c-.029-.131-.083-.291-.18-.324a2.149,2.149,0,0,1-.368.435,1.573,1.573,0,0,0,.206.246c.1-.094.2-.193.3-.3a.363.363,0,0,1,0,.107.929.929,0,0,1-.126.345,4.081,4.081,0,0,0,.5.365h0a1.464,1.464,0,0,0,.361-.41,1.016,1.016,0,0,1-.26.459l.465.3c.191-.144.361-.283.516-.41h.025a.259.259,0,0,1,0,.18l-.173.164a.837.837,0,0,0-.162.226,2.525,2.525,0,0,1,.238.189,2.086,2.086,0,0,1,.638-.665,2.466,2.466,0,0,1-.57.726h0a2.125,2.125,0,0,0,.3.066A1.788,1.788,0,0,0,12.335,28.082Zm.361-2.851a1.011,1.011,0,0,0,.047.332.963.963,0,0,1,.025.205.5.5,0,0,1-.029.156,6.5,6.5,0,0,1-1.251,1.924,22.861,22.861,0,0,0,1.237-2.617Zm-1.424-.287a.836.836,0,0,1,.335-.39,1.012,1.012,0,0,1,0,.529.737.737,0,0,1-.238.336h-.054a1.078,1.078,0,0,1-.05-.164.941.941,0,0,0,.036-.312Zm-.851,2.921-.022.025.022-.041A12.1,12.1,0,0,1,11.1,26.56h.029a1.812,1.812,0,0,1,.061-.172c.123-.222.249-.443.361-.669l.05-.037c.04.033.1.119.04.316a2.489,2.489,0,0,1-.2.41c-.148.254-.361.578-.577.886-.133.2-.285.4-.418.57Z" transform="translate(-5.833 -12.203)" fill="#fff"></path><path id="Path_798" data-name="Path 798" d="M5.273,29.212a.442.442,0,0,1,.032.086.246.246,0,0,1,0,.115l-.076-.021a.319.319,0,0,1-.209-.2,1.532,1.532,0,0,0-.433.312c0-.369.148-.41.476-.533A.147.147,0,0,1,5.111,29q-.119-.16-.216-.32l-.13-.213a1.647,1.647,0,0,0-.411.57.761.761,0,0,0-.029.123l-.043.094c-.087.263-.058.34.065.439a.411.411,0,0,1-.058.033.6.6,0,0,0,.162.025H4.61l.054.025.072.041a.935.935,0,0,1,.494-.144,1.939,1.939,0,0,1-.3.263l.224.144h0l.548-.41a5.6,5.6,0,0,1-.433-.459Z" transform="translate(-2.695 -16.792)" fill="#fff"></path><path id="Path_799" data-name="Path 799" d="M15.791,28.133l-.061-.053A.237.237,0,0,0,15.791,28.133Z" transform="translate(-10.047 -16.562)" fill="#fff"></path><path id="Path_800" data-name="Path 800" d="M21.551,9.121h-.065a.7.7,0,0,1-.267-.164L21.19,8.92v.41a5.975,5.975,0,0,1,.721.164l.184.053.234.078a1.3,1.3,0,0,1,.036-.193h0a.689.689,0,0,1-.213-.09l-.191-.078c.119,0,.27.025.425.037a.379.379,0,0,1,.022-.156l-.072-.029C22.135,9.006,21.792,9.166,21.551,9.121Z" transform="translate(-13.538 -5.261)" fill="#fff"></path><path id="Path_801" data-name="Path 801" d="M9.331,32.824c-.119-.078-.242-.164-.361-.254h0l.126.283a4.155,4.155,0,0,0-.656.25,2.422,2.422,0,0,1,.191.345l.278-.242Z" transform="translate(-5.386 -19.21)" fill="#fff"></path><path id="Path_802" data-name="Path 802" d="M21.11,10.64h0v.238h.029A1.342,1.342,0,0,1,21.11,10.64Z" transform="translate(-13.487 -6.276)" fill="#fff"></path><path id="Path_803" data-name="Path 803" d="M12.951,14.211c.238.1.245.34.425.546.162-.074.094-.144.162-.41-.123-.074-.321,0-.379-.115a1.487,1.487,0,0,1,.682-.119l-.065-.049a1.3,1.3,0,0,0-.022-.291v-.033a2.034,2.034,0,0,0-.876.082.555.555,0,0,1,.224-.18,1.673,1.673,0,0,1,.7-.123.032.032,0,0,0,0-.021,2,2,0,0,0-.123-.41,3.23,3.23,0,0,0-.49.021,1.688,1.688,0,0,0-.757.283,1.483,1.483,0,0,1,1.186-.48c-.04-.1-.083-.209-.123-.316a2.031,2.031,0,0,1-.581.041,4.644,4.644,0,0,1,.48-.287c-.018-.053-.04-.1-.058-.152s-.04-.168-.061-.25l-.793.234a.212.212,0,0,1,0-.172c.267-.086.519-.168.754-.234-.022-.094-.04-.189-.061-.279h-.256c-.238-.1-.123-.119-.123-.119l.332-.115c-.018-.119-.036-.242-.058-.361V10.88a7.662,7.662,0,0,0-1.24.377,4.163,4.163,0,0,0,.184.492.7.7,0,0,1,.754-.283c-.227.148-.454.324-.692.455a.444.444,0,0,0,.188.312h.022a.472.472,0,0,0,.1.057.679.679,0,0,0,.065.049c-.04.025-.137.1-.133.164l.043.029a.076.076,0,0,0,.029.057V12.57c.083.062.061.094.061.148a.513.513,0,0,1-.065.2v-.283c0,.025-.079,0-.079.111s.043.041.072.185a1,1,0,0,0-.119.316,1.26,1.26,0,0,0,.1.361.892.892,0,0,0-.1.291c.072-.049.09-.053.148,0h0a1.69,1.69,0,0,1-.032-.189c.025.053.047.111.072.168a2.286,2.286,0,0,1,.252-.127,2.4,2.4,0,0,1-.231.18l.159.349A.488.488,0,0,1,12.951,14.211Z" transform="translate(-7.553 -6.417)" fill="#fff"></path><path id="Path_804" data-name="Path 804" d="M22.116,17.782a.077.077,0,0,1,.05,0,2.138,2.138,0,0,0-.216-.152c.047.082.09.168.133.254,0-.045,0-.074.025-.086.148.09.195.189.361.234a3.221,3.221,0,0,0-.281-.238Z" transform="translate(-14.024 -10.398)" fill="#fff"></path><path id="Path_805" data-name="Path 805" d="M6.312,29.1c-.094-.029-.13-.185-.252-.23C6.107,28.96,6.219,29.124,6.312,29.1Z" transform="translate(-3.864 -17.028)" fill="#fff"></path><path id="Path_806" data-name="Path 806" d="M21.238,16.211a2.778,2.778,0,0,1,.8.513A.319.319,0,0,1,22,16.572a.342.342,0,0,1,.022-.144,3.931,3.931,0,0,0-.891-.509,1.97,1.97,0,0,0,.108.291Z" transform="translate(-13.5 -9.39)" fill="#fff"></path><path id="Path_807" data-name="Path 807" d="M35.52,6.321l-.043-.041a1.136,1.136,0,0,0,0,.123Z" transform="translate(-22.672 -3.704)" fill="#fff"></path><path id="Path_808" data-name="Path 808" d="M27.14,22.06h0c.09.127.188.254.292.41C27.45,22.249,27.389,22.06,27.14,22.06Z" transform="translate(-17.343 -13.011)" fill="#fff"></path><path id="Path_809" data-name="Path 809" d="M20.9,14.37a.9.9,0,0,0,.036.258.578.578,0,0,0,0,.111,2.151,2.151,0,0,1,.469.07,1.974,1.974,0,0,1,.534.373,1,1,0,0,1,.05-.217,4.4,4.4,0,0,0-.945-.55A.981.981,0,0,0,20.9,14.37Z" transform="translate(-13.353 -8.476)" fill="#fff"></path><path id="Path_810" data-name="Path 810" d="M14.559,20.273a.748.748,0,0,0-.166-.1.1.1,0,0,1,0,.029.463.463,0,0,0-.083.09A.4.4,0,0,1,14.559,20.273Z" transform="translate(-9.139 -11.896)" fill="#fff"></path><path id="Path_811" data-name="Path 811" d="M12.852,9.74a10.242,10.242,0,0,0-1.352.517c.029.1.058.205.094.308a8.645,8.645,0,0,1,1.258-.529Z" transform="translate(-7.342 -5.745)" fill="#fff"></path><path id="Path_812" data-name="Path 812" d="M34.3,9.224a.143.143,0,0,0,.09-.053.183.183,0,0,1-.036-.041C34.336,9.167,34.314,9.2,34.3,9.224Z" transform="translate(-21.921 -5.385)" fill="#fff"></path><path id="Path_813" data-name="Path 813" d="M39.791,18.837a.35.35,0,0,0-.018-.057.824.824,0,0,0-.133.107c.1.213.213.41.314.644A5.829,5.829,0,0,0,39.791,18.837Z" transform="translate(-25.335 -11.077)" fill="#fff"></path><path id="Path_814" data-name="Path 814" d="M31.381,10.507c.025-.066.054-.131.083-.193a6.232,6.232,0,0,0-1.082-.894l-.032.144a3.889,3.889,0,0,1,.891.763C31.28,10.384,31.331,10.445,31.381,10.507Z" transform="translate(-19.395 -5.556)" fill="#fff"></path><path id="Path_815" data-name="Path 815" d="M28.136,31.555A11.525,11.525,0,0,0,28,29.66a11.936,11.936,0,0,0,.137,1.9Z" transform="translate(-17.892 -17.494)" fill="#fff"></path><path id="Path_816" data-name="Path 816" d="M26.234,22.6h0a.158.158,0,0,1,.029.041c.133.205.256.41.361.6l.036.045h0l.087.176.047-.025-.029-.037.029.037a.481.481,0,0,0,.188-.2l-.076-.119h0l-.072-.09v-.045c-.112-.176-.224-.345-.332-.509a.363.363,0,0,1-.188.09h0a.308.308,0,0,1-.133-.082l.065.1Z" transform="translate(-16.729 -13.259)" fill="#fff"></path><path id="Path_817" data-name="Path 817" d="M25.49,21.78h0l.065.09A.465.465,0,0,0,25.49,21.78Z" transform="translate(-16.288 -12.846)" fill="#fff"></path><path id="Path_818" data-name="Path 818" d="M23.765,25.47a.4.4,0,0,0,.018.062h0c.025.086.065.172.1.263a.7.7,0,0,0,.112,0,.242.242,0,0,1,.032-.07v-.045q-.065-.135-.141-.271l-.1-.168a.332.332,0,0,0-.014.23Z" transform="translate(-15.176 -14.887)" fill="#fff"></path><path id="Path_819" data-name="Path 819" d="M30.68,25.37q.112.226.195.41c-.09-.263-.184-.509-.278-.751h-.1v.021A1.547,1.547,0,0,1,30.68,25.37Z" transform="translate(-19.491 -14.763)" fill="#fff"></path><path id="Path_820" data-name="Path 820" d="M25.16,21.4h0l.05.062Z" transform="translate(-16.077 -12.622)" fill="#fff"></path><path id="Path_821" data-name="Path 821" d="M33.143,5.145l.191.168c0-.086.029-.168.036-.254l-.094-.086c-.209-.189-.422-.365-.635-.533l-.09-.07a.96.96,0,0,0-.2.2,5.2,5.2,0,0,1,.782.566Z" transform="translate(-20.674 -2.577)" fill="#fff"></path><path id="Path_822" data-name="Path 822" d="M32.84,4.32v0h0Z" transform="translate(-20.987 -2.548)" fill="#fff"></path><path id="Path_823" data-name="Path 823" d="M26.642,35.94a1.356,1.356,0,0,0,.05-.82C26.515,35.173,26.573,35.633,26.642,35.94Z" transform="translate(-16.981 -20.714)" fill="#fff"></path><path id="Path_824" data-name="Path 824" d="M21.462,13.41l-.1-.057A2.958,2.958,0,0,0,21,13.23v.263a3.9,3.9,0,0,1,.523.176,2.725,2.725,0,0,1,.595.39l.05-.238c-.137-.1-.274-.185-.407-.263A2.691,2.691,0,0,0,21.462,13.41Z" transform="translate(-13.417 -7.803)" fill="#fff"></path><path id="Path_825" data-name="Path 825" d="M26.869,30.738A.778.778,0,0,0,26.822,30C26.812,30.324,26.747,30.558,26.869,30.738Z" transform="translate(-17.123 -17.694)" fill="#fff"></path><path id="Path_826" data-name="Path 826" d="M17.784,39.942a.968.968,0,0,0-.029-.242l-.184.168-.274.246-.317.279.191.066.307-.18.083-.049-.05.09a1.723,1.723,0,0,1-.144.222l.076.029c0,.029,0,0,.047,0l.173.045a3.7,3.7,0,0,0,.112-.455A1.2,1.2,0,0,0,17.784,39.942Z" transform="translate(-10.846 -23.415)" fill="#fff"></path><path id="Path_827" data-name="Path 827" d="M12.319,5.293V5.026l-.2.086.108-.361h.061a3.31,3.31,0,0,0-.328-.628c.022-.07.05-.148.032-.189a.386.386,0,0,1-.05.082c-.043-.062-.079-.139-.126-.217a3.429,3.429,0,0,1-.93.377.5.5,0,0,0-.224.324v.127l.775-.185-.764.258v.267c.433-.127.855-.242,1.258-.336a7.624,7.624,0,0,1-1.262.644v.168a1.978,1.978,0,0,0,.036.2.393.393,0,0,1,.274,0,.092.092,0,0,1,.047,0l-.065.045a1.716,1.716,0,0,1-.22.119l.061.279a8.361,8.361,0,0,1,1.442-.8Zm-1.139.23H11.1a.623.623,0,0,1,.18-.164,1.243,1.243,0,0,1,.66-.185A1.044,1.044,0,0,1,11.179,5.523Z" transform="translate(-6.805 -2.241)" fill="#fff"></path><path id="Path_828" data-name="Path 828" d="M21.391,7.386c-.094-.041-.115-.1-.1-.164a3.159,3.159,0,0,0,.119-.312l-.209.062v.48c.361.1.761.164,1.057.226h.094l.112.029V7.591l-.613-.1A3.6,3.6,0,0,1,21.391,7.386Z" transform="translate(-13.545 -4.076)" fill="#fff"></path><path id="Path_829" data-name="Path 829" d="M42.6,18.692a5.431,5.431,0,0,1-1.8.336,2.782,2.782,0,0,1-2.2-.849,3.229,3.229,0,0,1-.757-2.248,2.96,2.96,0,0,1,3.116-3.2,3.327,3.327,0,0,1,1.5.312L42.2,14.155a2.7,2.7,0,0,0-1.262-.275,1.753,1.753,0,0,0-1.8,1.985c0,1.337.689,2.03,1.7,2.051a1.433,1.433,0,0,0,.6-.086V16.539H40.6V15.427h2.019Z" transform="translate(-24.185 -7.506)" fill="#fff"></path><path id="Path_830" data-name="Path 830" d="M53.729,12.953a9.692,9.692,0,0,1,1.637-.115,2.508,2.508,0,0,1,1.752.492,1.672,1.672,0,0,1,.49,1.3,1.637,1.637,0,0,1-.963,1.514v.045a1.57,1.57,0,0,1,.721,1.157q.179.869.433,1.715H56.545a8.426,8.426,0,0,1-.361-1.44c-.141-.771-.361-.98-.873-.993h-.361v2.428l-1.251,0Zm1.2,2.666h.483a.864.864,0,0,0,.977-.882.815.815,0,0,0-.9-.865,3.038,3.038,0,0,0-.555.041Z" transform="translate(-34.325 -7.572)" fill="#fff"></path><path id="Path_831" data-name="Path 831" d="M70.182,16.575l-2-.012,0,1.464,2.228.012L70.4,19.184l-3.462-.021.029-6.173,3.35.021-.007,1.144-2.117-.012,0,1.284,1.994.012Z" transform="translate(-42.791 -7.662)" fill="#fff"></path><path id="Path_832" data-name="Path 832" d="M82.108,16.641l-2-.012,0,1.464,2.228.012,0,1.149-3.462-.021L78.9,13.06l3.346.021,0,1.144-2.117-.012-.007,1.28,2,.012Z" transform="translate(-50.419 -7.703)" fill="#fff"></path><path id="Path_833" data-name="Path 833" d="M90.79,19.293l.029-6.173h1.442l1.118,2.268a19.4,19.4,0,0,1,.876,2.121h.022a25.551,25.551,0,0,1-.09-2.58v-1.8h1.125l-.025,6.173H94l-1.147-2.387q-.516-1.065-.934-2.186h-.022c.025.82.04,1.686.036,2.691v1.858Z" transform="translate(-58.041 -7.738)" fill="#fff"></path><path id="Path_834" data-name="Path 834" d="M37.955,34.763l-.31,1.231h-1l1.32-4.824h1.262l1.295,4.853H39.491l-.321-1.231Zm1.082-.82-.26-1.03c-.076-.287-.151-.644-.213-.931h0c-.065.287-.13.652-.2.931l-.26,1.021Z" transform="translate(-23.423 -18.384)" fill="#fff"></path><path id="Path_835" data-name="Path 835" d="M48.1,36.052,47.11,31.22h1.042l.314,1.985c.09.582.177,1.206.242,1.694h0c.072-.521.173-1.1.285-1.7l.361-1.973h1.02l.332,2.051c.09.566.159,1.083.216,1.641h0c.065-.537.162-1.1.252-1.674l.361-1.977h.977l-1.114,4.8H50.37l-.361-2.08c-.079-.488-.148-.939-.191-1.493h0c-.079.546-.151,1-.252,1.489l-.418,2.063Z" transform="translate(-30.112 -18.414)" fill="#fff"></path><path id="Path_836" data-name="Path 836" d="M62.962,34.9l-.307,1.231h-1l1.32-4.824h1.258l1.295,4.84H64.5l-.325-1.231Zm1.082-.82-.26-1.025c-.076-.287-.148-.648-.209-.935h0c-.061.287-.13.652-.2.931l-.26,1.021Z" transform="translate(-39.415 -18.467)" fill="#fff"></path><path id="Path_837" data-name="Path 837" d="M74,31.367a7.54,7.54,0,0,1,1.276-.09,1.993,1.993,0,0,1,1.374.386,1.313,1.313,0,0,1,.386,1.013,1.276,1.276,0,0,1-.757,1.185v.025a1.236,1.236,0,0,1,.566.907,14,14,0,0,0,.339,1.362h-.97a6.992,6.992,0,0,1-.288-1.128c-.112-.6-.3-.767-.685-.779h-.288v1.9H74Zm.941,2.088H75.3a.674.674,0,0,0,.764-.689.644.644,0,0,0-.7-.681,2.364,2.364,0,0,0-.433.033Z" transform="translate(-47.305 -18.442)" fill="#fff"></path><path id="Path_838" data-name="Path 838" d="M84.381,31.422a7.488,7.488,0,0,1,1.3-.094,2.488,2.488,0,0,1,1.734.529,2.261,2.261,0,0,1,.721,1.821,2.635,2.635,0,0,1-.721,1.957,2.793,2.793,0,0,1-1.962.611,7.518,7.518,0,0,1-1.082-.078Zm.938,3.946a1.367,1.367,0,0,0,.335.025c.869,0,1.442-.529,1.442-1.682a1.5,1.5,0,0,0-.338-1.134,1.135,1.135,0,0,0-.989-.409,1.855,1.855,0,0,0-.436.041Z" transform="translate(-53.936 -18.473)" fill="#fff"></path><path id="Path_839" data-name="Path 839" d="M96.216,35.083a2.229,2.229,0,0,0,1.082.308c.44,0,.674-.205.678-.521s-.2-.472-.721-.685a1.544,1.544,0,0,1-1.161-1.432,1.454,1.454,0,0,1,1.615-1.444,2.288,2.288,0,0,1,1.082.25l-.216.878a1.808,1.808,0,0,0-.887-.234c-.418,0-.62.209-.62.464s.234.443.782.685a1.509,1.509,0,0,1-.638,2.941A2.526,2.526,0,0,1,96,35.986Z" transform="translate(-61.372 -18.466)" fill="#fff"></path><path id="Path_840" data-name="Path 840" d="M15.85,59.1V57.342l1.414-1.44c2.394-2.412,3.559-3.794,3.606-5.246a1.658,1.658,0,0,0-1.8-1.821,3.663,3.663,0,0,0-2.333,1.013l-.721-2.084a5.544,5.544,0,0,1,3.581-1.255,3.6,3.6,0,0,1,3.8,3.917c0,2.076-1.341,3.729-2.924,5.332l-1.013.948v.037l4.111.025v2.387Z" transform="translate(-10.124 -27.431)" fill="#fff"></path><path id="Path_841" data-name="Path 841" d="M47.362,53.018c0,3.835-1.388,6.456-4.176,6.44s-4.046-2.9-4.046-6.415c0-3.585,1.374-6.419,4.19-6.4,2.921,0,4.046,2.982,4.031,6.378m-5.654.041c-.029,2.843.566,4.2,1.558,4.209s1.533-1.4,1.543-4.229c0-2.748-.5-4.2-1.522-4.2-.941,0-1.583,1.345-1.579,4.225" transform="translate(-25.016 -27.509)" fill="#fff"></path><path id="Path_842" data-name="Path 842" d="M62.08,59.1V57.342l1.414-1.44c2.394-2.412,3.559-3.794,3.606-5.246a1.66,1.66,0,0,0-1.8-1.821,3.663,3.663,0,0,0-2.333,1.013l-.721-2.084a5.544,5.544,0,0,1,3.581-1.255,3.6,3.6,0,0,1,3.8,3.917c0,2.076-1.341,3.729-2.924,5.332l-1.013.948v.037l4.111.025v2.387Z" transform="translate(-39.684 -27.431)" fill="#fff"></path><path id="Path_843" data-name="Path 843" d="M93.6,53.018c-.018,3.835-1.392,6.456-4.176,6.44s-4.046-2.9-4.046-6.415c.018-3.585,1.374-6.419,4.19-6.4,2.917,0,4.046,2.982,4.031,6.378m-5.654.041c-.029,2.843.566,4.2,1.558,4.209s1.533-1.4,1.543-4.229c0-2.748-.5-4.2-1.522-4.2-.941,0-1.583,1.345-1.579,4.225" transform="translate(-54.582 -27.509)" fill="#fff"></path><path id="Path_844" data-name="Path 844" d="M16.881,85.143a1.071,1.071,0,0,1-.418.09.625.625,0,0,1-.537-.258,1.722,1.722,0,0,1-.263-1.054c0-.948.429-1.341.858-1.341a.616.616,0,0,1,.328.078l-.069.435a.448.448,0,0,0-.231-.057c-.267,0-.48.238-.48.919s.191.853.361.853a.181.181,0,0,0,.079,0v-.644h-.18v-.41h.541Z" transform="translate(-10.001 -48.706)" fill="#fff"></path><path id="Path_845" data-name="Path 845" d="M19.76,84.909v-.57h.361l.022.275h0c.069-.2.184-.3.292-.3h.083v.5a.26.26,0,0,0-.083,0c-.083,0-.195.074-.242.271a1.231,1.231,0,0,0,0,.193v.956H19.76Z" transform="translate(-12.624 -49.727)" fill="#fff"></path><path id="Path_846" data-name="Path 846" d="M22.409,85.479c0,.3.137.41.31.41A.72.72,0,0,0,23,85.827l.054.365a.966.966,0,0,1-.4.082c-.4,0-.617-.34-.617-.931s.256-1.013.588-1.013.483.312.483.886a1.431,1.431,0,0,1,0,.263Zm.361-.357c0-.246-.047-.435-.166-.435s-.18.246-.18.435Z" transform="translate(-14.075 -49.739)" fill="#fff"></path><path id="Path_847" data-name="Path 847" d="M25.885,85.479c0,.3.141.41.314.41a.736.736,0,0,0,.278-.062l.054.365a.989.989,0,0,1-.4.082c-.4,0-.617-.34-.617-.931s.252-1.013.588-1.013.494.32.494.894a1.539,1.539,0,0,1,0,.263Zm.361-.357c0-.246-.047-.435-.162-.435s-.18.246-.184.435Z" transform="translate(-16.3 -49.739)" fill="#fff"></path><path id="Path_848" data-name="Path 848" d="M29.13,84.909v-.57h.314v.217h0a.4.4,0,0,1,.361-.246c.278,0,.386.283.386.706v1.231h-.357v-1.2c0-.16-.032-.316-.144-.316s-.119.062-.148.172a.643.643,0,0,0-.022.172v1.157H29.13Z" transform="translate(-18.615 -49.727)" fill="#fff"></path><path id="Path_849" data-name="Path 849" d="M34.35,82.654a1.568,1.568,0,0,1,.444-.049.632.632,0,0,1,.512.185.688.688,0,0,1,.155.472.628.628,0,0,1-.3.57h0a.626.626,0,0,1,.361.624.814.814,0,0,1-.151.509.723.723,0,0,1-.66.263,2.108,2.108,0,0,1-.361-.025Zm.389,1.034h.087c.141,0,.249-.156.249-.369s-.072-.336-.231-.336a.248.248,0,0,0-.1,0Zm0,1.157a.273.273,0,0,0,.087,0c.159,0,.292-.123.292-.41a.389.389,0,0,0-.065-.28.3.3,0,0,0-.227-.13h-.087Z" transform="translate(-21.953 -48.719)" fill="#fff"></path><path id="Path_850" data-name="Path 850" d="M39.293,85.65v.578h-.339l-.022-.2h0a.4.4,0,0,1-.339.23c-.278,0-.393-.267-.393-.775V84.333h.4v1.075c0,.25.036.41.144.41a.148.148,0,0,0,.126-.127.461.461,0,0,0,.025-.16V84.3h.393Z" transform="translate(-24.415 -49.721)" fill="#fff"></path><path id="Path_851" data-name="Path 851" d="M41.872,85.774a.45.45,0,0,0,.263.1c.1,0,.159-.057.159-.172s-.04-.156-.169-.254a.638.638,0,0,1-.3-.546.594.594,0,0,1,.124-.418.455.455,0,0,1,.355-.177.58.58,0,0,1,.3.082l-.069.373a.359.359,0,0,0-.206-.078.132.132,0,0,0-.105.045.172.172,0,0,0-.042.119c0,.086.036.131.173.234a.672.672,0,0,1,.3.574.6.6,0,0,1-.139.434.452.452,0,0,1-.381.161.536.536,0,0,1-.335-.107Z" transform="translate(-26.716 -49.727)" fill="#fff"></path><path id="Path_852" data-name="Path 852" d="M45.071,82.755a.206.206,0,0,1-.224.183.224.224,0,0,1-.175-.243.215.215,0,0,1,.2-.215C44.984,82.48,45.071,82.587,45.071,82.755Zm-.393,2.4v-1.9h.393v1.9Z" transform="translate(-28.552 -48.647)" fill="#fff"></path><path id="Path_853" data-name="Path 853" d="M46.54,84.909v-.57h.339v.217h0a.4.4,0,0,1,.361-.246c.281,0,.389.283.389.706v1.231h-.382v-1.2c0-.16-.032-.316-.144-.316s-.119.062-.148.172a.643.643,0,0,0-.022.172v1.157H46.54Z" transform="translate(-29.747 -49.727)" fill="#fff"></path><path id="Path_854" data-name="Path 854" d="M50.579,85.479c0,.3.137.41.31.41a.742.742,0,0,0,.281-.062l.054.365a1,1,0,0,1-.4.082c-.4,0-.62-.34-.62-.931s.256-1.013.588-1.013.5.32.5.894a2.06,2.06,0,0,1,0,.263Zm.361-.357c0-.246-.047-.435-.162-.435s-.18.246-.184.435Z" transform="translate(-32.087 -49.739)" fill="#fff"></path><path id="Path_855" data-name="Path 855" d="M53.688,85.774a.45.45,0,0,0,.263.1.13.13,0,0,0,.116-.043.173.173,0,0,0,.043-.129c0-.094-.043-.156-.169-.254a.629.629,0,0,1-.3-.546.594.594,0,0,1,.124-.418.455.455,0,0,1,.355-.177.567.567,0,0,1,.3.082l-.069.373a.333.333,0,0,0-.2-.078.128.128,0,0,0-.107.044.168.168,0,0,0-.041.12c0,.086.032.131.173.234a.676.676,0,0,1,.31.574.6.6,0,0,1-.139.434.452.452,0,0,1-.381.161.536.536,0,0,1-.335-.107Z" transform="translate(-34.281 -49.727)" fill="#fff"></path><path id="Path_856" data-name="Path 856" d="M56.352,85.774a.45.45,0,0,0,.263.1.13.13,0,0,0,.116-.043.173.173,0,0,0,.043-.129c0-.094-.043-.156-.169-.254a.632.632,0,0,1-.3-.546.6.6,0,0,1,.127-.418.458.458,0,0,1,.356-.177.567.567,0,0,1,.3.082l-.069.373a.356.356,0,0,0-.2-.078.128.128,0,0,0-.107.044.168.168,0,0,0-.041.12c0,.086.032.131.169.234a.675.675,0,0,1,.3.574.6.6,0,0,1-.139.434.452.452,0,0,1-.381.161.536.536,0,0,1-.335-.107Z" transform="translate(-35.975 -49.727)" fill="#fff"></path><path id="Path_857" data-name="Path 857" d="M61.382,85.213c-.029-.057-.058-.1-.1-.172a.584.584,0,0,1-.436.2.549.549,0,0,1-.42-.225.714.714,0,0,1-.136-.5.883.883,0,0,1,.317-.718h0a1.146,1.146,0,0,1-.151-.562.65.65,0,0,1,.128-.451.5.5,0,0,1,.377-.2.442.442,0,0,1,.334.181.575.575,0,0,1,.11.4.846.846,0,0,1-.361.706h0c.087.172.22.41.3.554a1.993,1.993,0,0,0,.09-.611h.332a2.143,2.143,0,0,1-.252.923l.3.48Zm-.458-.345a.245.245,0,0,0,.206-.123c-.1-.172-.249-.439-.361-.656a.588.588,0,0,0-.115.361c0,.222.1.41.27.41Zm.022-1.961c-.087,0-.141.131-.141.3a.789.789,0,0,0,.1.369.546.546,0,0,0,.173-.41c0-.119-.025-.271-.13-.271Z" transform="translate(-38.538 -48.706)" fill="#fff"></path><path id="Path_858" data-name="Path 858" d="M66.108,84.716a.655.655,0,0,0,.335.1.227.227,0,0,0,.2-.074.3.3,0,0,0,.076-.221c0-.189-.09-.283-.26-.41a.92.92,0,0,1-.382-.726.767.767,0,0,1,.167-.547.585.585,0,0,1,.471-.22.544.544,0,0,1,.317.094l-.061.435a.416.416,0,0,0-.26-.086.215.215,0,0,0-.178.072.282.282,0,0,0-.071.2c0,.152.061.234.281.41a.912.912,0,0,1,.361.747.8.8,0,0,1-.179.563.608.608,0,0,1-.488.224.726.726,0,0,1-.386-.1Z" transform="translate(-42.222 -48.73)" fill="#fff"></path><path id="Path_859" data-name="Path 859" d="M70.681,85.65v.578h-.339v-.2h0a.4.4,0,0,1-.339.23c-.278,0-.393-.267-.393-.775V84.333h.4v1.075c0,.25.036.41.148.41a.152.152,0,0,0,.126-.127.462.462,0,0,0,.022-.16V84.3H70.7Z" transform="translate(-44.498 -49.721)" fill="#fff"></path><path id="Path_860" data-name="Path 860" d="M73.2,85.774a.433.433,0,0,0,.263.1.13.13,0,0,0,.116-.043.173.173,0,0,0,.043-.129c0-.094-.043-.156-.173-.254a.638.638,0,0,1-.3-.546.594.594,0,0,1,.125-.42.454.454,0,0,1,.358-.175.577.577,0,0,1,.3.082l-.069.373a.359.359,0,0,0-.206-.078.128.128,0,0,0-.1.045.168.168,0,0,0-.04.119c0,.086.032.131.169.234a.672.672,0,0,1,.3.574.6.6,0,0,1-.137.432.452.452,0,0,1-.378.162.536.536,0,0,1-.335-.107Z" transform="translate(-46.749 -49.727)" fill="#fff"></path><path id="Path_861" data-name="Path 861" d="M76.307,83.17v.5h.285v.361h-.285v.861c0,.222.072.275.148.275l.094-.012v.41a.7.7,0,0,1-.238.033.337.337,0,0,1-.281-.119.8.8,0,0,1-.126-.541v-.907H75.73v-.361H75.9V83.33Z" transform="translate(-48.412 -49.054)" fill="#fff"></path><path id="Path_862" data-name="Path 862" d="M79.467,85.828a3.29,3.29,0,0,0,.025.435h-.361l-.022-.189h0a.357.357,0,0,1-.321.217c-.224,0-.389-.238-.389-.574a.742.742,0,0,1,.2-.51.567.567,0,0,1,.467-.175v-.041a.251.251,0,0,0-.051-.183.191.191,0,0,0-.155-.076.465.465,0,0,0-.3.111l-.072-.34a.769.769,0,0,1,.454-.144c.447,0,.519.41.519.783Zm-.382-.488a.288.288,0,0,0-.314.32c0,.193.083.263.141.263a.187.187,0,0,0,.162-.164.364.364,0,0,0,0-.09Z" transform="translate(-50.119 -49.756)" fill="#fff"></path><path id="Path_863" data-name="Path 863" d="M82.511,82.755a.206.206,0,0,1-.223.183.223.223,0,0,1-.176-.24.216.216,0,0,1,.2-.218.2.2,0,0,1,.154.087.266.266,0,0,1,.048.188Zm-.393,2.4v-1.9h.393v1.9Z" transform="translate(-52.492 -48.647)" fill="#fff"></path><path id="Path_864" data-name="Path 864" d="M84,84.909v-.57h.339v.217h0a.407.407,0,0,1,.361-.246c.278,0,.382.283.382.693v1.231H84.7V85.048c0-.16-.029-.316-.144-.316s-.119.062-.144.172a.522.522,0,0,0-.022.172v1.157H84Z" transform="translate(-53.699 -49.727)" fill="#fff"></path><path id="Path_865" data-name="Path 865" d="M88.617,85.828a3.294,3.294,0,0,0,.025.435h-.361l-.022-.189h0a.356.356,0,0,1-.325.217c-.224,0-.386-.238-.386-.574a.742.742,0,0,1,.2-.511.567.567,0,0,1,.47-.174v-.041a.251.251,0,0,0-.052-.185.191.191,0,0,0-.157-.074.472.472,0,0,0-.3.111l-.068-.34a.749.749,0,0,1,.454-.144c.444,0,.516.41.516.783Zm-.382-.488a.287.287,0,0,0-.31.32c0,.193.079.263.141.263a.19.19,0,0,0,.162-.164.7.7,0,0,0,0-.09Z" transform="translate(-55.969 -49.756)" fill="#fff"></path><path id="Path_866" data-name="Path 866" d="M91.261,82.47h.389v.972h0a.359.359,0,0,1,.307-.217c.285,0,.411.41.411.923,0,.66-.2,1.03-.476,1.03-.123,0-.209-.066-.285-.254h0l-.022.226H91.25v-.562Zm.389,2a.368.368,0,0,0,0,.119c.032.135.087.172.133.172.13,0,.184-.213.184-.574s-.054-.541-.188-.541c-.058,0-.112.082-.13.176a.429.429,0,0,0,0,.115Z" transform="translate(-58.335 -48.642)" fill="#fff"></path><path id="Path_867" data-name="Path 867" d="M95.371,82.755a.206.206,0,0,1-.223.183.223.223,0,0,1-.176-.24.216.216,0,0,1,.2-.218.2.2,0,0,1,.154.087A.266.266,0,0,1,95.371,82.755Zm-.389,2.4v-1.9h.393v1.9Z" transform="translate(-60.714 -48.647)" fill="#fff"></path><path id="Path_868" data-name="Path 868" d="M96.84,82.47h.393v2.679H96.84Z" transform="translate(-61.909 -48.642)" fill="#fff"></path><path id="Path_869" data-name="Path 869" d="M99.091,82.755a.206.206,0,0,1-.223.183.223.223,0,0,1-.176-.24.216.216,0,0,1,.2-.218.2.2,0,0,1,.154.087A.266.266,0,0,1,99.091,82.755Zm-.393,2.4v-1.9h.393v1.9Z" transform="translate(-63.093 -48.647)" fill="#fff"></path><path id="Path_870" data-name="Path 870" d="M100.83,83.17v.5h.288v.361h-.288v.861c0,.222.072.275.151.275h.1v.41a.719.719,0,0,1-.242.033.337.337,0,0,1-.281-.119.819.819,0,0,1-.126-.541v-.919h-.173v-.361h.173V83.33Z" transform="translate(-64.096 -49.054)" fill="#fff"></path><path id="Path_871" data-name="Path 871" d="M103.214,84.38l.144.984a2.134,2.134,0,0,0,.04.316h0c0-.094.025-.205.036-.308l.123-.993h.379l-.3,1.46a2.893,2.893,0,0,1-.325.968.846.846,0,0,1-.332.3l-.126-.422a.645.645,0,0,0,.195-.16.847.847,0,0,0,.123-.226.251.251,0,0,0,0-.078.218.218,0,0,0,0-.07l-.4-1.756Z" transform="translate(-65.701 -49.768)" fill="#fff"></path></g></g></svg> 