<?xml version="1.0" encoding="UTF-8"?> <svg xmlns="http://www.w3.org/2000/svg" width="56.427" height="36.179" viewBox="0 0 56.427 36.179"><path id="IATAlogo" d="M8.037,36.079l2.3-11.483h3.745L11.8,36.079Zm11.3-3.758h2.38l-.611-4.213L19.338,32.32Zm-5.254,3.758L19.754,24.6h3.693l2.328,11.483H22.3l-.208-1.365H18.4l-.585,1.365Zm15.137,0,1.287-8.635H27.231l.559-2.9H37.856l-.559,2.9H34.176l-1.261,8.635ZM41.81,32.32h2.38l-.611-4.213L41.81,32.32Zm-5.241,3.758L42.226,24.6h3.693l2.328,11.483h-3.5l-.169-1.365H40.886L40.3,36.079ZM56.427,11.617H38.805c-.65,3.225-2.887,5.917-7.348,7.777a4.537,4.537,0,0,0,4.031,2.952h9.558a3.73,3.73,0,0,0,3.082-2.211H38.415c-.6-.1-.624-.585-.026-.637h9.545a3.871,3.871,0,0,0,3-2.2H39.82c-.559-.091-.559-.559,0-.65H51.03c1.131,0,2.159-1.313,2.588-2.2h-12.3c-.611-.078-.611-.65,0-.663H53.839c.975,0,1.925-1.066,2.588-2.172ZM0,11.617H17.621c.637,3.225,2.887,5.917,7.335,7.777a4.537,4.537,0,0,1-4.031,2.952H11.379A3.73,3.73,0,0,1,8.3,20.135h9.714c.585-.1.624-.585.026-.637H8.479a3.832,3.832,0,0,1-2.991-2.2H16.62c.559-.091.559-.559,0-.65H5.41c-1.131,0-2.159-1.313-2.588-2.2h12.3c.611-.078.611-.65,0-.663H2.6c-.988,0-1.938-1.066-2.6-2.172ZM22.5,1.942a7.866,7.866,0,0,0,2.159,1.365A12.287,12.287,0,0,1,27.31-.1,9.522,9.522,0,0,0,22.5,1.942ZM19.377,8.353H23.3A12.6,12.6,0,0,1,24.37,3.866a9.455,9.455,0,0,1-2.354-1.483,9.006,9.006,0,0,0-2.64,5.969Zm8.531-3.68v3.68H23.98a10.861,10.861,0,0,1,.975-4.265,9.53,9.53,0,0,0,2.952.585Zm6.021-2.731A7.866,7.866,0,0,1,31.77,3.307,12.327,12.327,0,0,0,29.1-.087a9.388,9.388,0,0,1,4.825,2.029Zm3.108,6.411H33.123a11.983,11.983,0,0,0-1.04-4.487A10.027,10.027,0,0,0,34.4,2.384a8.764,8.764,0,0,1,2.64,5.969Zm-8.492-3.68v3.68h3.9a10.378,10.378,0,0,0-.975-4.265,9.444,9.444,0,0,1-2.926.585ZM22.5,15.414a8.525,8.525,0,0,1,2.159-1.339,12.217,12.217,0,0,0,2.653,3.368A9.521,9.521,0,0,1,22.5,15.414ZM19.377,8.99H23.3a12.806,12.806,0,0,0,1.066,4.526,9.8,9.8,0,0,0-2.354,1.47,9.084,9.084,0,0,1-2.64-6Zm8.531,3.693V8.99H23.98a10.607,10.607,0,0,0,.975,4.265,9.514,9.514,0,0,1,2.952-.572Zm6.021,2.731a8.015,8.015,0,0,0-2.159-1.339A12.022,12.022,0,0,1,29.1,17.443a9.611,9.611,0,0,0,4.825-2.029ZM37.037,8.99H33.123a11.932,11.932,0,0,1-1.04,4.526,10.382,10.382,0,0,1,2.315,1.47,8.948,8.948,0,0,0,2.64-6Zm-8.492,3.693V8.99h3.9a10.284,10.284,0,0,1-.975,4.265,9.427,9.427,0,0,0-2.926-.572ZM27.908.277a10.314,10.314,0,0,0-2.64,3.251,8.354,8.354,0,0,0,2.64.52V.277Zm.637,0a10.162,10.162,0,0,1,2.614,3.251,7.666,7.666,0,0,1-2.614.52V.277Zm-.637,16.8a9.947,9.947,0,0,1-2.64-3.264,7.949,7.949,0,0,1,2.64-.468v3.732Zm.637.026a10.607,10.607,0,0,0,2.614-3.29,8.648,8.648,0,0,0-2.614-.468V17.1Z" transform="translate(0 0.1)" fill="#fff"></path></svg> 