<?xml version="1.0" encoding="UTF-8"?> <svg xmlns="http://www.w3.org/2000/svg" width="61.549" height="35.816" viewBox="0 0 61.549 35.816"><g id="Layer_2" data-name="Layer 2" transform="translate(0)" opacity="0.9"><g id="Layer_1" data-name="Layer 1" transform="translate(0)"><path id="Path_941" data-name="Path 941" d="M192.6,22.1c-3.111-4.386-6.223-8.745-9.429-13.241L173.74,22.4c0-3.168,0-5.941.015-8.721a1.49,1.49,0,0,1,.324-.765c2.991-4.276,5.991-8.545,9.056-12.914.242.29.455.507.629.75,2.814,3.9,5.64,7.809,8.411,11.75a3.625,3.625,0,0,1,.612,1.876c.068,2.544.029,5.088.029,7.632Z" transform="translate(-131.277)" fill="#fff"></path><path id="Path_942" data-name="Path 942" d="M42.4,22.322H37.5V5.071H30.84V0H42.4Z" transform="translate(-22.924)" fill="#fff"></path><path id="Path_943" data-name="Path 943" d="M7.074,22.353H2.19V.05H7.074Z" transform="translate(-1.201 -0.038)" fill="#fff"></path><path id="Path_944" data-name="Path 944" d="M81.82,9.028V7.81h7.166a1.443,1.443,0,0,1-1.629,1.245C85.562,8.989,83.764,9.028,81.82,9.028Z" transform="translate(-61.579 -5.907)" fill="#fff"></path><path id="Path_945" data-name="Path 945" d="M81.82,1.218V0h8A1.581,1.581,0,0,1,88,1.243C86,1.187,83.991,1.218,81.82,1.218Z" transform="translate(-61.579)" fill="#fff"></path><path id="Path_946" data-name="Path 946" d="M81.82,16.408V15.19h5.6c-.186.882-.551,1.272-1.272,1.243C84.74,16.362,83.336,16.408,81.82,16.408Z" transform="translate(-61.579 -11.489)" fill="#fff"></path><path id="Path_947" data-name="Path 947" d="M106.836,22.1c-3.111-4.386-6.223-8.745-9.429-13.241L88,22.4c0-3.168,0-5.941.015-8.721a1.49,1.49,0,0,1,.3-.765C91.307,8.638,94.305,4.369,97.371,0c.242.29.455.507.631.75,2.812,3.9,5.64,7.809,8.411,11.75a3.625,3.625,0,0,1,.612,1.876c.068,2.544.027,5.088.027,7.632Z" transform="translate(-66.265)" fill="#fff"></path><text id="irish_travel_agents_assocaiation" data-name="irish travel agents assocaiation" transform="translate(0 30.816)" fill="#fff" font-size="4" font-family="Helvetica"><tspan x="0" y="0">irish tr</tspan><tspan y="0" letter-spacing="-0.01em">av</tspan><tspan y="0">el</tspan><tspan x="0" y="4">agents assocaiation</tspan></text></g></g></svg> 