<?xml version="1.0" encoding="UTF-8"?> <svg xmlns="http://www.w3.org/2000/svg" width="108.756" height="20.15" viewBox="0 0 108.756 20.15"><g id="Group_677" data-name="Group 677" transform="translate(0 0)"><path id="Path_872" data-name="Path 872" d="M.4,13.929H.7a10.923,10.923,0,0,0,.76,2.464,7.448,7.448,0,0,0,1.029,1.653,4.787,4.787,0,0,0,1.178,1.007,4.683,4.683,0,0,0,1.252.511,7.2,7.2,0,0,0,1.208.2c.388.015.745.03,1.088.03a5.523,5.523,0,0,0,2.341-.436A3.9,3.9,0,0,0,11,18.256a3.753,3.753,0,0,0,.745-1.427,5.068,5.068,0,0,0,.209-1.412,3.617,3.617,0,0,0-.343-1.623,4.229,4.229,0,0,0-.88-1.157,4.879,4.879,0,0,0-1.163-.766A10.168,10.168,0,0,0,8.376,11.4L5.29,10.458A7.878,7.878,0,0,1,2.01,8.67,3.993,3.993,0,0,1,.892,5.695a5.89,5.89,0,0,1,.432-2.254,5.314,5.314,0,0,1,1.208-1.8A5.439,5.439,0,0,1,4.4.451,6.041,6.041,0,0,1,6.751,0,6.5,6.5,0,0,1,8.316.165,7.129,7.129,0,0,1,9.4.526c.3.135.581.255.82.361a1.677,1.677,0,0,0,.745.165.79.79,0,0,0,.462-.09,1.7,1.7,0,0,0,.343-.481h.373v4.9H11.82A8.231,8.231,0,0,0,11.268,3.5a5.465,5.465,0,0,0-1.014-1.593A4.8,4.8,0,0,0,8.764.8,4.628,4.628,0,0,0,6.751.376a6.194,6.194,0,0,0-1.416.18,4.545,4.545,0,0,0-1.446.6A3.546,3.546,0,0,0,2.77,2.3a3.274,3.274,0,0,0-.447,1.788A3.024,3.024,0,0,0,2.666,5.56a3.471,3.471,0,0,0,.894,1.022A5.539,5.539,0,0,0,4.8,7.288a11.741,11.741,0,0,0,1.386.5L9.434,8.82c.343.105.775.255,1.282.436a5.749,5.749,0,0,1,1.521.811A4.9,4.9,0,0,1,13.5,11.495a4.514,4.514,0,0,1,.522,2.269,6.644,6.644,0,0,1-.462,2.419,5.976,5.976,0,0,1-1.357,2.028,6.948,6.948,0,0,1-2.147,1.412,7.405,7.405,0,0,1-2.847.526c-.373,0-.7,0-1-.015s-.552-.03-.805-.06S4.9,20,4.664,19.954s-.522-.12-.835-.2c-.358-.105-.745-.24-1.148-.376a3.2,3.2,0,0,0-1.073-.21.757.757,0,0,0-.552.165,1.338,1.338,0,0,0-.253.436H.4Z" transform="translate(-0.4 0)" fill="#fff"></path><path id="Path_873" data-name="Path 873" d="M112.3,22.087h2.982V3.591H112.3V3.2h15.356V7.873h-.3a13.889,13.889,0,0,0-.745-1.848,5.381,5.381,0,0,0-.969-1.352,3.431,3.431,0,0,0-1.342-.826,5.776,5.776,0,0,0-1.878-.27h-4.458V11.93h1.744a6.146,6.146,0,0,0,1.506-.165,2.33,2.33,0,0,0,1.059-.6,3.307,3.307,0,0,0,.745-1.217,14.053,14.053,0,0,0,.6-1.983h.3v8.414h-.3c-.119-.526-.253-1.022-.388-1.518a4.837,4.837,0,0,0-.567-1.292,2.675,2.675,0,0,0-.969-.9,3.189,3.189,0,0,0-1.565-.331H117.95V22.1h5.069a4.471,4.471,0,0,0,2.46-.631,5.738,5.738,0,0,0,1.6-1.518,6.3,6.3,0,0,0,.909-1.818,9.164,9.164,0,0,0,.373-1.563h.3v5.92H112.3Z" transform="translate(-95.618 -2.719)" fill="#fff"></path><path id="Path_874" data-name="Path 874" d="M239,22.087h2.982V3.591H239V3.2h8.647v.376h-2.982v18.5h4.771a4.712,4.712,0,0,0,3.7-1.488,9.032,9.032,0,0,0,1.953-4.057h.3v5.92H239Z" transform="translate(-203.429 -2.719)" fill="#fff"></path><path id="Path_875" data-name="Path 875" d="M362.3,22.087h2.982V3.591H362.3V3.2h15.356V7.873h-.3a13.891,13.891,0,0,0-.745-1.848,5.381,5.381,0,0,0-.969-1.352,3.431,3.431,0,0,0-1.342-.826,5.776,5.776,0,0,0-1.879-.27h-4.458V11.93h1.744a6.147,6.147,0,0,0,1.506-.165,2.33,2.33,0,0,0,1.058-.6,3.437,3.437,0,0,0,.745-1.217,16.055,16.055,0,0,0,.611-1.983h.3v8.414h-.3c-.119-.526-.253-1.022-.388-1.518a4.839,4.839,0,0,0-.566-1.292,2.675,2.675,0,0,0-.969-.9,3.19,3.19,0,0,0-1.565-.331h-2.177V22.1h5.069a4.471,4.471,0,0,0,2.46-.631,5.738,5.738,0,0,0,1.6-1.518A6.3,6.3,0,0,0,378,18.136a9.166,9.166,0,0,0,.373-1.563h.3v5.92H362.3Z" transform="translate(-308.347 -2.719)" fill="#fff"></path><path id="Path_876" data-name="Path 876" d="M513.352,19.744h-.4a2.172,2.172,0,0,0-.432-.391,1.271,1.271,0,0,0-.745-.18,2.772,2.772,0,0,0-.88.15c-.313.105-.671.21-1.073.331a12.037,12.037,0,0,1-1.357.331,8.218,8.218,0,0,1-1.67.15,9.216,9.216,0,0,1-3.295-.616,9.04,9.04,0,0,1-3.011-2.028,11.712,11.712,0,0,1-2.206-3.14,9.318,9.318,0,0,1-.88-4.192,10.22,10.22,0,0,1,.731-3.862,10.056,10.056,0,0,1,2.013-3.246A9.944,9.944,0,0,1,503.17.811,9.036,9.036,0,0,1,507,0a6.245,6.245,0,0,1,1.476.165,8.034,8.034,0,0,1,1.148.361q.514.2.939.361a2.425,2.425,0,0,0,.835.165,1.23,1.23,0,0,0,.76-.18,3.394,3.394,0,0,0,.418-.391h.4V5.89h-.3a18.7,18.7,0,0,0-.611-2.028,5.843,5.843,0,0,0-1.044-1.773,5.012,5.012,0,0,0-1.7-1.247,6.168,6.168,0,0,0-2.564-.466,6.027,6.027,0,0,0-2.445.451A5.085,5.085,0,0,0,502.6,2.013a5.928,5.928,0,0,0-1.118,1.728,9.673,9.673,0,0,0-.626,2.089,15.918,15.918,0,0,0-.283,2.224c-.045.751-.075,1.458-.075,2.119a19.747,19.747,0,0,0,.462,4.7,8.04,8.04,0,0,0,1.267,2.945,4.441,4.441,0,0,0,1.968,1.518,7.325,7.325,0,0,0,2.549.436,6.846,6.846,0,0,0,2.892-.511,4.918,4.918,0,0,0,1.774-1.337,5.792,5.792,0,0,0,1.014-1.863c.239-.691.432-1.382.611-2.074h.3v5.755Z" transform="translate(-423.306 0)" fill="#fff"></path><path id="Path_877" data-name="Path 877" d="M624.332,22.087h2.982V3.591h-1.55a9.153,9.153,0,0,0-1.208.09,3.477,3.477,0,0,0-1.357.526,4.6,4.6,0,0,0-1.312,1.367A8.8,8.8,0,0,0,620.8,8.159h-.3V3.2h16.31V8.143h-.3a8.978,8.978,0,0,0-1.088-2.584,4.789,4.789,0,0,0-1.312-1.367,3.477,3.477,0,0,0-1.357-.526,9.155,9.155,0,0,0-1.208-.09H630v18.5h2.982v.376h-8.647Z" transform="translate(-528.054 -2.719)" fill="#fff"></path></g></svg> 