<?xml version="1.0" encoding="UTF-8"?> <!-- Generator: Adobe Illustrator 22.0.0, SVG Export Plug-In . SVG Version: 6.00 Build 0) --> <svg xmlns="http://www.w3.org/2000/svg" xmlns:xlink="http://www.w3.org/1999/xlink" version="1.1" id="Layer_1" x="0px" y="0px" viewBox="0 0 373.8 61.8" style="enable-background:new 0 0 373.8 61.8;" xml:space="preserve"> <style type="text/css"> .st0{fill:#FFFFFF;} </style> <g id="Layer_2_1_"> <g id="Layer_1-2"> <path class="st0" d="M10.9,39.7L11,26.2l-4.7,1.9c-0.6,2-0.7,4.1-0.3,6.2c0.3,2.4,1.2,4.6,2.5,6.6L10.9,39.7z M20.4,44.5 c0.6-0.2,1.2-0.5,1.5-1v-9.4l-3.1-2.8l3.1-2.8v-6.7C20,22.5,2.4,12.7,3.9,23c0,0-5.8-3.3-0.7-8.6c5.7-5.8,12.6-0.6,18.2,0.5 c2.5,0.4,6.3-1.8,1.9-3.9c-0.1-0.1,11.3,2.2,2.5,10c-0.9,0.8-2.1,1.2-3.4,1v6.6l3.6,2.9l-3.6,2.6v9.3c2.6-1.8,6-6.1,6-6.1 s-0.1,8.9-7.5,12.2C6.6,56-7.7,37.3,4.8,25.4c5-4.8,7.6-4.5,7.6-4.5C10,22.6,8,24.8,6.4,27.3l11.1-4.8l-0.1,14.8l-8.3,4.3 C13.5,45.3,16.9,45.5,20.4,44.5"></path> <path class="st0" d="M50.3,28.1l0.5,0.7l-1.9,1.4l-0.1,15.4c0,0,0.9,10-10.7,9.7c2.2-1.3,4.5-3,4.8-5.7V32.1l-2.9-3.4l-2.2,1.5 v13.3l1.9,1.7l1.2-1l0.3,0.5l-6.3,5l-4-3.8L29.3,47l-0.4-0.5l2.7-2.2v-24c0.1-0.9-0.6-1.6-1.5-1.7c-0.1,0-0.2,0-0.4,0l1-0.7 l6.9-5.8v17.2L44,25l4.5,4.5L50.3,28.1z"></path> <polygon class="st0" points="63.6,24.7 68.4,32.3 58.9,39.7 58.9,41.7 63.3,45.7 68.8,41 69.3,41.5 59.3,49.7 53.5,44.3 51.7,45.8 51.5,45.2 52.9,44.1 52.9,30.3 58.6,27.3 58.9,27.9 58.9,38.9 64,35.1 58.9,27.9 58.6,27.3 "></polygon> <path class="st0" d="M100.1,13.6l0.2-0.2c0.8-0.5,1.9-0.4,2.6,0.3c1.9,1.2,4.6-0.2,5.1-0.7c0.7-0.8,0.6-0.7,1-1.2 c0.1,1.9-0.3,3.7-1.2,5.3c-0.8,1.7-4.8,2.7-4.8,2.9v30h-0.7l-17-29v20c3.4,0.2,6.2,3.2,6.2,3.2l1.2-1.3l0.5,0.5l-1.3,1.5L88,49.6 c0,0-6.2-5.1-7.3,0c-0.6,2.9,2.4,3.9,2.4,3.9c-1.9,0.7-6.8-1.3-6.4-6.4c0.5-5.4,7.8-6.2,7.8-6.2v-9.2c-3.7,0.7-2.8,3.8-2.8,3.8 s-8.7-5,2.8-9.5v-6.4L84,18.5c0,0-1.7-3.2-3.6,0.3c-1.3,2.2-0.5-3.4,0.3-4.2c5.7-5.9,8.8,0.6,9.1,1.1c2.6,4.1,12.4,20.4,12.4,20.4 V20c-0.6,0.1-1.2,0-1.8-0.2c-1.4-0.6-2.2-1.9-3.6-1.2c-1.3,0.7-2.1,1.1-2.1,1.1L100.1,13.6z"></path> <polygon class="st0" points="117.2,24.7 121.9,32.3 112.4,39.7 112.4,41.7 116.8,45.7 122.4,41 122.9,41.5 112.9,49.7 107,44.3 105.3,45.8 105,45.2 106.5,44.1 106.5,30.3 112.2,27.3 112.4,27.9 112.4,38.9 117.5,35.1 112.4,27.9 112.2,27.3 "></polygon> <path class="st0" d="M138.7,24.3l4.6,4l-2,1.8v12.9l4.3,3.4l1.2-0.8v-15l-2.2-2.1l5.1-4.4l4.1,3.8l2.2-1.6l0.4,0.4l-2.5,1.9 l-1.7,1.7v12.5L142,49.6l-6.1-4.4l-5.4,4.4l-5.1-4.6l-1.7,1.5l-0.4-0.5l1.8-1.6c0,0-0.1-7.6-0.1-11.3c0.2-6.4-4-1.1-4.3-8.4 c-0.1-4.3,6.9-6,5.4-5.3s-1.4,5.1,1.2,5c1.4-0.1,3.4,3.7,3.4,3.7v14.5l3.1,3.5l1.7-1.3V29.9l-1.7-1.5L138.7,24.3z"></path> <path class="st0" d="M178.6,32.4c0.8-0.5,1.7-0.8,2.6-0.7c0.8-0.2,1.6,0,2.2,0.5v-3.3c-0.7,0.5-1.5,0.7-2.4,0.7 c-0.9,0-1.8-0.4-2.4-1.1L178.6,32.4z M178.8,47.6c0.7,0,4.4,0.6,4.6-3.3c0.1-0.6,0-5.1,0-11.1c0,0-0.2-0.9-1.9-0.8 c-1,0-2,0.3-2.9,0.9v2L178.8,47.6z M178.6,27.6c0.7,0.7,1.6,1.1,2.6,1c0.9,0,1.7-0.3,2.4-0.9c-0.1-4.6,0-8.7,0-8.7 c-0.8-0.5-1.5-1-2.1-1.7c-1.4-1.2-1.2-0.7-1.2-0.7l-1.5,1.7v6.8L178.6,27.6z M178,26.1V12.3h0.7v5.2c1.6-2,6.4-5.8,6.4-5.8 l4.6,4.4l1.8-1.8l0.5,0.5l-1.8,1.8v26.5c0,0,0.8,7.2-6.6,6.4c-4.5-0.6-12.8-3.3-15.8-1.7l-0.1,0.1c-1.7,1.3-1.7,3.9,0.5,4.8 c1.9,0.8,4.4,0,5.9-0.3c2.4-0.6,4.8-1,7.3-1.2h-0.1c4.6-0.2,9.5-1.4,9.5,5.5c-0.1,3.9-6.2,5.1-6.2,5.1c2.3-1.4,1.9-2.8,1.2-3.9 c-1-1.2-5.3-0.5-7.1,0.1c-2.9,0.7-5.8,1.3-8.8,1.7c-1.2,0-6.7-0.8-6.9-6c-0.4-5.4,5.2-6.8,5.2-6.8V33.1c-1-0.5-2.2-0.1-2.7,0.9 c-1,1.2,0.5,2.9,0.5,2.9s-3.9-1.2-3.9-4.5c0.6-5.4,6.1-4.9,6.1-4.9v-9.5c0,0-0.8-4.8-5.2-0.1c0.6-0.6-0.1-2.7,2.2-4.4 c9.8-7.1,9.7,7.2,9.5,6v26.9c0.9,0.9,2.1,1.3,3.3,1.2L178,26.1L178,26.1z"></path> <path class="st0" d="M199.8,42.1l5,4.3l0.1-14l-5.1-4.5L199.8,42.1z M210.7,29.9l1.8-1.1l0.3,0.4l-1.9,1.2l0.1,13.3l-10.5,6.1 l-6.5-4.9l-1.9,1.6l-0.3-0.4l1.9-1.7V30.1c0.3-0.1,3.1-1.5,5.7-2.8l4.9-2.6L210.7,29.9z"></path> <path class="st0" d="M219.6,24.5l3.3,3.9l4.3-3.7c0,0,0.4,0.7,2.3,1c2.6,0.3,2.6-0.7,2.6-0.7s-0.7,5.6-3.8,6.2 c-2.5,0.6-5.1-1.9-5.1-1.9v14.4c2.4,2.7,4.1,1.4,4.1,1.4l-5.9,4.6c0,0-2.7-3.1-4.4-3.6c-0.8-0.3-1.7-0.1-2.3,0.6 c0.5-1.1,1.3-2.1,2.4-2.7V31.4c0,0-0.3-3.5-2.3-1.9l-1.3,1l-0.4-0.5L219.6,24.5z"></path> <path class="st0" d="M241.8,45.1l1.6-0.3l-6.2,5l-4.3-3.7l-1.6,0.3l2.9-2.1V20.4c0.2-1.4-0.7-2.8-2-3.3l1-0.8l7-4.6v23.1l7.3-10 c0,0,2.9,1.4,4.2,1.3c1-0.1,1.9-0.7,2.5-1.5c0,2-0.7,3.9-2.1,5.3c-2.4,2-7.1-0.4-7.7,0s-0.2,1.2-0.2,1.2l9.9,14.1l1.5-1.3l0.4,0.5 l-6.2,5.3l-6.3-8.6l-3.3-5.4v8.1L241.8,45.1z"></path> <path class="st0" d="M274.2,39.7l0.1-13.5l-4.6,1.9c-0.6,2-0.7,4.1-0.4,6.2c0.3,2.4,1.2,4.6,2.5,6.6L274.2,39.7z M283.7,44.5 c0.6-0.2,1.1-0.5,1.5-1v-9.4l-3.1-2.8l3.1-2.8v-6.7c-1.9,0.6-19.5-9.2-18,1.1c0,0-5.8-3.3-0.7-8.6c5.7-5.8,12.6-0.6,18.2,0.5 c2.5,0.3,6.3-1.8,1.9-3.9c-0.1-0.1,11.3,2.2,2.5,10c-0.9,0.8-2.1,1.2-3.4,1v6.6l3.6,2.9l-3.6,2.6v9.3c2.6-1.8,6-6.1,6-6.1 s-0.1,8.9-7.5,12.2c-14.4,6.5-28.6-12.2-16.1-24.1c5-4.8,7.6-4.5,7.6-4.5c-2.4,1.7-4.4,3.9-6,6.5l11-4.8l-0.1,14.8l-8.3,4.3 C276.8,45.4,280.2,45.5,283.7,44.5"></path> <path class="st0" d="M290.3,30.2c-0.7,0.1,5.7-4.9,5.7-4.9l4.6,4.1l2.1-1.4l0.2,0.5l-2.2,1.5v13.4c2.4,2.7,4,1.7,4,1.7l-5.5,4.4 l-4.6-3.8l-1.8,1.6l-0.4-0.3l2.2-1.8V31.3C294,29.1,291.9,29.9,290.3,30.2 M300.2,19.4l-4.8,4l-3.3-3.8l4.2-4.1L300.2,19.4z"></path> <path class="st0" d="M313.7,29.4l6.1-4.4l4.6,4.6c-0.6,0.3,6.1-4.5,6.1-4.5l4.5,4.4l1.8-1.4l0.4,0.4l-1.9,1.5v13.2 c0.4,0.5,0.8,0.9,1.3,1.3c0.5,0.6,2-0.3,2-0.3l0.4,0.3l-5.7,5.1l-4.9-4.6l1.1-0.6V32.7c0,0-1.8-5.3-4.8-2.5l0.1,14 c2.4,1.2,1.5,1,1.5,1l-4.8,4.3l-4-4.3l1.1-1l0.1-11.2c-0.4-0.7-0.8-1.5-1.2-2.2c-2-3-3.2-0.3-3.2-0.2V44c-0.1,0.6,2,1.4,2,1.4 l-5,4.3l-4.5-4.6c0,0-1,0.3,1.5-1.1V32.1c0,0-1.5-4-4.8-1.8l-0.1-0.2l5.8-4.6L313.7,29.4z"></path> <polygon class="st0" points="351.7,24.7 356.5,32.3 347,39.7 347,41.7 351.4,45.7 356.9,41 357.4,41.5 347.4,49.7 341.6,44.3 339.8,45.8 339.5,45.2 341,44.1 341,30.3 346.7,27.3 347,27.9 347,38.9 352.1,35.1 347,27.9 346.7,27.3 "></polygon> <path class="st0" d="M372.2,29.7l-0.7,0.4c-2.7,1.3-6.1,0.4-7.7-2.1v7.7c0,0,1.4,0.9,4.4-1.7l1.8-1.9L372.2,29.7z M359.5,43.1 c0.1,0,3-1.1,4.7-0.6c3.9,1.2,4.2,3.5,4.2,3.5l-0.2-7.2c0,0,0.5-6.3-7.1,2.5L359.5,43.1z M369.8,33.2c2,0,3.9,2.4,3.9,2.4 l-0.1,8.2l-8.7,6c-0.6-1.4-2.1-2.2-3.6-2.1c-4-0.1,0.2,4.6,0.2,4.6c-1.8-0.6-3.2-1.9-4.2-3.5c0,0-1.4-2.7,0.4-4.6l2-2.2l1.9-2 l-3.4-3.4V30l9.3-5.5c0,0,1.7,1.9,3.2,1.9s2.7-2.7,2.7-2.7s0.9,4.3-0.6,6.1l-2,2.4L369.8,33.2z"></path> </g> </g> </svg> 