<?xml version="1.0" encoding="UTF-8"?> <svg xmlns="http://www.w3.org/2000/svg" id="Layer_1" data-name="Layer 1" viewBox="0 0 697 633"><defs><style>.cls-1{fill:#fcfcfc;}</style></defs><path class="cls-1" d="M318,11C209.5,21.3,117.6,84.1,70,180.5A303.72,303.72,0,0,0,40.3,282c-2.4,20.7-1.3,60.3,2.1,80.8,7.4,43.4,20.4,78,43.4,114.7C146.9,575.2,259.9,630,375,617.9A304.51,304.51,0,0,0,632.4,410.8c6.1-18.5,9.4-32.6,12.8-54.3,1.9-12.6,2.2-19.1,2.3-40.5,0-27.8-.9-37.9-5.6-61.4a295.67,295.67,0,0,0-23.4-70.4C580.9,105.7,513.8,48.1,430.9,23a313.55,313.55,0,0,0-49.4-10.5C367.3,10.6,331.4,9.8,318,11Zm62.4,27.5c48.2,6.4,94,24.9,131.1,52.8,61,46,99.3,110.2,110.6,185.7,3,19.3,3.2,56.1.6,75-8.9,63.1-36.1,118.3-80.3,162.4-42.7,42.8-94.7,69-157.6,79.3-8.1,1.4-16.8,1.7-40.3,1.7-26.7.1-31.4-.2-43-2.2-42.3-7.4-77.6-21.1-110.7-43.1q-64.2-42.75-97.3-110.6a290.37,290.37,0,0,1-26-82.5c-2.3-14.2-3.1-52.3-1.5-67.6,7-69.3,38.2-132.2,88.7-178.6C201.3,67.9,258.3,42.8,322,37,335.3,35.8,366.2,36.6,380.4,38.5Z"></path><path class="cls-1" d="M322,39.6C275.1,43.8,229,60,191,85.5c-16.9,11.3-27.4,19.9-40.6,33C87.8,180.8,59,263.6,69.6,351c6,49.1,27,99.4,57.6,137.7,45.9,57.4,113.1,94.8,185.3,103.2a278.05,278.05,0,0,0,156.9-27.8,269.24,269.24,0,0,0,71.2-51.5c23-23,38-43.8,52.3-72.5,14.2-28.3,22.5-55.3,27.3-89.1,2-14.5,1.7-58.4-.5-73-7.8-50.5-26.1-93.6-56.6-133-9-11.6-29.4-32.5-41.7-42.6A278.59,278.59,0,0,0,386.3,42c-10.3-1.6-19.7-2.2-36.8-2.5C336.9,39.4,324.5,39.4,322,39.6ZM234.5,150.4c3.5,1.5,7.3,7.2,5.8,8.6a9.11,9.11,0,0,1-3.4,1.5c-2.1.5-2.7.2-3.7-1.9-2.3-5.1-7.4-2.3-8.6,4.6-.8,4.6.9,11.4,3.1,12.2,2.4,1,4.9-.2,6.1-2.9,1-2.2,1.4-2.3,4.2-1.4,3.4,1.2,3.6,1.9,1.5,5.9-3,5.8-10.2,7.6-16,4-9.3-5.7-8.3-25.4,1.5-30.2C229.2,148.6,230.1,148.6,234.5,150.4ZM302,165.6v16.6l-3.2-.3a23.17,23.17,0,0,0-6,.5c-5.4,1.5-9.8-3.8-9.8-11.9,0-8.4,4.8-13.7,10.5-11.5,2.5.9,2.5.9,2.5-4.5s0-5.5,3-5.5h3ZM212.5,158v7.5l-10.7.3-10.8.3v130l-11.2-.3-11.3-.3-.3-64.7-.2-64.7-10.8-.3-10.7-.3-.3-6.4c-.2-3.5-.1-7,.2-7.8.5-1.1,6.3-1.3,33.3-1.1l32.8.3Zm104.8-4c-4.1,3.9-4.1,4-1.8,4.6,3.6.9,6.6,4.8,7.2,9.3l.6,4.1h-6.6c-5.9,0-6.5.2-6,1.9.7,2.7,3.3,3.4,5.4,1.5s5.9-1.1,5.9,1.2c0,4.1-7.7,7.6-11.8,5.3-8.9-5-8.9-18.1-.1-22.6,1.8-1,2-1.3.7-1.3-2.4,0-2.3-1.5.4-5,1.8-2.5,2.9-3,6.2-3l4.1.1Zm27.3,5.1,4.9,9,.3-9,.3-9.1H357v32.1l-3.7-.3c-3.6-.3-4-.7-8.3-8.6l-4.5-8.3-.3,8.5-.3,8.6H332V166.7c0-8.5.3-15.7.7-16s2.1-.7,3.8-.7C339.5,150,340,150.6,344.6,159.1ZM436,222.5V295H417V150h19Zm-29-67c0,2.4.5,3.5,1.5,3.5s1.5.9,1.5,2.5c0,1.4-.7,2.8-1.5,3.1-1.1.5-1.5,2.1-1.5,6s.4,5.6,1.5,6c.9.4,1.5,1.9,1.5,3.5,0,2.4-.4,2.9-2.5,2.9a8.24,8.24,0,0,1-5-2.5c-2.1-2.1-2.5-3.3-2.5-8.8,0-4.8-.4-6.6-1.5-7.1-.8-.3-1.5-1.7-1.5-3.1,0-1.6.6-2.5,1.5-2.5s1.5-1.1,1.5-3.5c0-3.3.2-3.5,3.5-3.5S407,152.2,407,155.5Zm-149.3,5.1c1.2.7,2.7,3.2,3.4,5.3,3,10.1-4.1,19.3-12.4,16.2-5.7-2.2-8.3-11.7-5-18.1C246.7,158.1,252,156.8,257.7,160.6Zm21.4-.7c2.2,1.7,2.4,2.8,2.7,12l.4,10.1H275v-8.6c0-8.3-.1-8.5-2.2-8.2s-2.3.9-2.6,8.5l-.3,8.3h-7l.3-11.3.3-11.2,5.3-.1c2.8,0,5.5-.4,5.9-.7C275.7,157.6,276.6,157.9,279.1,159.9Zm112.5-.3c3.9,1.9,4,2.1,1.8,4.5-1.3,1.4-2.1,1.6-3.6.8-2.1-1.1-4.8-.6-4.8,1,0,.5,1.3,1.2,3,1.6,7.2,1.6,10.4,8.1,6,12.5-3.8,3.8-9.5,3.8-14.1.1-2.4-2-2.4-2-.4-3.5,1.1-.9,2.7-1.3,3.5-.9,3.8,1.5,6,1.5,6,0,0-.8-1.3-1.7-3.2-2.1-4.3-.8-6.8-3.3-6.8-6.7,0-4.2,1-6,4.4-7.5C387.4,157.7,387.6,157.7,391.6,159.6Zm-18.2,1.6c2.2,2.1,2.5,3.2,2.8,11.5l.4,9.1h-6.9c-5.4,0-7.3-.4-8.8-1.9-4-4-.7-11.3,5.6-12.5,3.7-.7,4.6-2.1,2-3.1-.9-.3-2.5.3-3.6,1.3-1.9,1.7-2,1.7-4.1-.3l-2.1-2.2,3.4-2C366.5,158.4,370.3,158.4,373.4,161.2Zm172.1,34.3v10l-6.7.6c-5.3.4-9.9,2-12,4.2-.1.1-.5,19.3-.8,42.7l-.5,42.5-10.2.3-10.3.3V186h10c10,0,10,0,10,2.5v2.4l4.8-2.3c6.8-3.4,7.3-3.5,11.7-3.3l4,.2Zm-305.7,1.2.3,10.3h-5c-5.9,0-12.7,2.5-14.1,5.1-.6,1-1,18-1,42.3V295H199V187h20v2.5c0,2.9.3,3,3.5.9,3.5-2.3,10.5-4.3,14-4.1l3,.2Zm39.3-9.2c9.5,3.2,15.6,11.2,17.9,23,.7,4,1,18.9.8,45.5l-.3,39.5H288c-9.1,0-9.5-.1-9.8-2.2l-.3-2.3-5.2,2.7c-10.9,5.7-24.3,2.7-29.5-6.5-3.3-6-4.8-18.5-3.4-28,2-12.8,5.5-16.8,27.7-32.5l9-6.4.3-7.4c.6-13.7-4.5-20.6-10.6-14.5-2.5,2.4-2.7,3.4-3,12.6l-.4,10H241.7l.5-7.8c1-17,11-26.7,27.9-27.1A30.74,30.74,0,0,1,279.1,187.5Zm113.8,1.1c11.6,5.8,18,19.2,19.6,41,1.1,14.4,2.7,13.4-19.6,13.4h-19l.3,18.4c.3,16.9.5,18.7,2.4,21.3a6.45,6.45,0,0,0,10.8,0c1.9-2.5,2.1-4.5,2.4-17.8l.4-14.9h22l-.4,10.7c-.7,17.5-6.6,28.4-17.9,33.2-13.8,6-27.9.8-34.9-12.9-6.8-13.3-9.9-43.2-6.6-62.2C356.9,193.7,375.4,179.9,392.9,188.6Zm88.9,0c12.5,6.2,19.1,20.9,19.5,43.3l.2,10.6-19.3.3-19.3.2.3,18.5c.3,16.8.5,18.6,2.4,21.2,4.2,5.6,11.3,3.4,12.8-3.9a156.94,156.94,0,0,0,.6-15.9V250h21.8l.6,3.3c1,5.2-1.3,19.7-4,25.8-4.9,10.9-14.1,16.9-26,17-15.1.1-24.2-10.3-29.1-33.4-2.4-11.8-2.4-39.7.1-48.7C448.5,192,466,180.7,481.8,188.6ZM324,218.1c3.4,19.5,5.7,30.5,6.2,29.3.6-1.6,9.8-57.5,9.8-59.7,0-.4,3.2-.7,7-.7,6.6,0,7,.1,7,2.2,0,3.2-18.7,104.5-19.5,105.8-.3.5-4.2,1-8.5,1-7.4,0-8-.2-8.5-2.3-.9-3.8-20.5-105.1-20.5-105.9,0-.4,4.9-.8,10.8-.8h10.8Zm79,125.8c4.9,11.1,9,20.6,9,21.1s-1.6,1-3.5,1c-3.2,0-3.6-.4-5.6-5l-2.1-5H383.3l-2.3,5c-2.1,4.5-2.7,5-5.7,5-1.8,0-3.3-.4-3.3-.9s3.2-7.8,7.1-16.3,8.5-18.2,10.1-21.8c2.4-5.2,3.1-6.2,3.9-4.8C393.6,323.1,398,332.9,403,343.9ZM219.8,326.7l.3,3.3H210v36h-7V330h-5c-4.8,0-5-.1-5-2.8,0-1.6.3-3.2.7-3.6s6.3-.5,13.2-.4l12.6.3Zm32.1-1.7c5.5,2.7,10.7,9.3,12.1,15,3.8,15.7-11.8,30.3-27.3,25.6-8.9-2.7-14.5-8.8-16.1-17.8-1.5-8.4,4.5-19.1,12.8-22.9C238.9,322.4,247,322.5,251.9,325Zm38.1.8c10.5,7.6,5.1,23.2-7.9,23.2h-3l-.3,8.2-.3,8.3h-7l-.3-20c-.1-11,0-20.6.3-21.4C272.3,322,286.6,323.4,290,325.8Zm48.8.9.3,3.3H329v36h-7V330h-5c-4.8,0-5-.1-5-2.8,0-1.6.3-3.2.7-3.6s6.3-.5,13.2-.4l12.6.3Zm22.3-1.2c3.7,2,5.9,6.3,5.9,11.6,0,3.6-.6,4.8-4,8l-4,3.9,5.3,7.2c7.6,10.4,7.5,9.8,2.5,9.8-4.3-.1-4.3-.1-10.3-8.8l-6-8.7-.3,8.7-.3,8.8H343V345.2c0-11.5.3-21.2.8-21.6C344.9,322.4,357.8,323.8,361.1,325.5Zm60.1,10c2.6,6.6,5.2,12.9,5.6,13.9.7,1.6,2-1,6.4-12l5.6-13.9,3.6-.3c2-.2,3.6.1,3.6.7,0,1.6-18.2,45.2-18.7,44.7-1.2-1.2-18.1-44.1-17.7-44.8.3-.5,2-.8,3.7-.6C416.2,323.5,416.6,324,421.2,335.5Zm53.6-8.8.3,3.3H458v8.9l7.8.3,7.7.3.3,3.2.3,3.3H458v12.9l8.3.3,8.2.3v6l-11.7.3-11.8.3V322.9l11.8.3,11.7.3ZM489,341v18h12v7H482V323h7ZM365.8,410c5.1,11.3,9.2,21.1,9.2,21.8,0,.9-1.1,1.2-3.2,1-2.8-.3-3.7-1-5.7-5.1l-2.3-4.7H346.5l-2.5,4.8c-2.1,3.9-3,4.7-5.7,5-1.8.2-3.3-.1-3.3-.6s3.2-7.9,7.1-16.4,8.4-18.2,10-21.7,3.3-6,3.8-5.5S360.8,398.7,365.8,410ZM209.3,390.4a19.3,19.3,0,0,1,5.5,3.8l2.3,2.5-2.6,1.7c-2.4,1.6-2.7,1.5-5.5-.6-4.1-3-8.4-1.7-8.8,2.8-.3,2.8.1,3.2,6.8,6.2,3.9,1.8,7.7,4.4,8.6,5.7A13.27,13.27,0,0,1,204.2,433c-5.7,0-9.7-2.5-12.2-7.4-2.2-4.5-1.8-5.3,2.6-6.2,2.9-.5,3.2-.3,3.7,2.5,1.1,5.5,8.9,6.3,11.7,1.2,2.1-4.1.2-7.1-6.4-10.1-9.5-4.4-12.7-9-10.6-15.4,1.3-4.1,2.7-5.4,7.7-7.2C205.5,388.7,205.4,388.7,209.3,390.4Zm101.5.1c5.1,1.6,5.2,1.6,5.2,5.5,0,4.4-.5,4.7-3.7,2.5-9-6.3-22.3,1.4-22.3,13a14.67,14.67,0,0,0,22.4,12.7l3.6-2.1V426c0,3.4-.4,4.2-3,5.5-3.8,2-13.2,1.9-17.3-.1-8.1-4.1-12.7-11.3-12.7-19.9,0-10.4,7-19,17.5-21.6C304.9,388.9,305.2,388.9,310.8,390.5Zm131,2.9,3.3,3.3-2.5,1.7c-2.5,1.6-2.7,1.6-5.6-.6-2.5-1.8-3.5-2-5.8-1.2-2.1.7-2.7,1.6-2.7,3.9,0,2.7.7,3.4,6.9,6.5,10,5.1,12.6,10.3,9.2,18.5-2,4.7-6.9,7.5-13,7.5-4.3,0-5.3-.4-8.7-3.9-4.5-4.5-5.2-8.5-1.6-9.5,3.8-1,4.4-.7,5,2.2,1.1,5.5,9,6.2,11.7,1.2,2.2-4,.4-6.8-6.2-10-10.8-5.2-13.5-9.6-10.2-16.5C425.3,388.7,435.4,387.1,441.8,393.4Zm54.5-3a19.3,19.3,0,0,1,5.5,3.8l2.3,2.5-2.6,1.7c-2.4,1.6-2.7,1.5-5.5-.6-4.1-3-8.4-1.7-8.8,2.8-.3,2.8.1,3.2,6.8,6.2,7.5,3.5,9.8,5.9,10.6,11.4,1.4,8.1-5,14.8-14,14.8-4.3,0-5.3-.4-8.7-3.9-4.5-4.5-5.2-8.5-1.6-9.5,3.8-1,4.4-.7,5.1,2.4,1,5.4,8.9,6.1,11.6,1.1,2.1-4.1.2-7.1-6.4-10.1-9.5-4.4-12.7-9-10.6-15.4,1.3-4.1,2.7-5.4,7.7-7.2C492.5,388.7,492.4,388.7,496.3,390.4Zm-253.9,2a12.23,12.23,0,0,1,5.9,10.6c0,6.8-4.8,11.7-12.2,12.7l-4,.6-.3,8.1-.3,8.1h-7l-.3-20c-.1-11,0-20.6.3-21.4C225.3,389.2,238.9,390.1,242.4,392.4Zm35.6,1.1V397H261v9h16v7H261v13h17.1l-.3,3.2-.3,3.3h-23l-.3-21.3L254,390h24Zm52,18V433h-7V390h7Zm57-3.5v18h12v7.1l-9.2-.3-9.3-.3-.3-21.3L380,390h7Zm25,3.5V433h-8V390h8Zm63-18c0,3.5,0,3.5-4.5,3.5H466l-.2,17.7-.3,17.8h-7l-.3-17.8L458,397h-4.5c-4.5,0-4.5,0-4.5-3.5V390h26Zm-214.9,69c5.4,1.9,11.5,7.6,14,13a25.63,25.63,0,0,1,1.9,9.6c0,8-3.8,14.8-16.9,30.4l-10.9,13,13.9.3,13.9.3V541H222.8l3.4-4.2c1.8-2.3,9.3-11.4,16.6-20.3,20.8-25.1,23.2-29.5,19.8-36.7-2.1-4.4-6.3-6.8-11.9-6.8a11.86,11.86,0,0,0-11.8,9.1l-1.2,3.9h-5.9c-5.3,0-5.8-.2-5.8-2.1,0-7.7,8-18.8,15.5-21.4A31.06,31.06,0,0,1,260.1,462.5Zm66.5.8c7.2,3.7,14,13.7,16.3,23.8,1.5,6.4,1.3,23.6-.3,29.7-3,11.3-8.7,18.8-17.1,22.8-14.6,6.9-29.8-3.1-35-23.3-1.9-7.4-1.9-22.3,0-29.8,3-11.5,11.2-22.1,18.9-24.5C313.6,460.7,323,461.4,326.6,463.3Zm64.3-.8A23.38,23.38,0,0,1,407,484.9c-.1,9.2-3.8,15.6-20.3,34.8l-7.9,9.3H407v12H381c-14.3,0-26-.4-26-.8s4.1-5.7,9-11.6c16.7-20.1,26.5-32.6,28.8-36.8,5.3-9.9.1-18.8-11.2-18.8a11.94,11.94,0,0,0-11.7,9.1l-1.2,3.9h-5.9c-5.3,0-5.8-.2-5.8-2.1,0-7.8,7.8-18.6,15.3-21.2C377.8,460.7,385.7,460.6,390.9,462.5Zm58.1,39v39.6l-6.2-.3-6.3-.3-.3-33.3L436,474H422.9l3.3-6,3.3-6H449Z"></path><path class="cls-1" d="M290.5,167.3a15.65,15.65,0,0,0-.3,5.3c.2,2.3.8,2.9,2.8,2.9,2.3,0,2.5-.3,2.5-5,0-4.4-.3-5-2.2-5.3C291.6,165,290.9,165.5,290.5,167.3Z"></path><path class="cls-1" d="M311.7,164.7c-1.5,1.4-.6,2.3,2.4,2.3,2.7,0,3-.2,1.9-1.5C314.7,163.9,312.8,163.6,311.7,164.7Z"></path><path class="cls-1" d="M249.6,165.6a19.69,19.69,0,0,0-.6,4.9c0,4.6.9,6.5,3,6.5s3-1.9,3-6.5-.9-6.5-3-6.5A2.65,2.65,0,0,0,249.6,165.6Z"></path><path class="cls-1" d="M367.3,172.5c-2.5,1.7-3.1,4.5-1,4.5a3.28,3.28,0,0,0,3.5-3.9C369.5,171.1,369.4,171,367.3,172.5Z"></path><path class="cls-1" d="M269.8,238.2c-3.7,2.3-7.1,5.2-7.7,6.5S261,253,261,260.3c0,11.3.3,13.7,1.9,16.4,3.4,5.5,9.8,5.6,12.6.3,1.3-2.4,1.5-6.5,1.3-22.9l-.3-20Z"></path><path class="cls-1" d="M378.7,196.1c-3.7,2.1-4.7,7.1-4.7,22.4V233h15V218.5c0-15.8-1.1-20.3-5.7-22.4C380.5,194.8,380.9,194.8,378.7,196.1Z"></path><path class="cls-1" d="M467.3,196.5c-3.3,2.3-4.3,7.6-4.3,22.7V233h15V218.6c0-15.1-.6-18.2-4-21.6C471.6,194.6,470.2,194.5,467.3,196.5Z"></path><path class="cls-1" d="M389.6,342.4c-1.4,3.3-2.4,6.1-2.2,6.3a18.45,18.45,0,0,0,5.3.1l4.9-.3-2.7-6-2.7-6Z"></path><path class="cls-1" d="M234.3,332c-8.6,5.2-8.5,19.9.3,25.7,6.4,4.2,17.3,1.2,20.9-5.7,1.9-3.7,1.9-11.3,0-15C252.1,330.4,241.1,327.8,234.3,332Z"></path><path class="cls-1" d="M279,336v6h3.4c3.5,0,6.6-2.7,6.6-5.8,0-2.2-4.8-6.2-7.5-6.2C279.1,330,279,330.2,279,336Z"></path><path class="cls-1" d="M350,335.9V342h3.4c4.2,0,6.6-2.2,6.6-5.9,0-3.5-1.7-5-6.4-5.8l-3.6-.6Z"></path><path class="cls-1" d="M352.6,409.4c-1.5,3.2-2.5,6-2.3,6.3a20.14,20.14,0,0,0,5.5.1l5-.3-2.8-6-2.8-6Z"></path><path class="cls-1" d="M232,403c0,5.9,0,6,2.8,6,4.2,0,6.5-2.2,6.5-6s-2.3-6-6.5-6C232,397,232,397.1,232,403Z"></path><path class="cls-1" d="M312,473.7c-2.5,1.3-4.3,3.4-6.2,7.3-7.3,14.5-5.7,36.4,3.4,45.7,2.6,2.7,4,3.3,7.3,3.3,5.2,0,8-2,10.9-7.8,4.5-9.1,5.8-21.5,3.2-32.3C327.4,475.9,320.1,469.6,312,473.7Z"></path></svg> 