<?xml version="1.0" encoding="UTF-8"?> <svg xmlns="http://www.w3.org/2000/svg" width="114.179" height="67.808" viewBox="0 0 114.179 67.808"><g id="Layer_2" data-name="Layer 2" transform="translate(0 0)"><g id="Layer_1" data-name="Layer 1" transform="translate(0 0)"><path id="Path_914" data-name="Path 914" d="M192.365,8.8a6.293,6.293,0,0,1-.038-1.174,2.191,2.191,0,0,1,1.138-1.512,5.239,5.239,0,0,1,2.4-.688c.488-.043.978-.045,1.465-.078a.352.352,0,0,0,.25-.131,3.162,3.162,0,0,1,2.57-1.789,7.294,7.294,0,0,1,3.148.139.3.3,0,0,0,.238-.006.3.3,0,0,0,.157-.18A15.062,15.062,0,0,1,205.73.335,2.615,2.615,0,0,0,205.958,0c.15.149.022.4.273.328a2.215,2.215,0,0,1,.07.537c-.045.486-.115.973-.188,1.456-.043.3-.09.592-.155.884s-.178.655-.25.985c-.048.181.032.287.2.38a7.326,7.326,0,0,1,2.115,1.708,3.4,3.4,0,0,1,.95,2.52c0,.076.093.179.168.252a17.767,17.767,0,0,1,1.79,1.587,2.435,2.435,0,0,1-.225,3.686c-.058.055-.12.1-.138.118a13.238,13.238,0,0,1,.538,1.472,2.627,2.627,0,0,1-1,2.711c-.36.312-.783.552-1.17.837-.085.063-.195.159-.208.252a2.594,2.594,0,0,1-1.175,1.819c-.518.35-1.1.607-1.648.91a.835.835,0,0,0-.293.192,4.543,4.543,0,0,1-2.858,1.739,10.792,10.792,0,0,1-4.683.023l-.362.658-.04-.013c.028-.1.052-.2.083-.3.1-.315.055-.4-.25-.489a7.722,7.722,0,0,1-2.573-1.187,4.5,4.5,0,0,1-1.288-1.492,1.354,1.354,0,0,0-.348-.391c-.515-.411-1.063-.786-1.56-1.217a2.321,2.321,0,0,1-.71-1.3,1.58,1.58,0,0,1,.463-1.512c-.4-.34-.8-.653-1.17-1.008a2.2,2.2,0,0,1-.67-1.22,1.8,1.8,0,0,1,1-1.925c.1-.066.2-.121.325-.2-.2-.227-.385-.433-.558-.65a1.571,1.571,0,0,1,.148-2.356,4.15,4.15,0,0,1,1.5-.874Zm15.713,10.513.075-.123a9.727,9.727,0,0,0-.555-1.078,5.766,5.766,0,0,0-1.75-1.58.745.745,0,0,0-.442-.111,18.66,18.66,0,0,1-3.825,0c-.323-.033-.5.141-.605.5-.092.315.053.436.315.552a12.985,12.985,0,0,1,3.5,2.185.5.5,0,0,0,.348.1c.478-.038.955-.086,1.428-.161S207.573,19.4,208.078,19.309Zm-5.958-5.818c.09.038.205.093.325.136a16.231,16.231,0,0,1,4,2.016.467.467,0,0,0,.353.063c.473-.121.948-.252,1.408-.408.405-.144.79-.343,1.23-.537-.11-.1-.162-.146-.21-.2a17.01,17.01,0,0,0-3.75-2.474.5.5,0,0,0-.268.005c-.783.141-1.565.295-2.35.423a.828.828,0,0,0-.65.607C202.18,13.237,202.15,13.355,202.12,13.491Zm-3.085,3.14c.163-.544.15-.567-.338-.67a22.274,22.274,0,0,1-6.335-2.222,1.127,1.127,0,0,0-1-.1,3.365,3.365,0,0,0-.44.181,1.1,1.1,0,0,0-.41,1.85,8.518,8.518,0,0,0,1.22,1.056.328.328,0,0,0,.288,0,6.156,6.156,0,0,1,2.543-.62,15.065,15.065,0,0,1,4.473.524Zm.027,5.964a.83.83,0,0,0,.235.156,5.123,5.123,0,0,0,.59.088,11.538,11.538,0,0,0,4.948-.413c.218-.071.27-.166.25-.388a3.007,3.007,0,0,0-.8-1.56.64.64,0,0,0-.4-.186c-1.013-.083-2.03-.139-3.043-.229-.5-.043-.5-.066-.878.33.115.081.23.156.34.237a2.138,2.138,0,0,1,.335.285,4.323,4.323,0,0,1,.525.685.658.658,0,0,1-.193.814.594.594,0,0,1-.658.1c.325-.224.4-.416.215-.658a2.429,2.429,0,0,0-1.063-.716c-.1.4-.2.784-.293,1.167h-.045l-.038-.28h-.08c-.043.219-.088.438-.13.655l.1.028Zm1.03-10.127c-.115-.033-.21-.068-.31-.088-.733-.154-1.475-.27-2.2-.464a10.244,10.244,0,0,1-4.473-2.137.4.4,0,0,0-.327-.068,7.854,7.854,0,0,0-1.365.416c-1.07.5-1.19,1.378-.34,2.2a.8.8,0,0,0,.21.171.514.514,0,0,0,.3.053,15.724,15.724,0,0,1,6.155-.159c.718.106,1.425.287,2.145.436Zm1.125-3.8c-.423-.121-.83-.217-1.225-.355a4.157,4.157,0,0,1-2.445-1.764.321.321,0,0,0-.25-.1,21.963,21.963,0,0,0-2.38.194,6.285,6.285,0,0,0-1.645.595,1.044,1.044,0,0,0-.5,1.167c.023.2.1.3.338.252a6.316,6.316,0,0,1,.975-.141,22.1,22.1,0,0,1,6.523.557c.465.1.463.113.615-.348a.192.192,0,0,0-.015-.058Zm-.438,1.668a18.1,18.1,0,0,0-7.145-.693c.192.134.3.214.42.29a13.845,13.845,0,0,0,5.655,2.016c.423.06.425.058.523-.36,0-.02.023-.033.03-.05C200.433,11.132,200.6,10.742,200.78,10.331Zm-1.175,3.553a16.39,16.39,0,0,0-6.975-.474c.417.227.843.423,1.27.607a27.009,27.009,0,0,0,5.04,1.593c.143.03.273.066.318-.146.1-.522.225-1.033.347-1.587Zm4.638-6.138a6.453,6.453,0,0,0-.66,2.283c.815.358,1.643.726,2.478,1.081a.375.375,0,0,0,.3-.033c.418-.27.835-.542,1.23-.847a3.661,3.661,0,0,0,.483-.595Zm5.978,6.365a1.6,1.6,0,0,0,.565-1.882,5.058,5.058,0,0,0-2.2-2.21l-1.828,1.461A13.041,13.041,0,0,1,210.221,14.111Zm-11.763,5.644c-.057-.091-.065-.116-.08-.121-.075-.028-.15-.055-.225-.076a33.787,33.787,0,0,1-5.9-1.953.4.4,0,0,0-.343.04,1.052,1.052,0,0,0-.263,1.494,5.271,5.271,0,0,0,1.9,1.693,1.879,1.879,0,0,1,1.75-1.341,6.252,6.252,0,0,1,2.35.091Zm8.718-3.6a12.222,12.222,0,0,1,.96,1.3,13.709,13.709,0,0,1,.655,1.535,2.822,2.822,0,0,0,1.705-1.862,2.358,2.358,0,0,0-.783-1.915ZM198.5,19.12c.112-.456.21-.862.312-1.26.048-.186-.057-.252-.21-.287a14.6,14.6,0,0,0-4.023-.542c-.593.02-1.185.129-1.778.194v.118a30.822,30.822,0,0,0,5.7,1.776Zm-.5,3.4c.063-.6.125-1.172.168-1.746,0-.05-.12-.141-.2-.159-.467-.1-.935-.2-1.408-.275a3.68,3.68,0,0,0-1.805.048.947.947,0,0,0-.675.716A18.628,18.628,0,0,0,198,22.519Zm.25-17.243c.045.028.07.053.095.053a21.609,21.609,0,0,1,3.868.612.249.249,0,0,0,.215-.086c.21-.418.405-.842.628-1.313-.482-.073-.923-.151-1.368-.2a5.3,5.3,0,0,0-2.675.33,1.537,1.537,0,0,0-.763.6Zm6.405,17.772-.033-.073a13.64,13.64,0,0,1-5.888.129c-.072.335-.145.658-.22,1.008a11.514,11.514,0,0,0,3.02.116,5.843,5.843,0,0,0,2.533-.741c.205-.134.4-.3.588-.438Zm.118-16.359,3.465,1.7c-.173-1.26-1.84-2.646-2.958-3.024Zm-6.56-.217-.043.111a4.314,4.314,0,0,0,.308.4,5.5,5.5,0,0,0,2.75,1.431.249.249,0,0,0,.2-.108c.158-.386.3-.781.475-1.245Zm7.618,15.55c1.123-.325,2.38-1.308,2.25-2.235l-2.75.469a2.788,2.788,0,0,1,.5,1.766Zm-4.538-6.048a18.915,18.915,0,0,0,3.61.066l.03-.106-3.05-1.383-.35.338a1.251,1.251,0,0,1,0,.287c-.07.249-.152.5-.24.791Zm-7.08,5.733c.188.826,2.365,2.051,3.66,2.2l.125-.879Zm6.438-3.114c-.092.227-.178.408-.237.595s-.048.343.22.37c.555.06,1.105.164,1.66.212.41.035.825,0,1.313,0a14.122,14.122,0,0,0-2.785-1.446c-.13-.048-.34.113-.512.176l.035.086Zm2.533-7.494c-.193.3-.363.537-.5.789-.075.136-.035.252.153.252.615-.086,1.228-.179,1.843-.27l.013-.129Zm-4.47,11.528c.022-.27.03-.5.067-.756s.118-.489.165-.736a.946.946,0,0,0-.023-.252h-.092c-.128.575-.25,1.147-.388,1.746Zm-.338.572-.065-.018-.213.806c.163.088.31.126.35-.073a4.067,4.067,0,0,0,.07-.738c0-.058-.11-.118-.168-.179l-.06.063Zm1.225-5.367a1.853,1.853,0,0,0-.373,1.441c.355-.418.213-.947.37-1.441Zm.658.421h-.025l-.36.869.172.088Z" transform="translate(-142.206 0)" fill="#fff"></path><path id="Path_915" data-name="Path 915" d="M16.016,132.716a1.043,1.043,0,0,1-.273.108,2.908,2.908,0,0,0-2.453,1.986c-1.57,3.606-3.17,7.212-4.733,10.812-.33.756-.548,1.572-.82,2.359a.9.9,0,0,1-.115.184c-.043-.045-.105-.083-.125-.139-.98-2.5-1.95-5.014-2.935-7.517-.793-2.016-1.588-4.017-2.418-6.007a4.73,4.73,0,0,0-.778-1.169,1.687,1.687,0,0,0-1.088-.519,2.25,2.25,0,0,1-.28-.088l.015-.091H5.5c-.063.073-.088.121-.125.139a.78.78,0,0,1-.173.04c-1.093.2-1.43.791-1.025,1.847.435,1.134.9,2.268,1.345,3.387l2.718,6.8c.015.035.033.071.06.131a.565.565,0,0,0,.07-.093c.985-2.318,2-4.624,2.938-6.962a36.266,36.266,0,0,0,1.175-3.6c.19-.673-.063-1.036-.728-1.26-.293-.1-.6-.156-.9-.252-.068-.02-.118-.1-.175-.149.068-.023.14-.073.205-.065a26.07,26.07,0,0,0,4.878,0,.975.975,0,0,1,.25.03Z" transform="translate(0 -99.185)" fill="#fff"></path><path id="Path_916" data-name="Path 916" d="M124.653,156.07a19.663,19.663,0,0,0,3.208,4.641,3.026,3.026,0,0,0,.425.333.745.745,0,0,0,.92.015.893.893,0,0,1,.18-.081l.06.068a1.524,1.524,0,0,1-.277.237,2.247,2.247,0,0,1-2.263-.116,4.177,4.177,0,0,1-1.223-1.131c-.75-1.1-1.448-2.268-2.143-3.414-.155-.252-.287-.426-.615-.365a2.128,2.128,0,0,1-.523-.02c-.025.03-.048.045-.048.06.035,1.348.04,2.7.123,4.032.043.663.25.8.925.942a.25.25,0,0,1,.165.121h-3.5l-.017-.05a1.762,1.762,0,0,1,.273-.078c.43-.066.64-.227.7-.66a11.682,11.682,0,0,0,.123-1.562q.02-2.991,0-5.979a9.215,9.215,0,0,0-.115-1.23.716.716,0,0,0-.65-.683.25.25,0,0,1-.173-.134,1.866,1.866,0,0,1,.207-.025c.838-.015,1.675,0,2.513-.05a5.274,5.274,0,0,1,2.265.3,2.492,2.492,0,0,1,.11,4.563A4.949,4.949,0,0,1,124.653,156.07Zm-2.313-.086a3.152,3.152,0,0,0,1.573-.045,1.832,1.832,0,0,0,1.5-1.666,5.333,5.333,0,0,0-.067-1.668,2.13,2.13,0,0,0-3-1.351Z" transform="translate(-90.036 -112.891)" fill="#fff"></path><path id="Path_917" data-name="Path 917" d="M126.729,223.153H20.023a.421.421,0,0,1-.15,0,1.4,1.4,0,0,1-.193-.116.843.843,0,0,1,.18-.1.837.837,0,0,1,.21,0H126.264a.864.864,0,0,1,.268,0C126.592,222.947,126.629,223.035,126.729,223.153Z" transform="translate(-14.76 -166.755)" fill="#fff"></path><path id="Path_918" data-name="Path 918" d="M418.788,161.2a5.363,5.363,0,0,1-3.824-1.563,5.449,5.449,0,0,1-1.6-3.832,5.349,5.349,0,0,1,5.4-5.279,5.338,5.338,0,1,1,.028,10.674Zm4.09-4.256a7.2,7.2,0,0,0-1.5-4.631,3.564,3.564,0,0,0-6.188.562,5.311,5.311,0,0,0-.465,3.054,6.552,6.552,0,0,0,1.64,3.78,3.475,3.475,0,0,0,5.193.2A4.226,4.226,0,0,0,422.878,156.948Z" transform="translate(-310.016 -112.599)" fill="#fff"></path><path id="Path_919" data-name="Path 919" d="M297.6,155.891a5.355,5.355,0,0,1,1.633-3.814,5.269,5.269,0,0,1,3.852-1.477,5.335,5.335,0,0,1,3.805,1.609,5.374,5.374,0,1,1-9.29,3.682Zm1.318-.529a6.554,6.554,0,0,0,1.583,4.266,3.453,3.453,0,0,0,3.233,1.341,3.809,3.809,0,0,0,3.125-2.744,6.467,6.467,0,0,0-2.065-6.657,3.385,3.385,0,0,0-4.52.224A4.554,4.554,0,0,0,298.917,155.362Z" transform="translate(-223.197 -112.649)" fill="#fff"></path><path id="Path_920" data-name="Path 920" d="M233.315,151.713h3.515l.015.066a3.127,3.127,0,0,1-.325.088,1,1,0,0,0-.913,1c-.073.852-.153,1.7-.16,2.558a30.779,30.779,0,0,0,.1,3.465,3.114,3.114,0,0,0,2.773,3.039,3.539,3.539,0,0,0,3.8-2.394,4.029,4.029,0,0,0,.25-1.26c.015-1.61-.02-3.22-.04-4.83a2.672,2.672,0,0,0-.058-.418,1.19,1.19,0,0,0-1.12-1.174.523.523,0,0,1-.28-.136h3.445c-.105.068-.135.1-.165.1-.885.121-1.27.673-1.348,1.686-.045.592-.048,1.187-.053,1.779V158a4.032,4.032,0,0,1-4.485,4.3,4.78,4.78,0,0,1-2.133-.524,3.279,3.279,0,0,1-1.775-2.89c-.065-1.809-.05-3.621-.075-5.433a7.225,7.225,0,0,0-.06-.872.74.74,0,0,0-.688-.756l-.22-.053Z" transform="translate(-174.98 -113.482)" fill="#fff"></path><path id="Path_921" data-name="Path 921" d="M179.435,151.456c-.713.04-1.36.045-2,.123a1.7,1.7,0,0,0-1.4,1.26,3.061,3.061,0,0,1-.325.693c.065-.832.128-1.661.193-2.5a15.192,15.192,0,0,0,4.208.275c1.41-.01,2.808-.113,4.205-.176-.055.821-.115,1.7-.175,2.585h-.075c-.017-.076-.035-.151-.047-.229-.04-.252-.062-.5-.125-.741a1.341,1.341,0,0,0-1.053-1.084c-.72-.128-1.455-.174-2.25-.265v.859c0,2.414,0,4.828.018,7.242a6.826,6.826,0,0,0,.09.839,1.022,1.022,0,0,0,.953.96.918.918,0,0,1,.443.176h-4.118l-.023-.045a1.615,1.615,0,0,1,.208-.083c.87-.186,1.1-.436,1.175-1.333.04-.461.07-.925.073-1.386.015-1.872.02-3.744.027-5.614C179.438,152.507,179.435,152.008,179.435,151.456Z" transform="translate(-131.781 -112.973)" fill="#fff"></path><path id="Path_922" data-name="Path 922" d="M370.013,150.847c.062.726.125,1.439.188,2.149l-.062.018a.847.847,0,0,1-.1-.156c-.042-.1-.07-.209-.1-.315a1.946,1.946,0,0,0-2.615-1.512,1.455,1.455,0,0,0-1.17,1.126,2.1,2.1,0,0,0,.728,2.3c.522.413,1.12.733,1.68,1.1a8.577,8.577,0,0,1,.86.6,2.712,2.712,0,0,1-.165,4.379,4.349,4.349,0,0,1-3.25.723,9.483,9.483,0,0,1-1.075-.252c-.1-.023-.21-.03-.32-.045l-.262-2.52.1-.028c.03.073.062.144.088.217.133.378.238.769.4,1.134a2,2,0,0,0,2.108,1.275,4.744,4.744,0,0,0,1.443-.338,1.441,1.441,0,0,0,.855-1.227,2.454,2.454,0,0,0-1.105-2.52c-.478-.325-1-.6-1.488-.9a3.078,3.078,0,0,1-1.558-1.938,2.387,2.387,0,0,1,.318-1.882,3.208,3.208,0,0,1,3.07-1.57c.375.023.75.113,1.122.169C369.8,150.837,369.89,150.837,370.013,150.847Z" transform="translate(-273.259 -112.69)" fill="#fff"></path><path id="Path_923" data-name="Path 923" d="M78.463,151.49h3.5l.022.03a1.953,1.953,0,0,1-.32.116.856.856,0,0,0-.773.829,13.96,13.96,0,0,0-.1,1.441q0,2.93.02,5.859a7.57,7.57,0,0,0,.127,1.109.9.9,0,0,0,.855.824.25.25,0,0,1,.205.129H78.48l-.015-.063a1.305,1.305,0,0,1,.19-.066.831.831,0,0,0,.8-.837,11.131,11.131,0,0,0,.118-1.441c0-2.074,0-4.148-.015-6.221a7.936,7.936,0,0,0-.08-.839.768.768,0,0,0-.71-.741c-.108-.02-.215-.053-.323-.081Z" transform="translate(-58.829 -113.317)" fill="#fff"></path><path id="Path_924" data-name="Path 924" d="M216.519,109.873c-.35-.083-.355-.093-.138-.519a1.227,1.227,0,0,1-.4-.154,1.936,1.936,0,0,1-.29-.431c-.185-.295-.373-.59-.543-.895a.312.312,0,0,1,.015-.252c.057-.111.2-.194.225-.307a1.341,1.341,0,0,1,.68-.869,2.166,2.166,0,0,1,.815-.169c.087-.015.163-.093.25-.129a1.193,1.193,0,0,1,.425-.129,2.394,2.394,0,0,1,.525.159,3.752,3.752,0,0,0,.108,1.058c.127.325.13.544-.2.721-.05.028-.043.186-.038.285a.991.991,0,0,1-.565.947c-.1.058-.158.184-.25.282l-.2-.428Z" transform="translate(-161.346 -79.305)" fill="#fff"></path><path id="Path_925" data-name="Path 925" d="M264.835,253.206a2.161,2.161,0,1,1-3.253-1.958,2.145,2.145,0,0,1,2.2.008A2.181,2.181,0,0,1,264.835,253.206Zm-3.68-.038a1.528,1.528,0,1,0,1.544-1.523A1.534,1.534,0,0,0,261.155,253.168Z" transform="translate(-195.385 -187.714)" fill="#fff"></path><path id="Path_926" data-name="Path 926" d="M286.865,255.232l-3-3.145v2.9h-.605V250.56l2.99,3.135v-2.86h.615Z" transform="translate(-212.442 -187.424)" fill="#fff"></path><path id="Path_927" data-name="Path 927" d="M234.24,255.707v-4.132c.863.018,1.75-.151,2.47.466a2.031,2.031,0,0,1,.623,2.268,1.826,1.826,0,0,1-1.668,1.391A14.084,14.084,0,0,1,234.24,255.707Zm.628-.577a1.606,1.606,0,0,0,1.723-.7,1.494,1.494,0,0,0-.055-1.656,1.733,1.733,0,0,0-1.668-.615Z" transform="translate(-175.678 -188.176)" fill="#fff"></path><path id="Path_928" data-name="Path 928" d="M204.813,254.065v1.661H204.2v-4.15a3.8,3.8,0,0,1,1.64.141,1.066,1.066,0,0,1,.663,1.026,1.153,1.153,0,0,1-.625,1.119c-.077.04-.16.071-.27.118l1.268,1.764a5.668,5.668,0,0,1-.665,0,.37.37,0,0,1-.223-.161c-.31-.433-.608-.872-.913-1.308-.055-.078-.115-.151-.175-.227Zm0-.6c.39.018.75.043.983-.32a.609.609,0,0,0-.022-.708c-.25-.317-.6-.267-.96-.27Z" transform="translate(-153.148 -188.167)" fill="#fff"></path><path id="Path_929" data-name="Path 929" d="M189.4,255.737h-.623v-4.16a4.158,4.158,0,0,1,1.57.118,1.048,1.048,0,0,1,.723,1.008,1.136,1.136,0,0,1-.585,1.136c-.088.048-.18.086-.3.141.413.577.818,1.144,1.23,1.716-.58.141-.708.093-1.025-.365-.25-.353-.5-.711-.738-1.063a.549.549,0,0,0-.25-.209Zm0-2.268c.4.023.768.04.985-.328a.6.6,0,0,0-.055-.728,1.05,1.05,0,0,0-.93-.234Z" transform="translate(-141.583 -188.171)" fill="#fff"></path><path id="Path_930" data-name="Path 930" d="M133.363,255.715a.877.877,0,0,1-1.12-.481,8.153,8.153,0,0,0-.675-.993.458.458,0,0,0-.25-.186v1.66h-.608v-4.143a3.244,3.244,0,0,1,1.735.194,1.089,1.089,0,0,1,.543,1.124,1.114,1.114,0,0,1-.615.965c-.077.04-.16.071-.267.118Zm-2.038-3.57v1.305c.37.028.75.06.95-.292a.843.843,0,0,0,.03-.673C132.118,252.1,131.708,252.165,131.325,252.145Z" transform="translate(-98.031 -188.162)" fill="#fff"></path><path id="Path_931" data-name="Path 931" d="M349.685,251.65v.554h-1.62v1.008h1.575v.6h-1.575v1.4h1.605v.582h-2.25v-4.14Z" transform="translate(-260.562 -188.239)" fill="#fff"></path><path id="Path_932" data-name="Path 932" d="M220.225,253.814v1.391h1.625v.592H219.6V251.65h2.25v.557h-1.613v1.008h1.578v.592Z" transform="translate(-164.698 -188.239)" fill="#fff"></path><path id="Path_933" data-name="Path 933" d="M146.145,251.64h2.25v.569c-.435,0-.863.02-1.288,0-.3-.02-.388.091-.358.373a5.845,5.845,0,0,1,0,.632h1.583v.595h-1.56v1.4h1.618v.592h-2.25Z" transform="translate(-109.604 -188.232)" fill="#fff"></path><path id="Path_934" data-name="Path 934" d="M174.735,253.839v1.381h1.625v.592h-2.25V251.68h2.25v.557h-1.625v1.008h1.6v.6Z" transform="translate(-130.581 -188.262)" fill="#fff"></path><path id="Path_935" data-name="Path 935" d="M310.2,254.344l.583-.123c.033.111.055.2.085.3a.63.63,0,0,0,.658.461.645.645,0,0,0,.635-.454.627.627,0,0,0-.25-.756c-.25-.149-.52-.252-.78-.375a1.1,1.1,0,0,1-.75-.93A1.009,1.009,0,0,1,311,251.4a1.242,1.242,0,0,1,1.38.134,3.769,3.769,0,0,1,.377.421l-.47.285a2.748,2.748,0,0,0-.518-.35.591.591,0,0,0-.728.315c-.1.252.02.469.36.63.27.129.555.227.815.375a1.222,1.222,0,0,1,.543,1.557,1.336,1.336,0,0,1-1.478.819A1.256,1.256,0,0,1,310.2,254.344Z" transform="translate(-232.647 -187.937)" fill="#fff"></path><path id="Path_936" data-name="Path 936" d="M117.245,254.069v1.653h-.605v-4.15a4.2,4.2,0,0,1,1.615.113,1.171,1.171,0,0,1,.688,1.2,1.149,1.149,0,0,1-.94,1.1C117.773,254.032,117.53,254.039,117.245,254.069Zm0-.622h.4c.518-.053.775-.373.665-.821a.829.829,0,0,0-.983-.464.184.184,0,0,0-.077.141C117.243,252.671,117.245,253.041,117.245,253.447Z" transform="translate(-87.479 -188.164)" fill="#fff"></path><path id="Path_937" data-name="Path 937" d="M162.76,253.84h-1.378v1.975h-.613V251.67h2.018v.562h-.865c-.547,0-.547,0-.547.564v.446h1.385Z" transform="translate(-120.576 -188.254)" fill="#fff"></path><path id="Path_938" data-name="Path 938" d="M334.515,255.828h-.62c0-.126-.015-.252-.015-.358v-2.926c0-.229-.055-.33-.3-.307-.2.018-.412,0-.64,0v-.557h2.488v.549h-.915Z" transform="translate(-249.702 -188.262)" fill="#fff"></path><path id="Path_939" data-name="Path 939" d="M326,255.818V251.68h.575v4.138Z" transform="translate(-244.497 -188.262)" fill="#fff"></path><path id="Path_940" data-name="Path 940" d="M303.2,261.86v.489H302.05v-.489Z" transform="translate(-226.535 -195.876)" fill="#fff"></path></g></g></svg> 