<?xml version="1.0" encoding="utf-8"?>
<!-- Generator: Adobe Illustrator 24.2.1, SVG Export Plug-In . SVG Version: 6.00 Build 0)  -->
<svg version="1.1" id="Layer_1" xmlns="http://www.w3.org/2000/svg" xmlns:xlink="http://www.w3.org/1999/xlink" x="0px" y="0px"
	 viewBox="0 0 219.5 39.1" style="enable-background:new 0 0 219.5 39.1;" xml:space="preserve">
<style type="text/css">
	.st0{fill:#FFFFFF;}
</style>
<g id="VMember_HOR_Tag_NoR_rgb" transform="translate(-162.031 -509.5)">
	<path id="Path_575" class="st0" d="M183.4,509.5c0,0.1,0,0.2,0,0.4c0.1,0,0.2,0,0.4,0.1c-0.1,0.6-0.2,1.1-0.3,1.7
		c0,0.2,0,0.5,0,0.8c-0.1,0.5-0.2,1-0.2,1.4c0,0.3-0.1,0.7-0.3,1c-0.1,0.2,0,0.4,0.2,0.5c1.3,0.7,2.4,1.6,3.2,2.8
		c0.5,0.7,0.8,1.6,0.8,2.5c0,0.2,0.1,0.3,0.2,0.4c0.7,0.6,1.4,1.2,2.1,1.8c1.6,1.7,1.5,3.4-0.2,5c-0.1,0-0.1,0.1,0,0.1
		c0.3,0.7,0.5,1.4,0.7,2.2c0.2,1-0.2,2.1-1,2.8c-0.6,0.5-1.2,1-1.9,1.4c-0.1,0.1-0.2,0.2-0.3,0.3c-0.2,1-0.8,1.9-1.7,2.5
		c-0.6,0.4-1.3,0.7-2,1c-0.1,0.1-0.3,0.1-0.4,0.2c-1,1.3-2.4,2.1-4,2.3c-1.9,0.4-3.9,0.4-5.8,0c-0.1,0.1-0.2,0.3-0.3,0.5
		c-0.1-0.6-0.1-0.6-0.6-0.7c-1.4-0.3-2.6-1-3.7-1.9c-0.4-0.5-0.8-0.9-1.1-1.4c-0.1-0.2-0.3-0.3-0.4-0.5c-0.8-0.6-1.5-1.2-2.3-1.8
		c-0.8-0.7-1-1.9-0.5-2.9c0.1-0.2,0.2-0.4,0.4-0.5c-0.3-0.3-0.7-0.5-1-0.8c-0.7-0.5-1.2-1.2-1.4-2c-0.2-1,0.3-2.1,1.3-2.5
		c0.1-0.1,0.3-0.1,0.4-0.2c-0.2-0.2-0.3-0.4-0.5-0.6c-1.2-1.3-1.1-2.5,0.4-3.6c0.5-0.3,1.1-0.6,1.6-0.8c0.1-0.1,0.3-0.1,0.4-0.2
		c0,0,0-0.1,0-0.1c-0.4-1.3,0.2-2.8,1.5-3.4c0.9-0.5,1.9-0.7,2.9-0.8c0.6-0.1,1.3-0.1,1.9-0.1c0.1,0,0.3-0.1,0.3-0.2
		c0.6-1.2,1.7-2.1,3-2.2c1.4-0.3,2.9-0.3,4.4,0.1c0.2,0,0.3,0.1,0.5-0.2c0.8-1.6,1.8-3.1,3-4.4C183.3,509.5,183.3,509.5,183.4,509.5
		z M186,534.2c-0.1-0.6-0.3-1.1-0.7-1.6c-0.6-0.8-1.4-1.4-2.2-2c-0.2-0.1-0.4-0.2-0.6-0.2c-1.7,0-3.3,0-5,0c-0.4,0-0.6,0.2-0.8,0.7
		c-0.1,0.4,0.1,0.5,0.4,0.7c1.7,0.7,3.2,1.6,4.5,2.8c0.1,0.1,0.3,0.1,0.4,0.1c0.6-0.1,1.2-0.1,1.8-0.2
		C184.7,534.5,185.3,534.3,186,534.2L186,534.2z M178.7,525.6c-0.2,0.4-0.3,0.8-0.4,1.1c0.1,0.1,0.3,0.1,0.4,0.2
		c1.4,0.6,2.8,1.3,4.1,1.9c0.5,0.2,0.9,0.7,1.4,0.8c0.6,0,1.1-0.2,1.6-0.4c0.6-0.2,1.2-0.5,1.8-0.8c0-0.1,0-0.1,0-0.1
		c-0.1-0.1-0.3-0.2-0.4-0.3c-1.2-1-2.4-1.8-3.7-2.5c-0.6-0.5-1.4-0.6-2.1-0.3c0,0-0.1,0-0.2,0C180.4,525.4,179.5,525.5,178.7,525.6
		L178.7,525.6z M174.3,530.8c0.2-0.6,0.1-0.7-0.5-0.8c-3-0.6-5.9-1.6-8.5-3c-0.1-0.1-0.3-0.1-0.4-0.1c-0.4,0.1-0.8,0.2-1.2,0.4
		c-0.7,0.2-1.1,1-0.9,1.7c0.1,0.2,0.2,0.4,0.4,0.6c0.4,0.5,0.9,0.9,1.4,1.3c0.2,0.2,0.5,0.2,0.7,0.1c0.4-0.2,0.7-0.3,1.1-0.4
		c1.6-0.4,3.3-0.5,4.9-0.2C172.3,530.4,173.3,530.6,174.3,530.8L174.3,530.8z M175.4,535.6c0.2,0.1,0.3,0.2,0.4,0.3
		c0.4,0.4,0.8,0.8,1.1,1.2c0.2,0.3,0.2,0.7-0.1,1c-0.2,0.3-0.6,0.4-1,0.3c0.6-0.5,0.6-0.8,0-1.2c-0.2-0.2-0.5-0.3-0.8-0.5
		c-0.1,0.2-0.1,0.2-0.1,0.3l-0.1,0.3c0-0.6,0-0.6-0.2-0.7c-0.1,0.5-0.2,1-0.4,1.6c0-0.2-0.1-0.4-0.1-0.5h-0.1
		c-0.1,0.3-0.1,0.5-0.2,0.8c0.1,0,0.1,0.1,0.2,0.1c0-0.1,0.1-0.1,0.1-0.1c0.1,0.1,0.2,0.1,0.4,0.2c2.4,0.4,4.8,0.3,7.1-0.4
		c0.3-0.1,0.3-0.2,0.3-0.5c-0.2-0.8-0.6-1.6-1.1-2.2c-0.1-0.1-0.2-0.1-0.4-0.1c-1.3-0.1-2.5-0.2-3.8-0.3c-0.2-0.1-0.5-0.1-0.8-0.1
		C175.8,535.2,175.7,535.4,175.4,535.6L175.4,535.6z M175.6,525.4c-0.2,0-0.4-0.1-0.6-0.1c-1-0.2-1.9-0.4-2.9-0.6
		c-2.1-0.4-4-1.4-5.6-2.7c-0.1-0.1-0.2-0.1-0.4-0.1c-0.6,0.1-1.3,0.3-1.9,0.5c-1.3,0.6-1.5,1.7-0.5,2.8c0.1,0.1,0.2,0.2,0.3,0.2
		c0.1,0.1,0.3,0.1,0.5,0.1c2.4-0.6,4.9-0.6,7.4-0.3c1.1,0.1,2.2,0.4,3.4,0.6C175.5,525.7,175.6,525.6,175.6,525.4L175.6,525.4z
		 M177.1,520.6c-0.6-0.2-1.3-0.3-1.9-0.6c-1.2-0.3-2.2-1.1-2.9-2.1c-0.1-0.1-0.2-0.1-0.3-0.1c-0.8,0-1.6,0-2.4,0.1
		c-0.9,0.1-1.8,0.3-2.7,0.8c-0.6,0.3-0.9,0.9-0.8,1.6c0,0.3,0.1,0.4,0.5,0.3c0.3-0.1,0.6-0.1,0.8-0.1c2.4-0.2,4.9-0.1,7.3,0.4
		c0.7,0.1,1.4,0.3,2.2,0.4C177,521,177,520.8,177.1,520.6L177.1,520.6z M176.5,522.7c-3-0.9-6.1-1.2-9.1-0.9c0,0,0,0.1,0.1,0.1
		c0.4,0.2,0.8,0.5,1.1,0.7c2,1.1,4.2,1.8,6.5,2.1c0.6,0.1,0.6,0.1,0.7-0.5c0,0,0-0.1,0.1-0.1C176.1,523.7,176.3,523.2,176.5,522.7
		L176.5,522.7z M166,526.7c2.7,1.3,5.6,2.3,8.5,2.9c0.2-0.8,0.3-1.5,0.5-2.3C172.1,526.4,169,526.2,166,526.7z M181,519.4
		c-0.3,1.1-0.6,2-0.9,2.9c0.9,0.3,1.7,0.7,2.5,1.1c0.7,0.5,1.6,0.4,2.1-0.2c0.2-0.2,0.4-0.3,0.6-0.5c0.2-0.2,0.4-0.5,0.7-0.8
		C184.3,521,182.7,520.2,181,519.4L181,519.4z M188.8,527.7c0.2-0.3,0.4-0.7,0.6-1c0.3-0.8,0.2-1.6-0.4-2.3
		c-0.7-0.9-1.6-1.6-2.5-2.1c0,0,0,0-0.1,0c0,0,0,0.1,0.1,0.1c-0.8,0.6-1.5,1.2-2.3,1.8C186,525.1,187.5,526.2,188.8,527.7
		L188.8,527.7z M173.5,534.8c0,0,0-0.1,0-0.1c-0.1,0-0.3-0.1-0.4-0.1c-2.6-0.6-5.1-1.4-7.6-2.5c-0.2-0.1-0.3,0-0.5,0.1
		c-0.6,0.4-0.8,1.2-0.4,1.8c0,0,0,0,0.1,0.1c0.4,0.5,0.9,1,1.4,1.5c0.3,0.3,0.7,0.5,1.1,0.8c0.2-0.9,1-1.5,1.9-1.6
		c1.3-0.3,2.6-0.2,3.9,0.1C173.1,534.7,173.3,534.7,173.5,534.8L173.5,534.8z M186.8,533.9c2.4-0.9,3-3.4,1.2-4.9
		c-1.1,0.4-2.2,0.8-3.3,1.2C185.8,531.2,186.6,532.5,186.8,533.9L186.8,533.9z M166.2,531.5v0.2c2.4,1,4.8,1.8,7.4,2.3
		c0.1-0.6,0.3-1.1,0.4-1.6c0.1-0.3-0.1-0.3-0.3-0.4c-1.7-0.5-3.4-0.7-5.2-0.7C167.7,531.3,167,531.5,166.2,531.5L166.2,531.5z
		 M173.2,535.9c-0.9-0.1-1.8-0.3-2.7-0.4c-0.6,0-1.1,0-1.7,0.1c-0.5,0.1-0.9,0.5-1,0.9c1.6,0.8,3.3,1.4,5.1,1.8
		C173,537.5,173.1,536.8,173.2,535.9L173.2,535.9z M178.6,517.1c0.2-0.5,0.5-1.1,0.8-1.8c-0.5-0.1-1-0.2-1.4-0.2
		c-1.3-0.2-2.5-0.1-3.7,0.4c-0.4,0.1-0.8,0.4-1,0.8C175,516.5,176.8,516.8,178.6,517.1L178.6,517.1z M181.5,539.1c0,0,0-0.1-0.1-0.1
		c-2.5,0.8-5,0.5-7.6,0.2c-0.1,0.4-0.2,0.8-0.3,1.3c0.7,0.1,1.4,0.1,2.1,0.2c1.6,0.1,3.2-0.1,4.6-0.8
		C180.7,539.6,181.1,539.4,181.5,539.1L181.5,539.1z M186.2,520.2c-0.1-1.4-2.1-3.3-3.8-3.9c-0.2,0.6-0.4,1.2-0.6,1.7
		C183.2,518.8,184.7,519.5,186.2,520.2L186.2,520.2z M178,518.5l-4.8-0.8c0,0,0,0.1-0.1,0.1c0.1,0.1,0.2,0.3,0.3,0.4
		c1,1,2.3,1.7,3.7,2c0.1,0,0.2-0.1,0.3-0.2C177.6,519.6,177.8,519.1,178,518.5L178,518.5z M186,534.8c-1.2,0.2-2.4,0.4-3.6,0.6
		c0.5,0.7,0.7,1.5,0.6,2.3C184.7,537.2,186,536.1,186,534.8L186,534.8z M177.4,528.6c0,0,0.1,0,0.1,0c-0.1,0.3-0.1,0.5-0.2,0.8
		c0,0.2-0.1,0.3-0.2,0.5c1.6,0.2,3.1,0.2,4.7,0c-1.3-0.6-2.5-1.2-3.8-1.7c-0.1,0-0.2,0-0.3,0.1C177.7,528.4,177.5,528.5,177.4,528.6
		L177.4,528.6z M172.9,539c-1.7-0.6-3.3-1.2-5-1.7c1.2,1.7,2.9,2.4,4.8,2.9C172.8,539.7,172.9,539.3,172.9,539z M176.3,533.3
		c-0.1,0.4-0.2,0.8-0.3,1.2c1.4,0.3,2.8,0.4,4.1,0.3c-1.1-0.7-2.3-1.2-3.5-1.8c-0.3-0.1-0.5,0.1-0.7,0.3
		C176.1,533.3,176.2,533.3,176.3,533.3L176.3,533.3z M178.8,525.1c0.9-0.1,1.9-0.3,2.8-0.4v-0.2c-0.7-0.3-1.3-0.5-2-0.8
		C179.3,524.2,179.1,524.6,178.8,525.1L178.8,525.1z M174.1,536.2c0,0-0.1,0-0.1,0c-0.1,0.1-0.2,0.3-0.2,0.5
		c-0.1,0.4-0.2,0.9-0.3,1.3c0,0.1,0,0.2,0,0.3c0,0.1,0.2,0.1,0.2,0.1c0-0.1,0.1-0.2,0.1-0.2c0-0.1,0-0.2,0-0.3
		c0.1-0.5,0.2-0.9,0.3-1.4C174.1,536.4,174.1,536.3,174.1,536.2L174.1,536.2z M174.5,534.1c0.5-0.5,0.3-1.2,0.4-1.8
		C174.6,532.9,174.4,533.5,174.5,534.1L174.5,534.1z M173.3,539c-0.1,0.4-0.2,0.8-0.3,1.3c0.1,0,0.2,0.1,0.2,0.1
		c0.4-0.1,0.2-0.5,0.3-0.8C173.6,539.4,173.8,539.1,173.3,539L173.3,539z"/>
	<path id="Path_576" class="st0" d="M296.1,533.1c0.1,0,0.2-0.1,0.4-0.1c1-0.1,1.7-0.9,1.9-1.8c0.2-1.1,0.3-2.2,0.4-3.3
		c0.1-2.7,0.2-5.5,0.3-8.2c0-0.5-0.1-1-0.3-1.5c-0.2-0.2-0.3-0.5-0.4-0.7c-0.3-0.6-0.9-1-1.5-1c-0.1,0-0.3-0.1-0.4-0.1
		c0,0,0-0.1,0-0.1c0.1,0,0.2-0.1,0.2-0.1c1,0,2.1,0.1,3.1,0.1c0.2,0,0.4,0.1,0.4,0.3c1.9,3.9,3.7,7.8,5.6,11.6
		c0.4,0.9,0.9,1.8,1.3,2.8c2.4-4.9,4.6-9.8,6.6-14.7h3c0,0,0,0.1,0,0.1c-0.1,0.1-0.2,0.1-0.3,0.1c-0.8,0.1-1.3,0.7-1.4,1.5
		c-0.1,0.9-0.1,1.7-0.1,2.6c0,2.9,0,5.7,0,8.6c0,0.9,0.1,1.8,0.2,2.6c0.1,0.8,0.5,1.1,1.3,1.3c0.1,0,0.3,0.1,0.4,0.2h-5.8
		c0.1-0.1,0.2-0.2,0.3-0.2c1.2-0.1,1.5-0.9,1.6-1.9c0.1-0.9,0.1-1.8,0.2-2.8c0-3,0-6,0-8.9c0-0.1,0-0.2-0.1-0.3
		c-2.4,4.8-4.5,9.8-6.7,14.7c-2.2-4.8-4.4-9.4-6.6-14.1c0,0-0.1,0-0.1,0c0,0.2-0.1,0.4-0.1,0.6c-0.1,2.3-0.2,4.6-0.3,7
		c0,1.1-0.1,2.3,0,3.4c-0.1,1.2,0.8,2.2,2,2.3c0,0,0,0,0.1,0c0.1,0,0.3,0.1,0.4,0.2h-5.4C296.1,533.1,296.1,533.1,296.1,533.1z"/>
	<path id="Path_577" class="st0" d="M201.4,533.7c-0.1-0.2-0.1-0.3-0.2-0.5c-1.9-4.9-3.8-9.8-5.7-14.7c-0.2-0.4-0.4-0.8-0.6-1.2
		c-0.3-0.6-0.9-0.9-1.5-1c-0.1,0-0.2-0.1-0.4-0.1c0,0,0-0.1,0-0.1h6c0,0,0,0.1,0,0.1c-0.2,0.1-0.3,0.1-0.5,0.1
		c-1,0.2-1.4,0.8-1.1,1.7c0.3,1.1,0.8,2.1,1.2,3.1l3.5,8.8c0,0.1,0.1,0.2,0.1,0.2c0.1-0.1,0.1-0.2,0.2-0.3c1.1-2.8,2.3-5.5,3.4-8.3
		c0.4-1.1,0.8-2.2,1-3.3c0.3-0.6-0.1-1.4-0.7-1.6c-0.1,0-0.2-0.1-0.3-0.1c-0.2-0.1-0.5-0.1-0.7-0.2c-0.1,0-0.3-0.1-0.4-0.2h5.9
		c0,0,0,0.1,0,0.1c-0.1,0.1-0.3,0.1-0.4,0.1c-1.1,0.1-2.1,0.9-2.4,1.9c-2,4.6-3.9,9.2-5.9,13.8c-0.2,0.5-0.3,1.1-0.5,1.6
		C201.5,533.7,201.5,533.7,201.4,533.7z"/>
	<path id="Path_578" class="st0" d="M343.1,521.4h2.1c-0.1,0.1-0.2,0.1-0.2,0.2c-0.8,0.1-1,0.7-1,1.4c0,0.5-0.1,1-0.1,1.5
		c0,2.3,0,4.5,0.1,6.8c0,0.2,0,0.4,0.1,0.6c0,0.5,0.4,1,1,1c0.1,0,0.2,0.1,0.2,0.1h-3.9c0,0,0,0,0-0.1c0.1,0,0.2-0.1,0.3-0.1
		c0.5,0,0.9-0.4,0.9-0.9c0.1-1,0.2-1.9,0.2-2.9c0-1.8,0-3.6,0-5.3c0-0.1,0-0.1,0-0.2c0,0-0.1,0-0.1,0c-1.5,3.3-3,6.7-4.6,10
		c-1.6-3.3-3.1-6.4-4.6-9.6c0,0-0.1,0-0.1,0c0,0.2,0,0.4-0.1,0.6c-0.1,2.1-0.1,4.2-0.2,6.3c0,0.2,0,0.4,0,0.6c0,0.8,0.6,1.5,1.4,1.5
		c0.1,0,0.2,0.1,0.3,0.2H331c0,0,0,0,0-0.1c0.1,0,0.2-0.1,0.2-0.1c0.8-0.1,1.3-0.7,1.4-1.5c0.1-1.1,0.2-2.3,0.2-3.4
		c0.1-1.4,0.1-2.8,0.1-4.2c0.1-1.1-0.7-2.1-1.7-2.3c-0.1,0-0.2-0.1-0.2-0.1c0.1,0,0.2,0,0.3-0.1c0.7,0,1.4,0,2,0.1
		c0.2,0,0.3,0.1,0.4,0.3c1.6,3.2,3.1,6.3,4.7,9.5c0,0.1,0.1,0.1,0.1,0.2C340.2,528.2,341.7,524.8,343.1,521.4z"/>
	<path id="Path_579" class="st0" d="M373.6,527.3c0.1,1.5,0.1,3,0.2,4.5c0,0.6,0.4,1.1,1,1.1c0,0,0.1,0,0.1,0c0,0,0.1,0,0.1,0.1
		h-3.8c0,0,0,0,0,0c0.1,0,0.1-0.1,0.2-0.1c0.6-0.1,0.8-0.3,0.9-0.9c0.1-0.7,0.1-1.5,0.1-2.2c0-2.3,0-4.6-0.1-6.8V523
		c-0.1-0.7-0.1-1.4-1-1.5c0.1-0.1,0.1-0.1,0.1-0.1c1.2,0,2.5-0.1,3.7-0.1c0.7,0,1.5,0.2,2.1,0.5c0.9,0.5,1.4,1.5,1.4,2.5
		c0,1-0.5,1.9-1.4,2.4c-0.3,0.1-0.6,0.3-0.9,0.4c0.1,0.2,0.2,0.4,0.3,0.6c0.8,1.5,1.7,2.9,2.8,4.2c0.3,0.3,0.5,0.6,0.9,0.8
		c0.3,0.3,0.8,0.3,1.1,0.1c0,0,0.1-0.1,0.1-0.1c0,0,0,0,0.1,0c-0.2,0.3-0.6,0.5-1,0.5c-0.9,0.2-1.9-0.2-2.5-0.9
		c-0.6-0.7-1.2-1.5-1.7-2.3c-0.5-0.8-1-1.6-1.4-2.4c-0.1-0.2-0.3-0.4-0.6-0.3C374.2,527.4,373.9,527.4,373.6,527.3z M373.7,521.6
		c0,1.8,0,3.5,0,5.1c0,0.3,0.1,0.4,0.3,0.4c0.4,0,0.9,0,1.3-0.1c1-0.1,1.7-1,1.8-1.9c0.1-0.6,0-1.2-0.1-1.9
		c-0.1-0.8-0.7-1.5-1.5-1.6C374.9,521.6,374.3,521.5,373.7,521.6L373.7,521.6z"/>
	<path id="Path_580" class="st0" d="M222,527.1c0.2,0.4,0.4,0.9,0.7,1.2c0.8,1.2,1.7,2.4,2.5,3.6c0,0,0.1,0.1,0.1,0.1
		c0.6,0.5,1.1,1.2,2,0.5c-0.2,0.4-0.6,0.6-1.1,0.6c-1.1,0.1-2.2-0.4-2.8-1.3c-0.8-1.2-1.6-2.4-2.4-3.7c0,0-0.1-0.1-0.1-0.1
		c-0.2-0.8-0.8-0.9-1.5-0.8c0,0.7,0,1.4,0,2.1c0,0.8,0.1,1.6,0.1,2.4c0.1,0.9,0.4,1.2,1.2,1.3c0,0,0.1,0,0.1,0.1h-4
		c0.2-0.1,0.2-0.1,0.2-0.1c0.8-0.2,0.9-0.3,1-1.1c0.1-0.9,0.1-1.8,0.1-2.8c0-2.1,0-4.2-0.1-6.3c0-0.6-0.1-1.3-1-1.4
		c0.1-0.1,0.1-0.1,0.2-0.1c1.2,0,2.4-0.1,3.6-0.1c0.9-0.1,1.9,0.2,2.6,0.8c1.2,1,1.3,2.8,0.2,4c-0.3,0.3-0.7,0.6-1.1,0.8
		C222.4,527,222.2,527.1,222,527.1z M219.4,521.6v1.3c0,1.3,0,2.6,0,3.9c0,0.3,0.1,0.4,0.4,0.4c0.3,0,0.6,0,1,0
		c1.2,0,2.1-0.9,2.1-2.1c0.1-0.6,0-1.3-0.1-1.9c-0.1-0.8-0.7-1.4-1.5-1.5C220.6,521.5,220,521.5,219.4,521.6L219.4,521.6z"/>
	<path id="Path_581" class="st0" d="M353.7,526.6c1.2,0.1,2.2,0.8,2.7,1.9c0.7,1.7,0,3.7-1.7,4.4c-0.3,0.1-0.6,0.2-1,0.3
		c-0.7,0.1-1.5,0.1-2.2,0.1c-0.9,0-1.7,0-2.6-0.1h-0.3c0,0,0-0.1,0-0.1c0.1,0,0.2-0.1,0.3-0.1c0.4,0,0.8-0.4,0.8-0.8
		c0.1-0.7,0.1-1.4,0.1-2.1c0-2.4,0-4.7-0.1-7.1c0-0.2,0-0.3,0-0.5c-0.1-0.7-0.2-0.8-0.9-1c0,0-0.1,0-0.1-0.1v-0.1c0.3,0,0.6,0,0.9,0
		c1.2,0,2.4-0.2,3.5-0.1c1.5,0,2.6,1.3,2.6,2.7c0,0.2,0,0.4-0.1,0.6c-0.1,0.8-0.7,1.4-1.4,1.7C354,526.4,353.9,526.5,353.7,526.6z
		 M350.9,527c0,0.1,0,0.2,0,0.3c0,0.9,0,1.8,0,2.7c0,0.7,0.1,1.4,0.3,2.1c0.1,0.4,0.4,0.8,0.8,0.8c1.2,0.3,2.4-0.3,2.9-1.4
		c0.3-0.6,0.3-1.4,0.2-2C354.9,527.1,352.5,526.6,350.9,527L350.9,527z M350.9,526.7c0.1,0,0.2,0,0.3,0.1c1.6,0.1,2.7-0.5,3-2.1
		c0.3-1.4-0.6-2.8-2-3.1c-0.2,0-0.4-0.1-0.6-0.1c-0.7,0-0.7,0-0.7,0.7c0,0.1,0,0.3,0,0.4V526.7z"/>
	<path id="Path_582" class="st0" d="M278.9,527.2c0-3.3,2.7-6,6-6c3.3,0,6,2.7,6,6c0,3.3-2.6,5.9-5.9,6
		C281.6,533.3,278.9,530.6,278.9,527.2C278.9,527.2,278.9,527.2,278.9,527.2z M289.4,527.7c0-1.9-0.7-3.6-2-5
		c-0.7-0.9-1.8-1.4-3-1.3c-1.7,0.1-3.2,1.2-3.7,2.8c-0.9,2.7-0.2,5.6,1.7,7.6c1.5,1.5,3.9,1.5,5.4,0.1c0.1-0.1,0.2-0.2,0.3-0.3
		C289,530.5,289.5,529.2,289.4,527.7L289.4,527.7z"/>
	<path id="Path_583" class="st0" d="M254.1,527.2c0-3.3,2.6-6,5.9-6c0,0,0,0,0.1,0c3.3,0,6.1,2.6,6.1,6c0,3.3-2.6,6.1-6,6.1
		S254.1,530.6,254.1,527.2C254.1,527.2,254.1,527.2,254.1,527.2z M255.5,526.3c0,1.8,0.5,3.5,1.6,4.9c2.4,2.9,5.7,1.8,7-0.8
		c0.5-1.1,0.6-2.3,0.4-3.4c-0.2-1.8-1-3.4-2.3-4.6c-1.4-1.3-3.7-1.3-5.1,0C256.1,523.4,255.5,524.8,255.5,526.3z"/>
	<path id="Path_584" class="st0" d="M360.2,521.3h6.7c0.1,0.9,0.1,1.8,0.2,2.7c0,0-0.1,0-0.1,0c0-0.1-0.1-0.1-0.1-0.2
		c0-0.1,0-0.1,0-0.2c-0.2-1.6-0.9-2.1-2.5-2.1c-0.6,0-1.1,0.1-1.8,0.1v5.5c1.1-0.1,2.3-0.2,3.4-0.3c0.3,0,0.5-0.3,0.6-0.6
		c0-0.2,0.1-0.5,0.2-0.7v3.4c0,0-0.1,0-0.1,0c0-0.2-0.1-0.3-0.1-0.5c-0.1-0.8-0.3-1-1.1-1.1c-1-0.1-2-0.1-3-0.2v0.8
		c0,1.2,0,2.3,0,3.5c0,1,0.4,1.3,1.4,1.3c0.6,0,1.2,0,1.9-0.1c1-0.1,1.8-0.8,2.1-1.8c0-0.1,0.1-0.2,0.1-0.4c0,0,0,0,0.1,0
		c-0.2,0.9-0.4,1.7-0.5,2.6h-7.6c0,0,0-0.1,0-0.1c0.1,0,0.1-0.1,0.2-0.1c0.6-0.1,0.8-0.3,0.9-1c0.1-0.6,0.1-1.2,0.1-1.8
		c0-2.3,0-4.6,0-6.9v-0.2c-0.1-0.8,0-1.6-1.1-1.7C360.1,521.4,360.2,521.4,360.2,521.3z"/>
	<path id="Path_585" class="st0" d="M320.1,521.4c1.1,0,2.2,0,3.3,0s2.2,0,3.4,0c0.1,0.9,0.1,1.8,0.2,2.8c0,0-0.1,0-0.1,0
		c0-0.2-0.1-0.4-0.1-0.6c0-1.1-1-1.9-2.1-1.9c-0.1,0-0.1,0-0.2,0c-0.6,0-1.3,0-2,0.1v5.5c0.3,0,0.6,0,0.9,0c0.7,0,1.4-0.1,2.1-0.1
		s0.9-0.3,1-0.9c0-0.1,0.1-0.3,0.2-0.4v3.4c0,0-0.1,0-0.1,0c0-0.1-0.1-0.2-0.1-0.4c-0.1-0.8-0.3-1.1-1.2-1.2c-1-0.1-1.9-0.1-2.9-0.2
		c0,0.2,0,0.3,0,0.5v3.6c0,0.2,0,0.4,0.1,0.6c0,0.4,0.3,0.8,0.8,0.8c1,0.2,2.1,0.1,3-0.2c0.7-0.3,1.2-0.9,1.4-1.6
		c0-0.1,0.1-0.3,0.1-0.4c0,0,0.1,0,0.2-0.1c-0.2,0.9-0.4,1.8-0.5,2.6H320c0,0,0-0.1,0-0.1c0.1,0,0.1-0.1,0.2-0.1
		c0.7-0.2,0.9-0.3,0.9-1c0.1-0.6,0.1-1.3,0.1-2c0-2.2,0-4.5,0-6.7c0-0.1,0-0.3,0-0.4c-0.1-0.7-0.1-1.4-1.1-1.4
		C320.1,521.5,320.1,521.4,320.1,521.4z"/>
	<path id="Path_586" class="st0" d="M240.3,521.4h3.9c0,0,0,0,0,0.1c-0.1,0.1-0.2,0.1-0.3,0.1c-0.6,0.1-1.1,0.6-1.1,1.2
		c-0.1,0.9-0.1,1.8-0.2,2.6c0,1.3,0,2.6,0.1,3.9c0,0.3,0.1,0.5,0.1,0.8c0.3,1.8,1.9,3,3.7,2.9c1.9,0.1,3.5-1.2,3.9-3.1
		c0.1-0.4,0.2-0.8,0.2-1.3c0-1.7,0-3.4-0.1-5.2c0-0.2,0-0.4-0.1-0.6c-0.1-0.7-0.6-1.2-1.3-1.3c-0.1,0-0.3-0.1-0.4-0.2h3.7
		c0,0,0,0,0,0.1c-0.1,0-0.1,0.1-0.2,0.1c-0.8,0.1-1.3,0.8-1.3,1.5c-0.1,0.4-0.1,0.8-0.1,1.2c0,1.4,0,2.9,0,4.3
		c0,3.1-2.2,5.1-5.5,4.7c-1.5,0-2.8-0.9-3.5-2.2c-0.3-0.8-0.5-1.6-0.4-2.5c0-1.9,0-3.7,0-5.6c0-0.2,0-0.4-0.1-0.6
		c-0.1-0.7-0.2-0.8-0.9-1C240.4,521.5,240.3,521.5,240.3,521.4C240.3,521.5,240.3,521.5,240.3,521.4z"/>
	<path id="Path_587" class="st0" d="M235.3,533.1h-4.5c0,0,0,0,0-0.1c0.1,0,0.2-0.1,0.4-0.1c0.7-0.2,1-0.4,1.1-1.2
		c0.1-0.9,0.1-1.7,0.2-2.6c0-2.2,0-4.5,0-6.7c0-0.2,0-0.4,0-0.7c-0.7,0-1.4,0-2,0.1c-0.8,0.1-1.5,0.7-1.7,1.4
		c-0.1,0.3-0.2,0.5-0.4,0.8c0.1-0.9,0.1-1.8,0.2-2.8c3.1,0.4,6.2,0.4,9.3,0c-0.1,1-0.1,2-0.2,3c0,0,0,0-0.1,0c0-0.1-0.1-0.1-0.1-0.2
		c0-0.2-0.1-0.5-0.1-0.8c-0.1-0.7-0.7-1.3-1.4-1.4c-0.7-0.1-1.4-0.1-2.3-0.2v1.1c0,2.7,0,5.3,0,8c0,0.4,0,0.7,0.1,1.1
		c0.1,0.5,0.5,1,1,1c0.2,0,0.3,0.1,0.5,0.1C235.4,533,235.4,533.1,235.3,533.1z"/>
	<path id="Path_588" class="st0" d="M269.2,532.9c-0.1-0.9-0.2-1.9-0.3-2.8c0,0,0.1,0,0.1,0c0,0.1,0.1,0.1,0.1,0.2
		c0.1,0.2,0.1,0.5,0.2,0.7c0.3,1.4,1.6,2.3,3,2c0.1,0,0.2,0,0.3-0.1c0.8,0,1.6-0.6,1.8-1.4c0.3-1,0-2.2-0.8-2.9
		c-0.6-0.5-1.3-0.9-1.9-1.3c-0.6-0.3-1.1-0.8-1.5-1.4c-0.8-1.5-0.3-3.4,1.2-4.2c1-0.6,2.2-0.7,3.2-0.4c0.1,0,0.2,0.1,0.3,0.1
		c0.1,0,0.2,0,0.3,0c0.1,0.8,0.1,1.6,0.2,2.4c0,0-0.1,0-0.1,0c0-0.1-0.1-0.1-0.1-0.2c-0.1-0.3-0.2-0.6-0.3-0.9
		c-0.5-1.1-1.8-1.6-2.9-1.1c-0.1,0-0.2,0.1-0.3,0.2c-0.9,0.7-1.2,2-0.5,3c0.2,0.4,0.5,0.7,0.9,1c0.5,0.4,1.1,0.7,1.7,1.1
		c0.9,0.5,1.6,1.3,1.9,2.2c0.3,1.3-0.2,2.6-1.3,3.3c-1.4,0.9-3.1,1.1-4.6,0.6C269.6,533,269.4,532.9,269.2,532.9z"/>
	<path id="Path_589" class="st0" d="M213.7,533.1h-4c0.1,0,0.2-0.1,0.3-0.1c0.7-0.2,0.9-0.4,0.9-1.1c0.1-0.8,0.1-1.7,0.1-2.5
		c0-2.1,0-4.2,0-6.3c0-0.1,0-0.3,0-0.4c0-0.6-0.4-1.1-1-1.1c0,0,0,0,0,0c-0.1,0-0.1,0-0.1-0.1c0,0,0,0,0,0h4
		c-0.1,0.1-0.3,0.1-0.4,0.1c-0.5,0-0.8,0.4-0.9,0.9c-0.1,0.6-0.1,1.2-0.1,1.8c0,2.2,0,4.4,0,6.5c0,0.4,0.1,0.8,0.1,1.2
		c0,0.5,0.4,0.9,0.9,0.9C213.5,533,213.6,533,213.7,533.1C213.7,533,213.7,533.1,213.7,533.1z"/>
	<path id="Path_590" class="st0" d="M172.9,548.2c-0.1-0.2-0.2-0.4-0.2-0.6c-0.2,0.4-0.4,0.7-0.6,1c-0.4,0-0.4,0-0.3-0.4
		c0-0.2-0.1-0.3-0.2-0.4c-0.4,0.1-0.4-0.3-0.5-0.5c-0.2-0.4-0.5-0.8-0.7-1.2c0-0.1,0-0.2,0-0.3c0.1-0.2,0.3-0.3,0.3-0.5
		c0.1-0.4,0.4-0.7,0.7-0.9c0.4-0.2,0.8-0.3,1.2-0.3c0.1,0,0.2-0.1,0.3-0.1c0.2-0.1,0.4-0.2,0.6-0.2c0.2,0,0.5,0.1,0.6,0.2
		c0.1,0.4,0.2,0.8,0.2,1.2c0,0.2,0,0.3,0.1,0.4c0.2,0.3,0,0.4-0.1,0.5c-0.1,0.1-0.2,0.3-0.3,0.5c0,0.5-0.2,1-0.7,1.3
		C173.1,547.9,173,548,172.9,548.2z"/>
	<path id="Path_591" class="st0" d="M318.8,543.4c0-1.6,1.3-2.9,2.9-2.9c1.6,0,2.9,1.3,2.9,2.9c0,1.6-1.3,2.9-2.9,2.9c0,0,0,0,0,0
		c-1.6,0-2.8-1.2-2.9-2.8C318.8,543.5,318.8,543.4,318.8,543.4z M323.7,543.4c0-1.1-0.8-2-2-2.1c0,0,0,0-0.1,0c-1.2,0-2.1,0.9-2.1,2
		s0.9,2.1,2,2.1S323.6,544.6,323.7,543.4C323.7,543.5,323.7,543.5,323.7,543.4z"/>
	<path id="Path_592" class="st0" d="M272.2,540.3c1.3,1.4,2.6,2.7,4,4.2v-3.8h0.8v5.8c-1.3-1.4-2.6-2.7-4-4.1v3.8h-0.8V540.3z"/>
	<path id="Path_593" class="st0" d="M287.2,546.2h-0.8v-5.5h0.8v2.1h2.4v-2.1h0.8v5.5h-0.8v-2.6c-0.8,0-1.5,0-2.2,0
		c-0.1,0-0.2,0.2-0.2,0.3c0,0.6,0,1.2,0,1.8C287.2,545.9,287.2,546,287.2,546.2z"/>
	<path id="Path_594" class="st0" d="M306.7,540.6c0.7,0.1,1.3,0.1,1.9,0.2c0.7,0.1,1.2,0.7,1.2,1.4c0.1,0.7-0.3,1.3-1,1.6
		c-0.1,0-0.1,0.1-0.2,0.1c0.6,0.8,1.1,1.5,1.7,2.3c-0.6,0.1-1.1,0.1-1.4-0.5c-0.3-0.5-0.6-1-1-1.4c-0.1-0.1-0.2-0.2-0.3-0.2v2.2
		h-0.8L306.7,540.6z M307.5,543.2c0.2,0,0.3,0,0.5,0c0.4,0,0.8-0.1,0.9-0.5c0.1-0.3,0-0.6-0.1-0.9c-0.2-0.4-0.7-0.4-1.1-0.3
		c-0.1,0-0.2,0.1-0.2,0.2C307.5,542.2,307.5,542.7,307.5,543.2z"/>
	<path id="Path_595" class="st0" d="M339,543.9v2.2h-0.8v-5.5c0.7-0.1,1.5,0,2.2,0.2c0.6,0.2,0.9,0.8,0.9,1.4c0,0.6-0.3,1.2-0.8,1.5
		c-0.1,0.1-0.2,0.1-0.4,0.2c0.6,0.8,1.1,1.5,1.7,2.3c-0.6,0.1-1.1,0.1-1.4-0.5c-0.3-0.5-0.6-1-1-1.4
		C339.2,544.1,339.1,544,339,543.9C339,543.9,339,543.9,339,543.9z M339,543.2c0.3,0,0.5,0,0.8-0.1c0.4-0.1,0.6-0.3,0.7-0.7
		c0-0.5-0.4-1-0.9-1c-0.1,0-0.3,0-0.4,0.1c-0.1,0-0.1,0.1-0.1,0.2C339,542.2,339,542.7,339,543.2L339,543.2z"/>
	<path id="Path_596" class="st0" d="M345.4,540.3c0.9,2,1.8,3.9,2.7,5.9c-0.3,0-0.5,0-0.8,0c-0.1,0-0.2-0.1-0.2-0.2
		c-0.1-0.2-0.2-0.4-0.3-0.6c-0.1-0.5-0.4-0.6-0.9-0.6c-0.5,0-1,0-1.4,0c-0.2,0-0.4,0.1-0.4,0.3c-0.1,0.2-0.2,0.3-0.2,0.5
		c-0.3,0.7-0.3,0.7-1.2,0.5C343.6,544.2,344.5,542.3,345.4,540.3z M346.2,544.1c-0.3-0.6-0.5-1.2-0.8-1.8c-0.3,0.7-0.6,1.2-0.8,1.8
		H346.2z"/>
	<path id="Path_597" class="st0" d="M299.8,546.2c0.9-1.9,1.8-3.9,2.7-5.9c0.9,2,1.8,3.9,2.7,5.9c-0.2,0-0.5,0-0.7,0
		c-0.1,0-0.2-0.1-0.3-0.2c-0.1-0.3-0.3-0.5-0.3-0.8c0-0.2-0.3-0.4-0.5-0.3c-0.6,0-1.2,0-1.7,0c-0.2,0-0.4,0.1-0.4,0.3
		c-0.1,0.2-0.2,0.3-0.2,0.5C300.7,546.3,300.7,546.3,299.8,546.2z M302.5,542.2c-0.3,0.7-0.6,1.2-0.8,1.8h1.6
		C303.1,543.4,302.8,542.9,302.5,542.2z"/>
	<path id="Path_598" class="st0" d="M243.5,546.2c0,0-0.1,0-0.1,0c-0.8,0-0.8,0.1-1-0.6c-0.1-0.5-0.6-0.8-1.1-0.7c0,0-0.1,0-0.1,0
		c-0.4,0.1-0.9,0-1.3,0c-0.2,0-0.3,0.1-0.4,0.2c-0.1,0.2-0.2,0.3-0.2,0.5c-0.3,0.7-0.3,0.7-1.2,0.6c0.9-1.9,1.8-3.9,2.7-5.9
		C241.7,542.3,242.6,544.2,243.5,546.2z M241.6,544.1c-0.3-0.6-0.5-1.2-0.8-1.8c-0.3,0.7-0.6,1.2-0.8,1.8H241.6z"/>
	<path id="Path_599" class="st0" d="M292.5,546.2v-5.5h3v0.8h-2.1v1.3h2.1v0.8h-2.1v1.8h2.1v0.8L292.5,546.2z"/>
	<path id="Path_600" class="st0" d="M357.8,545.4v0.8h-3v-5.5h3v0.8c-0.6,0-1.1,0-1.7,0c-0.4,0-0.5,0.1-0.5,0.5c0,0.3,0,0.5,0,0.8
		h2.1v0.8h-2.1c0,0.6,0,1.1,0,1.7c0,0.1,0.2,0.2,0.3,0.2C356.5,545.4,357.1,545.4,357.8,545.4z"/>
	<path id="Path_601" class="st0" d="M225.9,542.8h2.1v0.8h-2.1v1.8h2.2v0.8h-3v-5.5h3v0.8h-2.2C225.9,541.9,225.9,542.3,225.9,542.8
		z"/>
	<path id="Path_602" class="st0" d="M218.4,541.5c-0.2,0.1-0.4,0.3-0.7,0.4c-0.1-0.1-0.1-0.2-0.2-0.2c-0.2-0.3-0.7-0.4-1-0.2
		c-0.2,0.1-0.3,0.3-0.4,0.5c0,0.2,0.1,0.4,0.3,0.5c0.4,0.2,0.8,0.4,1.2,0.6c0.7,0.3,1.1,1.2,0.8,1.9c-0.2,0.8-1,1.4-1.9,1.3
		c-0.9-0.1-1.6-0.8-1.6-1.6c0.3-0.1,0.5-0.1,0.8-0.2c0,0.1,0.1,0.3,0.1,0.4c0.1,0.4,0.5,0.6,0.9,0.6c0.4,0,0.7-0.2,0.8-0.6
		c0.2-0.4,0-0.8-0.3-1c-0.3-0.2-0.7-0.4-1-0.5c-0.6-0.2-1-0.7-1.1-1.3c-0.1-0.6,0.3-1.2,0.9-1.4c0.7-0.3,1.4-0.2,2,0.4
		C218.2,541.2,218.3,541.3,218.4,541.5z"/>
	<path id="Path_603" class="st0" d="M261,544.7c0.3-0.1,0.5-0.1,0.8-0.2c0,0.1,0.1,0.2,0.1,0.3c0.1,0.4,0.5,0.7,0.9,0.7
		c0.4,0,0.8-0.3,0.9-0.6c0.1-0.4,0-0.8-0.4-1c-0.2-0.2-0.5-0.2-0.8-0.4c-0.3-0.1-0.5-0.3-0.7-0.4c-0.6-0.4-0.7-1.3-0.2-1.9
		c0-0.1,0.1-0.1,0.1-0.2c0.7-0.7,1.8-0.7,2.4,0c0.1,0.1,0.2,0.3,0.3,0.4c-0.2,0.1-0.4,0.2-0.6,0.4c-0.1-0.1-0.1-0.1-0.2-0.2
		c-0.2-0.3-0.7-0.4-1-0.2c-0.2,0.1-0.3,0.3-0.4,0.5c0,0.2,0.1,0.4,0.3,0.6c0.4,0.2,0.8,0.4,1.2,0.6c0.7,0.3,1.1,1.2,0.8,2
		c-0.2,0.8-1.1,1.4-1.9,1.2C261.6,546.2,261,545.5,261,544.7z"/>
	<path id="Path_604" class="st0" d="M251.5,544.7c0.3-0.1,0.5-0.1,0.8-0.2c0,0.1,0.1,0.3,0.1,0.4c0.1,0.4,0.5,0.7,0.9,0.6
		c0.4,0,0.7-0.2,0.9-0.6c0.2-0.4,0-0.8-0.4-1c-0.3-0.2-0.7-0.3-1.1-0.5c-0.5-0.2-0.9-0.6-1-1.2c-0.1-0.6,0.2-1.1,0.8-1.4
		c0.6-0.4,1.3-0.3,1.9,0.1c0.2,0.2,0.4,0.4,0.6,0.6c-0.3,0.2-0.5,0.3-0.7,0.4c0-0.1,0-0.1,0-0.1c-0.3-0.2-0.6-0.3-1-0.4
		c-0.3,0-0.6,0.2-0.7,0.5c-0.1,0.4,0.2,0.6,0.4,0.7c0.3,0.2,0.7,0.3,1.1,0.5c0.8,0.3,1.2,1.3,0.9,2.1c-0.3,0.8-1.1,1.3-1.9,1.2
		C252.2,546.2,251.6,545.5,251.5,544.7z"/>
	<path id="Path_605" class="st0" d="M234,541.9c-1.3-0.8-2.2-0.7-3,0.1c-0.7,0.8-0.7,1.9-0.1,2.7c0.4,0.5,0.9,0.8,1.5,0.8
		c0.6,0,1.2-0.2,1.6-0.6c0,0.3,0,0.6,0,0.8c0,0.1-0.1,0.2-0.2,0.3c-1.4,0.7-3.1,0.2-3.9-1.3c-0.5-1-0.4-2.2,0.3-3.1
		c0.8-1.1,2.3-1.4,3.5-0.8c0.1,0.1,0.2,0.2,0.2,0.4C234,541.4,234,541.7,234,541.9z"/>
	<path id="Path_606" class="st0" d="M350.9,544.5c0.3-0.8,0.7-1.6,1-2.4c0.1-0.3,0.3-0.6,0.4-1c0-0.3,0.3-0.5,0.6-0.4c0,0,0,0,0.1,0
		c0.2,0,0.3,0,0.5,0c-0.8,2-1.6,3.9-2.5,6c-0.8-2-1.6-4-2.4-5.9c0.7-0.2,0.9-0.1,1.1,0.5c0.4,0.9,0.8,1.9,1.1,2.8
		C350.7,544.2,350.8,544.3,350.9,544.5z"/>
	<path id="Path_607" class="st0" d="M221.1,546.2h-0.8v-5.6c0.7,0,1.4,0.1,2.1,0.2c0.7,0.2,1.1,0.9,1,1.6c0,0.7-0.6,1.3-1.3,1.4
		c-0.1,0-0.2,0-0.4,0c-0.6,0-0.6,0-0.6,0.6L221.1,546.2z M221.2,543.2c0.5,0,1,0,1.3-0.4c0.2-0.3,0.2-0.6,0-0.9
		c-0.3-0.4-0.8-0.4-1.3-0.4L221.2,543.2z"/>
	<path id="Path_608" class="st0" d="M327.2,546.2h-0.8v-5.5h2.7v0.8h-1.9v1.3h1.8v0.8h-1.8C327.2,544.5,327.2,545.3,327.2,546.2z"/>
	<path id="Path_609" class="st0" d="M334.5,541.5h-1.3v-0.8h3.3v0.8h-1.2v4.7h-0.9V541.5z"/>
	<path id="Path_610" class="st0" d="M283.7,546.2h-0.9v-4.7h-1.3v-0.8h3.3v0.8h-1.2L283.7,546.2z"/>
	<path id="Path_611" class="st0" d="M258.5,546.2h-0.8c0-0.2,0-0.3,0-0.5c0-1.3,0-2.5,0-3.8c0-0.3-0.1-0.5-0.4-0.5
		c-0.3,0-0.5,0-0.8,0v-0.8h3.3v0.8h-1.2C258.5,543.1,258.5,544.6,258.5,546.2z"/>
	<path id="Path_612" class="st0" d="M313.3,546.2h-0.8v-4.7h-1.3v-0.8h3.3v0.8c-0.3,0-0.5,0-0.8,0c-0.4,0-0.5,0.1-0.5,0.5
		c0,1.3,0,2.5,0,3.8L313.3,546.2z"/>
	<path id="Path_613" class="st0" d="M244.9,546.2v-5.5h0.8v4.7h1.6v0.8L244.9,546.2z"/>
	<path id="Path_614" class="st0" d="M360.5,540.7v3.2c0,0.4,0,0.8,0,1.2c0,0.3,0.1,0.3,0.3,0.3c0.4,0,0.8,0,1.3,0v0.8h-2.4v-5.5
		C359.9,540.7,360.2,540.7,360.5,540.7z"/>
	<path id="Path_615" class="st0" d="M270.1,546.2h-0.8v-5.5h0.8V546.2z"/>
	<path id="Path_616" class="st0" d="M235.8,540.7h0.8v5.5h-0.8V540.7z"/>
	<path id="Path_617" class="st0" d="M249.7,546.2h-0.8v-5.5h0.8V546.2z"/>
</g>
</svg>
