<svg xmlns="http://www.w3.org/2000/svg" width="947.269" height="377.662" viewBox="0 0 947.269 377.662" class="">
  <g id="Group_3" data-name="Group 3" transform="translate(-187.102 -194.908)">
    <g id="Group_2" data-name="Group 2">
      <path id="Path_3" data-name="Path 3" d="M430.02,451.951a17.843,17.843,0,0,0-12.232-4.277,19.964,19.964,0,0,0-8.957,1.936,6.417,6.417,0,0,0-3.918,6.139,5.257,5.257,0,0,0,1.874,4.339,6.65,6.65,0,0,0,4.327,1.515,6.9,6.9,0,0,0,4.624-1.635,5.158,5.158,0,0,0,1.931-4.094,6.355,6.355,0,0,0-.877-3.1,5.242,5.242,0,0,0-2.4-2.284c.388-.706,1.561-1.053,3.508-1.053a14.206,14.206,0,0,1,9.544,3.456,10.614,10.614,0,0,1,4.037,8.365,9.152,9.152,0,0,1-2.226,5.968q-2.221,2.7-7.841,5.267a82.335,82.335,0,0,1-8.542,3.286q-4.689,1.512-11.708,3.508l-8.314,2.46q-8.071,2.81-12.117,6.964a13.981,13.981,0,0,0-4.038,10.125q0,6.79,4.391,10.244a15.933,15.933,0,0,0,10.13,3.457,17.824,17.824,0,0,0,9.6-2.694,8.311,8.311,0,0,0,4.334-7.38,6.328,6.328,0,0,0-1.7-4.567,6,6,0,0,0-4.51-1.754,6.639,6.639,0,0,0-4.624,1.64,5.705,5.705,0,0,0-1.817,4.448,5.083,5.083,0,0,0,1.64,4.094A8.455,8.455,0,0,0,398,508.194c-.233.781-1.127,1.413-2.688,1.88a15.216,15.216,0,0,1-4.327.7,12.027,12.027,0,0,1-7.323-2.58,8.063,8.063,0,0,1-3.451-6.782A7.612,7.612,0,0,1,382.9,495.5a24.57,24.57,0,0,1,7.613-4.271q4.33-1.64,13.462-4.453,6.909,2.7,9.367,7.494a20.661,20.661,0,0,1,2.454,9.481,16.861,16.861,0,0,1-4.151,11.3,26.7,26.7,0,0,1-11.241,7.494,43.884,43.884,0,0,1-15.4,2.631,41.17,41.17,0,0,1-16.036-2.984,25.523,25.523,0,0,1-11.241-8.718,22.109,22.109,0,0,1-4-11.19c-.063-.78-.1-1.577-.1-2.392q0-14.631,15.221-19.2c1.794.786,3.354,1.406,4.681,1.873a11.481,11.481,0,0,0,3.866.712,4.269,4.269,0,0,0,2.4-.592,1.853,1.853,0,0,0,.877-1.64,2.195,2.195,0,0,0-1.293-1.993,7.053,7.053,0,0,0-3.388-.7,43.69,43.69,0,0,0-7.26.7,17.462,17.462,0,0,1-5.968-13.337q0-6.56,3.747-10.244a13.4,13.4,0,0,1,9.828-3.69,13.975,13.975,0,0,1,5.917,1.116,5.37,5.37,0,0,1,2.984,2.625,6.805,6.805,0,0,0-4.453,2.056,6.083,6.083,0,0,0-1.754,4.39,5.366,5.366,0,0,0,1.816,4.266,6.283,6.283,0,0,0,4.277,1.588,6.8,6.8,0,0,0,4.561-1.7,5.631,5.631,0,0,0,1.993-4.51,9.137,9.137,0,0,0-1.116-4.152,12.738,12.738,0,0,0-3.217-3.923q-4.339-3.51-12.175-3.508a25.685,25.685,0,0,0-10.711,2.05,15.961,15.961,0,0,0-6.788,5.381,12.472,12.472,0,0,0-2.289,7.2,14.1,14.1,0,0,0,3.046,8.542,20.827,20.827,0,0,0,8.781,6.56,37.833,37.833,0,0,0-9.128,3.8,27.048,27.048,0,0,0-8.724,8.074,21.874,21.874,0,0,0-3.8,13.058,24.326,24.326,0,0,0,5.148,15.392A32.911,32.911,0,0,0,364.58,530.26a49.322,49.322,0,0,0,18.911,3.571,42.945,42.945,0,0,0,18.957-3.918,30.72,30.72,0,0,0,12.413-10.358,24.114,24.114,0,0,0,4.328-13.7,22.837,22.837,0,0,0-3.1-11.879,19.939,19.939,0,0,0-9.657-8.017q12.872-3.981,17.322-6.088a21.465,21.465,0,0,0,8.08-6.617,16.1,16.1,0,0,0,3.041-9.777Q434.877,456.225,430.02,451.951Z" fill="#fff"></path>
      <path id="Path_4" data-name="Path 4" d="M526.194,390.13c-11.139-13.6-25.383-23.437-47.512-29.849-.553-.143-2.178-.55-3.628-.9-2.739-.649-3.316-.825-6.215-1.389-4.458-1.054-9.133-1.976-14.059-2.773l-.2-.017v-.536q38.257-11.607,55.953-33.893a78.969,78.969,0,0,0,17.676-50.39q0-34.4-26.394-55.23c-17.618-13.883-42.161-20.244-75.1-20.244-7.756,0-2.505.057-8.61,0l-65.417.376L231.524,427.343c-15.745,24.276-24.412,41.7-44.422,41.7v9.589c9.584-.962,23.33-.325,37.709-.325,16.365,0,31.23.052,47.041.052,7.822,0,10.615,5.244,13.792,9.6,15.694,21.531,29.554,57.588,72.781,74.085v.017c15.568,6.9,43.978,12,64.671,10.113,36.575-3.325,54.769-11,71.488-19.987s30.983-26.36,39.975-42.492q13.461-24.182,13.467-55.526Q548.026,416.792,526.194,390.13ZM391.15,245.19q0-17.433,2.9-26.16t10.421-12.124q7.508-3.374,22.532-3.388c23.889,0,31.132,7.323,39.366,17.79,9.9,12.59,15.335,30.169,15.335,54.4q0,35.857-15.745,57.406c-10.495,14.372-15.882,21.547-42.349,21.547h-2.4v-.005H391.15Zm-36.438-19.2V354.66H285.758Zm55.742,330.487c-.654,0-1.412.006-2.243.012-90.6-4.186-81.225-83.161-75.656-88.731-7.289.023-44.678.188-66.722.188-5.726,0-7.952-2.4-11.526-5.207-6.443-5.07-7.767-11.91-7.767-21.813,0-12.755,5.057-21.992,13.286-37.873l21.485-40.089h73.4v80.143c15.881-6.042,22.584-6.212,36.438-4.664V363.463h29.258q43.2,0,62.941,22.544t19.748,65.97C503.1,516.114,468.361,556.481,410.454,556.481Z" fill="#fff"></path>
    </g>
    <path id="Path_5" data-name="Path 5" d="M621.776,487.109V505.46h-2.491v-7.914H610v7.914h-2.491V487.109H610v7.92h9.281v-7.92Z" fill="#fff"></path>
    <path id="Path_6" data-name="Path 6" d="M638.874,486.925c2.778,6.216,5.479,12.324,8.257,18.535h-2.752l-1.622-3.617H634.31c-.5,1.126-1.125,2.466-1.621,3.617h-2.727l8.155-18.535Zm2.752,12.4-3.121-7-3.09,7Z" fill="#fff"></path>
    <path id="Path_7" data-name="Path 7" d="M665.932,505.46H655.47V487.109h2.492v15.834h7.97Z" fill="#fff"></path>
    <path id="Path_8" data-name="Path 8" d="M685.393,505.46H674.931V487.109h2.492v15.834h7.97Z" fill="#fff"></path>
    <path id="Path_9" data-name="Path 9" d="M714.928,486.925V505.46h-2.492V491.749l-7.812,7.761-7.786-7.761V505.46h-2.517V486.925H695.5l9.121,9.045,9.127-9.045Z" fill="#fff"></path>
    <path id="Path_10" data-name="Path 10" d="M732.015,486.925c2.778,6.216,5.479,12.324,8.257,18.535H737.52l-1.622-3.617h-8.446c-.5,1.126-1.126,2.466-1.622,3.617H723.1l8.155-18.535Zm2.753,12.4-3.121-7-3.09,7Z" fill="#fff"></path>
    <path id="Path_11" data-name="Path 11" d="M762.962,505.46h-3.095l-5.377-7.525h-3.407v7.525h-2.492V487.109h7.29a5.461,5.461,0,0,1,5.4,5.4,5.742,5.742,0,0,1-3.858,5.243Zm-7.812-10.043c2.461,0,3.617-1.284,3.617-2.9,0-1.576-1.156-2.886-3.617-2.886h-4.067v5.791Z" fill="#fff"></path>
    <path id="Path_12" data-name="Path 12" d="M777.987,495.6l8.232,9.858h-3.274l-6.687-7.971-1.811,2.047v5.924h-2.491V487.109h2.491v8.626l7.736-8.626h3.407Z" fill="#fff"></path>
    <path id="Path_13" data-name="Path 13" d="M804.984,496.2a9.478,9.478,0,1,1,9.465,9.439A9.484,9.484,0,0,1,804.984,496.2Zm2.543,0a6.922,6.922,0,0,0,13.844,0,6.922,6.922,0,1,0-13.844,0Z" fill="#fff"></path>
    <path id="Path_14" data-name="Path 14" d="M835.082,489.626v5.4h6.4v2.517h-6.4v7.914H832.59V487.109h11.276v2.517Z" fill="#fff"></path>
    <path id="Path_15" data-name="Path 15" d="M874.828,505.46H864.366V487.109h2.491v15.834h7.971Z" fill="#fff"></path>
    <path id="Path_16" data-name="Path 16" d="M883.407,498.671V487.109H885.9v11.035c0,3.07,2.148,4.983,4.456,4.983,2.333,0,4.456-1.913,4.456-4.983V487.109h2.517v11.562a6.961,6.961,0,1,1-13.921,0Z" fill="#fff"></path>
    <path id="Path_17" data-name="Path 17" d="M915.843,496.021l6.794,9.439h-3.1l-5.269-7.285-5.244,7.285h-3.146l6.845-9.439-6.426-8.912h3.121l4.85,6.738,4.875-6.738h3.121Z" fill="#fff"></path>
    <path id="Path_18" data-name="Path 18" d="M931.211,498.671V487.109H933.7v11.035c0,3.07,2.149,4.983,4.456,4.983,2.333,0,4.456-1.913,4.456-4.983V487.109h2.518v11.562a6.961,6.961,0,1,1-13.921,0Z" fill="#fff"></path>
    <path id="Path_19" data-name="Path 19" d="M969.576,505.46h-3.1l-5.376-7.525H957.7v7.525h-2.491V487.109h7.29a5.461,5.461,0,0,1,5.4,5.4,5.742,5.742,0,0,1-3.858,5.243Zm-7.812-10.043c2.46,0,3.617-1.284,3.617-2.9,0-1.576-1.157-2.886-3.617-2.886H957.7v5.791Z" fill="#fff"></path>
    <path id="Path_20" data-name="Path 20" d="M992.623,487.109l-6.712,9.306v9.045h-2.517v-9.045c-2.226-3.039-4.482-6.241-6.712-9.306h3.12l4.85,6.738,4.85-6.738Z" fill="#fff"></path>
    <path id="Path_21" data-name="Path 21" d="M1024.711,489.626h-5.429V505.46h-2.542V489.626h-5.454v-2.517h13.425Z" fill="#fff"></path>
    <path id="Path_22" data-name="Path 22" d="M1047.865,505.46h-3.095l-5.377-7.525h-3.407v7.525h-2.491V487.109h7.29a5.46,5.46,0,0,1,5.4,5.4,5.741,5.741,0,0,1-3.857,5.243Zm-7.817-10.043c2.466,0,3.622-1.284,3.622-2.9,0-1.576-1.156-2.886-3.622-2.886h-4.062v5.791Z" fill="#fff"></path>
    <path id="Path_23" data-name="Path 23" d="M1063.756,486.925c2.778,6.216,5.479,12.324,8.257,18.535h-2.753l-1.621-3.617h-8.447c-.5,1.126-1.125,2.466-1.622,3.617h-2.726L1063,486.925Zm2.752,12.4-3.121-7-3.09,7Z" fill="#fff"></path>
    <path id="Path_24" data-name="Path 24" d="M1084.475,505.644c-2.778-6.21-5.479-12.324-8.257-18.535h2.727l5.873,13.133,5.817-13.133h2.752l-8.175,18.535Z" fill="#fff"></path>
    <path id="Path_25" data-name="Path 25" d="M1104.223,489.626v5.4h6.4v2.517h-6.4v5.4h8.784v2.517h-11.275V487.109h11.275v2.517Z" fill="#fff"></path>
    <path id="Path_26" data-name="Path 26" d="M1132.832,505.46h-10.463V487.109h2.492v15.834h7.971Z" fill="#fff"></path>
    <path id="Path_27" data-name="Path 27" d="M639.419,257.963c11.116,24.852,21.925,49.295,33.061,74.168H661.446l-6.49-14.473h-33.8c-1.985,4.5-4.5,9.846-6.489,14.473H603.758l32.611-74.168Zm11.013,49.623L637.945,279.56,625.58,307.586Z" fill="#fff"></path>
    <path id="Path_28" data-name="Path 28" d="M695.264,332.131V258.68h24.545c21.72,0,35.579,15.108,35.579,36.828,0,20.573-13.859,36.623-35.579,36.623Zm9.97-10.072h14.575c14.6,0,25.4-11.648,25.4-26.551,0-14.781-10.706-26.634-25.4-26.634H705.234Z" fill="#fff"></path>
    <path id="Path_29" data-name="Path 29" d="M805.338,257.963c11.116,24.852,21.925,49.295,33.041,74.168H827.365l-6.489-14.473h-33.8c-1.986,4.5-4.5,9.846-6.489,14.473H769.677l32.632-74.168Zm11.014,49.623L803.864,279.56,791.5,307.586Z" fill="#fff"></path>
    <path id="Path_30" data-name="Path 30" d="M943.417,257.963v74.168h-9.969V277.268l-31.26,31.055-31.157-31.055v54.863H860.959V257.963h4.729l36.5,36.193,36.521-36.193Z" fill="#fff"></path>
    <path id="Path_31" data-name="Path 31" d="M973.837,327.729a33.2,33.2,0,0,1-5.977-4.933l7.451-6.817c2.846,2.62,10.072,6.817,16.275,6.817,6.387,0,13.838-2.825,13.838-11.116,0-3.685-1.985-7.452-15.64-12.488-11.955-4.3-20.348-9.764-20.348-21.085,0-11.443,9.028-20.144,22.457-20.144a38.771,38.771,0,0,1,20.348,6.613l-6.407,7.758s-7.124-4.3-13.429-4.3c-7.861,0-12.8,3.665-12.8,9.97,0,6.182,6.51,9.007,13.859,11.525,16.787,6.2,22.13,12.59,22.13,22.252,0,11.751-10.175,21.086-24.013,21.086A32.415,32.415,0,0,1,973.837,327.729Z" fill="#fff"></path>
    <path id="Path_32" data-name="Path 32" d="M1132.49,332.131h-12.263l-7.881-9.765c-7.656,7.042-14.8,10.5-21.822,10.5-12.386,0-21.823-8.394-21.823-20.144,0-7.145,4.094-14.269,10.379-18.793l6.305-4.708c-4.729-5.241-7.451-10.911-7.451-15.006,0-9.539,6.714-16.254,16.888-16.254,9.438,0,17.114,6.817,17.114,15.313,0,6.612-3.991,11.013-12.917,17.933l14.269,17.318,10.706-10.911,6.08,6.08-11.014,12.058Zm-41.434-35.661c-11.116,7.656-13.02,10.686-13.02,16.049,0,6.49,5.261,11.526,12.078,11.526,4.811,0,10.174-2.825,16.459-8.8Zm2.722-12.078c6.51-4.934,8.8-7.452,8.8-11.321,0-4.422-3.132-7.042-7.963-7.042-3.665,0-7.554,1.9-7.554,6.715C1087.064,274.954,1087.6,277.145,1093.778,284.392Z" fill="#fff"></path>
    <path id="Path_33" data-name="Path 33" d="M643.949,412.838c8.572,2.683,12.505,9.924,12.505,15.712,0,10.125-5.486,20.775-23.578,20.775H604.034V376.947h28.54c11.577,0,21.077,8.8,21.077,18.626,0,5.063-2.158,11.477-9.823,15.188Zm-29.992-5.587h16.761c7.12,0,11.981-3.832,11.981-9.721,0-5.789-4.861-10.65-11.981-10.65H613.957Zm31.525,21.3c0-5.788-2.985-11.274-14.663-11.274H613.957V439.4h16.862C641.146,439.4,645.482,434.339,645.482,428.55Z" fill="#fff"></path>
    <path id="Path_34" data-name="Path 34" d="M701.412,422.56V376.947h9.823v43.536c0,12.1,8.471,19.645,17.567,19.645,9.2,0,17.568-7.544,17.568-19.645V376.947h9.923V422.56c0,16.015-11.254,27.491-27.491,27.491C712.687,450.051,701.412,438.575,701.412,422.56Z" fill="#fff"></path>
    <path id="Path_35" data-name="Path 35" d="M853.47,386.88h-21.4v62.445H822.046V386.88h-21.5v-9.933H853.47Z" fill="#fff"></path>
    <path id="Path_36" data-name="Path 36" d="M940.32,449.325H899.073V376.947H908.9V439.4H940.32Z" fill="#fff"></path>
    <path id="Path_37" data-name="Path 37" d="M995.947,386.88v21.3h25.232V418.1H995.947v21.3h34.631v9.923H986.125V376.947h44.453v9.933Z" fill="#fff"></path>
    <path id="Path_38" data-name="Path 38" d="M1134.371,449.325h-12.2l-21.2-29.669h-13.433v29.669h-9.823V376.947h28.742a21.55,21.55,0,0,1,21.3,21.309c0,9.2-6.414,17.467-15.208,20.673Zm-30.8-39.593c9.7,0,14.26-5.062,14.26-11.476,0-6.192-4.559-11.376-14.26-11.376h-16.035v22.852Z" fill="#fff"></path>
  </g>
</svg>