<?xml version="1.0" encoding="utf-8"?>
<!-- Generator: Adobe Illustrator 24.2.1, SVG Export Plug-In . SVG Version: 6.00 Build 0)  -->
<svg version="1.1" id="Layer_1" xmlns="http://www.w3.org/2000/svg" xmlns:xlink="http://www.w3.org/1999/xlink" x="0px" y="0px"
	 viewBox="0 0 54 84.4" style="enable-background:new 0 0 54 84.4;" xml:space="preserve">
<style type="text/css">
	.st0{opacity:0.2;fill:#FFFFFF;enable-background:new    ;}
	.st1{fill:#FFFFFF;}
</style>
<g id="Layer_2_1_" transform="translate(0)">
	<g id="Layer_1_1_" transform="translate(0 0)">
		<path id="Path_949" class="st0" d="M2.1,81.5h48.2c0.4,0,0.9,0,1.3,0c0.2,0,0.3-0.1,0.3-0.3c0-0.1,0-0.2,0-0.3V40.3
			c0-0.1,0-0.3,0-0.4c0.3,0.1,0.5,0.1,0.8,0.1c0.8,0.1,1.3,0.8,1.3,1.6c0,5.9,0,11.8,0,17.8v23.6c0.1,0.6-0.2,1.1-0.8,1.4
			c-0.3,0.1-0.6,0.1-0.9,0.1H3.7c-0.1,0-0.2,0-0.4,0c-0.7,0-1.3-0.6-1.2-1.3c0,0,0-0.1,0-0.1L2.1,81.5z"/>
		<path id="Path_950" class="st0" d="M19.7,31.7c4.5-0.3,9.1-0.2,13.6,0c2.6,0.1,5.1,0.3,7.6,0.5c3,0.3,6,0.6,9,1.1
			c0.6,0.1,1.2,0.2,1.7,0.3c0.2,0,0.3,0,0.3-0.2c0-0.1,0-0.2,0-0.3V2.2c0-0.1,0-0.3,0-0.4h0.7c0.7,0,1.3,0.5,1.4,1.2
			c0,0,0,0.1,0,0.1v30.7c0.1,0.5-0.1,0.9-0.5,1.2c-0.2,0.1-0.5,0.2-0.8,0.2c-1.6-0.2-3.2-0.4-4.7-0.5c-1.5-0.1-3-0.3-4.4-0.4
			c-1.4-0.1-2.9-0.3-4.3-0.4s-2.9-0.2-4.3-0.3c-2.9-0.2-5.8-0.3-8.6-0.2c-1.6,0-3.2,0.1-4.8,0.3c-0.8,0.1-1.7,0.1-2.5,0.2
			c-1.1,0.1-2.1,0.2-3.1,0.3c-0.9,0.1-1.8,0.1-2.7,0.2c-1.1,0.1-2.2,0.2-3.2,0.3c-0.8,0.1-1.5,0.2-2.3,0.2c-1,0.1-2,0.2-3,0.3
			c-0.4,0.1-0.9,0.1-1.3,0.2c-0.6,0-1.1-0.5-1.1-1.1c0-0.2,0-0.4,0-0.6c0-0.2-0.1-0.3-0.3-0.3l1.9-0.3C4.8,33.1,5.9,33,7,32.8
			c1-0.1,1.9-0.2,2.9-0.3c0.9-0.1,1.8-0.2,2.6-0.3c0.8-0.1,1.6-0.2,2.5-0.2c1.5-0.1,3-0.3,4.5-0.3C19.6,31.8,19.6,31.7,19.7,31.7z"
			/>
		<path id="Path_952" class="st1" d="M17,14.4C17,14.4,17,14.4,17,14.4C17,14.4,17,14.4,17,14.4L17,14.4z"/>
		<path id="Path_953" class="st1" d="M17.5,13.9L17.5,13.9C17.5,13.9,17.5,13.9,17.5,13.9C17.5,13.9,17.5,13.9,17.5,13.9z"/>
		<path id="Path_954" class="st1" d="M18.1,13.3L18.1,13.3C18.1,13.3,18.1,13.3,18.1,13.3C18.1,13.3,18.1,13.3,18.1,13.3z"/>
		<path id="Path_955" class="st1" d="M18.6,12.8C18.5,12.8,18.5,12.9,18.6,12.8C18.5,12.9,18.5,12.8,18.6,12.8z"/>
		<path id="Path_956" class="st1" d="M51.9,1.8c0-0.5,0-0.9,0-1.4c0-0.3-0.1-0.4-0.4-0.4c-2.1,0-4.2,0-6.3,0L45,0.2l0,0l-5.5,5.6
			c-3.2,3.2-6.3,6.3-9.5,9.5c-0.1,0.1-0.2,0.2-0.3,0.2c-0.1,0.1-0.2,0.2-0.3,0.3c-0.1,0.2-0.2,0.3-0.4,0.4c0,0.1-0.1,0.2-0.2,0.2
			c-0.1,0.1-0.2,0.2-0.3,0.3c-0.1,0.2-0.3,0.3-0.5,0.4c0,0.1-0.2,0.2-0.3,0.3l0,0c-0.1,0.1-0.2,0.2-0.3,0.3
			c-0.1,0.1-0.2,0.3-0.4,0.4l0,0l-0.4,0.4l0,0c0,0.1-0.2,0.2-0.3,0.3l0,0c-0.1,0.1-0.2,0.3-0.4,0.4l0,0c-0.1,0.2-0.3,0.3-0.4,0.4
			c-0.1,0.2-0.3,0.4-0.5,0.5c-0.1,0.2-0.3,0.4-0.5,0.5c-0.2,0.3-0.4,0.5-0.7,0.7l0,0c-0.2,0.2-0.3,0.4-0.6,0.6l0,0
			c-0.1,0.2-0.3,0.3-0.5,0.4c-0.1,0.2-0.4,0.3-0.5,0.5l0,0c-0.1,0.2-0.3,0.4-0.5,0.5l0,0c-0.1,0.1-0.2,0.2-0.3,0.3l0,0
			c-0.2,0.2-0.4,0.4-0.6,0.6c-0.1,0.2-0.3,0.4-0.5,0.5c-0.1,0.3-0.4,0.4-0.6,0.6l0,0c-0.1,0.1-0.2,0.2-0.3,0.3
			c-0.1,0.2-0.2,0.2-0.4,0.4l0,0c-0.1,0.1-0.2,0.2-0.3,0.3l0,0c-0.1,0.2-0.3,0.4-0.5,0.5c-0.1,0.2-0.3,0.3-0.4,0.4
			c-0.6,0.7-0.6,0.7-1.1,0c-0.2-0.3-0.2-0.5,0-0.7c0.1-0.1,0.2-0.2,0.3-0.3c0.1-0.1,0.2-0.3,0.4-0.4c0.1-0.2,0.3-0.4,0.5-0.5l0,0
			c0.1-0.1,0.2-0.3,0.4-0.4c0.1-0.1,0.2-0.3,0.4-0.4c0.1-0.1,0.2-0.2,0.3-0.3l0,0c0.2-0.2,0.4-0.4,0.6-0.6l0,0
			c0.1-0.2,0.3-0.4,0.5-0.5l0,0c0.1-0.2,0.3-0.4,0.5-0.5l0,0c0.1-0.1,0.2-0.3,0.4-0.4c0.1-0.2,0.3-0.3,0.4-0.4
			c0.1-0.2,0.3-0.4,0.5-0.5l0,0c0.1-0.2,0.3-0.4,0.5-0.5l0,0c0.1-0.2,0.3-0.4,0.5-0.5c0.2-0.2,0.4-0.5,0.7-0.7l0,0
			c0.2-0.2,0.4-0.4,0.6-0.6l0,0c0.1-0.2,0.3-0.4,0.5-0.5l0,0c0.1-0.2,0.3-0.3,0.4-0.4l0,0l0.3-0.3c0.1-0.1,0.2-0.3,0.4-0.4l0,0
			l0.4-0.4l0,0l0.3-0.3l0,0c0.1-0.1,0.2-0.3,0.4-0.4l0.3-0.3l0.4-0.4c0.1-0.1,0.2-0.2,0.3-0.3l0.3-0.3c0.1-0.1,0.2-0.2,0.3-0.3l0,0
			l0.3-0.3l4.2-4.3C36.5,6.9,40,3.5,43.4,0.1c0,0,0,0,0-0.1l0,0l-1.3,0l0,0l-0.2,0.1l-4.9,5c-2.8,2.8-5.7,5.7-8.5,8.5
			c-0.1,0.1-0.2,0.2-0.3,0.2c-0.1,0.1-0.2,0.2-0.3,0.3c-0.1,0.1-0.2,0.2-0.3,0.3c-0.1,0.1-0.2,0.2-0.3,0.3c-0.1,0.1-0.2,0.2-0.3,0.3
			c-0.1,0.2-0.3,0.3-0.5,0.4c-0.1,0.2-0.3,0.3-0.4,0.4c-0.2,0.2-0.4,0.4-0.6,0.6l0,0c-0.1,0.2-0.3,0.3-0.4,0.4l0,0
			c-0.1,0.2-0.3,0.3-0.5,0.4l0,0c-0.1,0.2-0.3,0.3-0.4,0.4c-0.2,0.2-0.4,0.4-0.6,0.6l0,0c-0.1,0.2-0.3,0.4-0.5,0.5l0,0
			c-0.2,0.2-0.3,0.4-0.6,0.6l0,0c-0.1,0.2-0.4,0.3-0.5,0.5c-0.2,0.2-0.4,0.4-0.6,0.6c-0.1,0.2-0.4,0.3-0.5,0.5
			c-0.2,0.2-0.4,0.4-0.6,0.6c-0.1,0.3-0.4,0.4-0.6,0.6c-0.2,0.3-0.4,0.5-0.7,0.7l0,0c-0.2,0.2-0.4,0.4-0.6,0.6l0,0
			c-0.1,0.1-0.2,0.3-0.4,0.4c-0.1,0.2-0.3,0.4-0.5,0.5c-0.2,0.2-0.4,0.4-0.6,0.6l0,0c-0.1,0.2-0.3,0.3-0.4,0.4c0,0,0,0,0,0.1
			c-0.6,0.7-0.7,0.7-1.3,0c-0.1-0.2-0.2-0.3,0-0.5c0.1-0.1,0.3-0.2,0.4-0.4c0.1-0.2,0.3-0.4,0.5-0.5c0.1-0.2,0.3-0.4,0.5-0.5l0,0
			c0.1-0.2,0.3-0.4,0.5-0.5l0,0c0.1-0.1,0.2-0.3,0.4-0.4l0,0c0.2-0.2,0.4-0.5,0.7-0.7c0.2-0.2,0.4-0.5,0.7-0.7l0,0
			c0.2-0.2,0.4-0.4,0.6-0.6l0,0c0.1-0.2,0.3-0.4,0.5-0.5l0,0c0.2-0.2,0.4-0.4,0.6-0.6l0,0c0.1-0.2,0.3-0.4,0.5-0.5l0,0
			c0.1-0.2,0.3-0.4,0.5-0.5l0,0c0.2-0.2,0.4-0.4,0.6-0.6l0,0l0.5-0.5l0.6-0.6l0,0c0.1-0.1,0.3-0.3,0.4-0.4l0,0
			c0.1-0.2,0.3-0.3,0.4-0.4c0.1-0.2,0.3-0.3,0.4-0.4l0.5-0.5l0,0l0.5-0.5l0,0c0.1-0.2,0.3-0.3,0.4-0.4l0,0c0.1-0.1,0.2-0.2,0.3-0.3
			l0,0l0.3-0.3l0,0l0.3-0.3l0.4-0.4l5-5.1c2.5-2.5,5.1-5.1,7.6-7.6c0.1-0.1,0.1-0.1,0.2-0.2l0,0l0-0.1l-4.1,0l0,0L36,0.1l-7.2,7.3
			c-1.1,1.1-2.1,2.2-3.2,3.2c-0.1,0.1-0.2,0.2-0.3,0.3l0,0c-0.1,0.2-0.2,0.3-0.4,0.4c0,0.2-0.3,0.2-0.4,0.4
			c-0.1,0.2-0.3,0.3-0.4,0.4c-0.1,0.2-0.3,0.3-0.4,0.4c-0.1,0.2-0.3,0.4-0.5,0.5c-0.1,0.2-0.3,0.4-0.5,0.5l0,0
			c-0.1,0.2-0.2,0.3-0.4,0.4l0,0c-0.1,0.2-0.3,0.4-0.5,0.5c-0.1,0.2-0.4,0.3-0.5,0.5c-0.1,0.2-0.3,0.4-0.5,0.5l0,0
			c-0.1,0.2-0.3,0.3-0.5,0.4c-0.1,0.2-0.3,0.4-0.5,0.5l0,0L19.2,17l0,0l-0.4,0.4l0,0c-0.1,0.2-0.3,0.2-0.4,0.4l0,0
			c-0.1,0.2-0.4,0.3-0.5,0.5c-0.2,0.2-0.4,0.4-0.6,0.6c-0.2,0.2-0.4,0.4-0.6,0.6l0,0c-0.2,0.2-0.4,0.4-0.6,0.6l0,0
			c-0.2,0.2-0.4,0.4-0.6,0.6l0,0l-0.2,0.3l-0.2,0.2c-0.1,0.2-0.3,0.3-0.4,0.4s-0.4,0.2-0.4,0.4l0,0c-0.1,0.2-0.4,0.2-0.4,0.4l0,0
			c-0.1,0.2-0.4,0.2-0.4,0.4c-0.1,0.2-0.4,0.4-0.7,0.4c-0.4-0.2-0.6-0.6-0.4-1c0,0,0,0,0,0c0,0,0.1-0.1,0.1-0.1l0.5-0.5l0,0
			c0.2-0.1,0.3-0.3,0.4-0.4l0.4-0.4l0,0c0.2-0.1,0.3-0.3,0.4-0.4l0,0l0.2-0.2l0,0c0.1-0.1,0.2-0.2,0.3-0.3l0,0
			c0.2-0.2,0.4-0.5,0.6-0.6l0,0c0-0.1,0.1-0.2,0.2-0.2c0.1-0.2,0.3-0.3,0.4-0.4c0.3-0.2,0.4-0.5,0.7-0.7l0,0
			c0.2-0.1,0.2-0.3,0.4-0.4l0,0l0,0l0,0c0-0.1,0.1-0.2,0.2-0.2c0.2-0.1,0.2-0.3,0.4-0.4l0,0c0-0.1,0.1-0.2,0.2-0.2
			c0.2-0.1,0.2-0.3,0.4-0.4l0,0l0,0c0-0.1,0.1-0.2,0.2-0.2c0.1-0.2,0.3-0.3,0.4-0.4c0.1-0.2,0.3-0.3,0.4-0.4l0,0l0,0l0,0
			c0-0.1,0.1-0.2,0.2-0.2c0.1-0.2,0.3-0.3,0.4-0.4c0,0-0.1,0.1-0.1,0.1c0,0,0.1-0.1,0.1-0.1c0.2-0.2,0.4-0.4,0.6-0.6l0,0
			c0.1-0.2,0.3-0.4,0.5-0.5l0,0c0.1-0.2,0.3-0.3,0.4-0.4l0,0c0.2-0.2,0.4-0.4,0.6-0.6c0.1-0.2,0.3-0.3,0.4-0.4l0,0
			c0.1-0.2,0.3-0.3,0.4-0.4l0,0c0.1-0.2,0.3-0.3,0.4-0.4l0,0c0.1-0.2,0.3-0.3,0.4-0.4l0,0c0.1-0.2,0.3-0.3,0.4-0.4l0,0
			c0.4-0.5,0.9-0.9,1.3-1.3l0,0l4.1-4.1c1.5-1.5,3-3,4.5-4.5c0,0,0,0,0-0.1h-1.3l-0.2,0.2l0,0l-5.7,5.7C26.1,6.9,25.1,8,24,9.1
			c-0.1,0.1-0.2,0.2-0.4,0.3c0,0.1-0.2,0.2-0.3,0.3l0,0C23.3,9.8,23.2,9.9,23,10c0,0.1-0.1,0.2-0.2,0.2c-0.1,0.1-0.2,0.2-0.3,0.3
			l0,0c-0.1,0.2-0.3,0.3-0.5,0.4c0,0.2-0.2,0.2-0.3,0.3c-0.1,0.1-0.2,0.2-0.3,0.3c-0.1,0.2-0.3,0.4-0.5,0.5l0,0
			c-0.1,0.2-0.3,0.3-0.4,0.4c-0.1,0.2-0.3,0.3-0.4,0.4c-0.1,0.2-0.3,0.3-0.4,0.4c-0.1,0.2-0.4,0.3-0.5,0.5l0,0
			c-0.1,0.2-0.3,0.3-0.4,0.4l0,0c-0.1,0.2-0.3,0.4-0.5,0.5c-0.2,0.2-0.4,0.4-0.6,0.6L17,16.1l0,0c-0.2,0.2-0.4,0.4-0.6,0.6l0,0
			c-0.1,0.2-0.3,0.3-0.4,0.4l0,0c-0.1,0.1-0.2,0.3-0.4,0.4c-0.1,0.2-0.3,0.3-0.4,0.4c-0.1,0.2-0.4,0.3-0.5,0.5
			c-0.2,0.3-0.5,0.5-0.7,0.7l0,0c-0.1,0.2-0.3,0.4-0.5,0.5l0,0c-0.1,0.1-0.2,0.3-0.4,0.4c-0.1,0.2-0.3,0.3-0.4,0.4l0,0l-0.3,0.4l0,0
			c-0.1,0.1-0.3,0.3-0.4,0.4c-0.2,0.2-0.3,0.3-0.5,0c0,0,0,0,0,0c-0.6-0.6-0.6-0.7,0.1-1.3l0,0c0.1-0.1,0.2-0.3,0.4-0.4
			c0.1-0.2,0.3-0.3,0.4-0.4l0,0c0.1-0.1,0.2-0.3,0.4-0.4l0,0c0.1-0.2,0.3-0.4,0.5-0.5c0.2-0.2,0.4-0.5,0.7-0.7l0,0
			c0.2-0.2,0.4-0.5,0.7-0.7l0,0c0.1-0.2,0.3-0.3,0.4-0.4l0,0c0.1-0.2,0.3-0.3,0.4-0.4l0,0c0.1-0.2,0.3-0.3,0.4-0.4
			c0.2-0.2,0.4-0.5,0.7-0.7c0.2-0.2,0.4-0.5,0.7-0.7l0,0c0.1-0.2,0.3-0.4,0.5-0.5l0,0c0.2-0.2,0.4-0.4,0.6-0.6l0,0
			c0.1-0.2,0.3-0.3,0.4-0.4c0.1-0.2,0.3-0.3,0.4-0.4l0,0c0.1-0.2,0.3-0.3,0.4-0.4l0,0c0.2-0.2,0.4-0.4,0.6-0.6c0,0-0.1,0.1-0.1,0.1
			l0.1-0.1c0.1-0.2,0.3-0.3,0.4-0.4c0.1-0.2,0.3-0.3,0.4-0.4l0,0c0-0.1,0.1-0.2,0.2-0.2c0,0,0,0,0,0.1c0,0,0,0,0-0.1
			c0.1-0.2,0.3-0.3,0.4-0.4c0-0.1,0.1-0.2,0.2-0.2l0,0c0.1-0.2,0.3-0.3,0.4-0.4l0,0c0-0.1,0.1-0.2,0.2-0.2c0-0.1,0.1-0.2,0.2-0.2
			c1.1-1.1,2.2-2.2,3.3-3.3c1.8-1.8,3.5-3.5,5.3-5.3c0,0,0,0,0-0.1l0,0L0.5,0C-0.1,0,0-0.1,0,0.5v32.7c0,0.5,0,0.5,0.5,0.4
			c0.4-0.1,0.9-0.1,1.3-0.2c0.7,0,1.3-0.1,1.9-0.2c0.8-0.1,1.6-0.2,2.4-0.3c1.7-0.2,3.3-0.4,5-0.5c1.4-0.1,2.9-0.3,4.3-0.4
			c0.5,0,0.9,0,1.4-0.1c0.9-0.1,1.9-0.1,2.8-0.1c0.9-0.1,1.8-0.1,2.7-0.1c3.1,0,6.1-0.1,9.2,0c2,0.1,4.1,0.2,6.1,0.3
			c1.6,0.1,3.2,0.2,4.8,0.4c2.8,0.3,5.7,0.6,8.5,1.1c0.9,0.1,1,0.1,1-0.8V2.4C52,2.2,52,2,51.9,1.8z"/>
		<path id="Path_957" class="st1" d="M21.4,10c0-0.1,0.1-0.1,0.1-0.2C21.5,9.9,21.5,9.9,21.4,10z"/>
		<path id="Path_958" class="st1" d="M20.5,10.9c0,0-0.1,0.1-0.1,0.1C20.4,11,20.4,10.9,20.5,10.9z"/>
		<path id="Path_959" class="st1" d="M52,40.3c0-0.1,0-0.3-0.1-0.4c0-0.8,0-1.5,0-2.3c0-0.3-0.1-0.4-0.3-0.4
			c-2.8-0.4-5.6-0.8-8.4-1.1c-4.3-0.4-8.7-0.7-13-0.8C24,35.2,18,35.4,11.9,35.9c-3.8,0.4-7.7,0.8-11.5,1.5C0.1,37.5,0,37.6,0,37.9
			C0,52.3,0,66.7,0,81c0,0.1,0,0.1,0,0.2c0,0.2,0.1,0.3,0.3,0.3c0.6,0,1.2,0,1.8,0c0.2,0.1,0.5,0.2,0.8,0.1c16,0,32,0,48.1,0
			c1,0,1,0,1-1V40.8C52,40.6,52,40.4,52,40.3z M35.5,38.6c0.4-0.5,0.3-0.6,0.9-0.5c-0.2,0.2-0.5,0.4-0.7,0.6c-0.1,0.1-0.1,0.1-0.2,0
			C35.4,38.7,35.5,38.7,35.5,38.6L35.5,38.6z M34.9,39.1c0.2,0,0.3,0,0.3,0.2c0,0.4,0,0.9,0,1.3c0,0.3,0.1,0.5,0.4,0.5
			c0.3,0,0.5-0.2,0.5-0.6c0-0.4,0-0.8,0-1.2c0-0.3,0.1-0.3,0.3-0.3s0.3,0,0.3,0.3c0,0.3,0,0.7,0,1c0,0.3,0,0.6,0,0.8
			c0,0.1,0.1,0.3-0.1,0.3s-0.4,0.1-0.5,0c-0.1-0.2-0.2-0.1-0.3,0c-0.3,0.2-0.6,0.2-0.9,0.1c-0.3-0.1-0.4-0.3-0.4-0.6
			c0-0.5,0-1.1,0-1.6C34.5,39.1,34.7,39.1,34.9,39.1L34.9,39.1z M35.7,53.1c-0.2-0.3-0.6-0.5-0.9-0.3c-0.1,0-0.1,0.1-0.1,0.1
			c-0.1,0.1-0.1,0.2-0.3,0.1s0-0.2,0.1-0.3c0.3-0.3,0.8-0.4,1.3-0.3c0.4,0.1,0.6,0.5,0.6,0.9c0,0.2,0,0.4,0,0.7l0,0
			c0,0.2,0,0.4,0,0.6c0,0.1,0.1,0.3-0.1,0.3c-0.2,0-0.4,0.1-0.5-0.1c-0.1-0.1-0.1,0-0.2,0C35.4,54.9,35.2,55,35,55
			c-0.4,0-0.7-0.2-0.8-0.6c-0.1-0.4,0.1-0.7,0.4-0.9c0.3-0.2,0.6-0.2,0.9-0.1C35.9,53.4,35.8,53.3,35.7,53.1L35.7,53.1z M35.9,63.2
			c0,0.7-0.5,1.3-1.1,1.3c0,0-0.1,0-0.1,0c-0.7,0-1.2-0.5-1.2-1.1c0-0.1,0-0.1,0-0.2c0-0.7,0.5-1.3,1.2-1.3
			C35.3,61.9,35.8,62.4,35.9,63.2C35.9,63.2,35.9,63.2,35.9,63.2L35.9,63.2z M33.7,38.1c0.2,0,0.4,0.1,0.4,0.3
			c0,0.2-0.1,0.4-0.3,0.4c0,0,0,0,0,0c-0.2,0-0.4-0.1-0.4-0.3S33.5,38.1,33.7,38.1L33.7,38.1z M34,41.2c0,0.3-0.1,0.3-0.3,0.3
			s-0.3-0.1-0.3-0.3c0-0.3,0-0.6,0-0.9c0-0.3,0-0.6,0-0.8c0-0.2,0-0.4,0.3-0.4c0.3,0,0.3,0.1,0.3,0.3C34,40,34,40.6,34,41.2L34,41.2
			z M33.4,52.1c0,0.3,0,0.4,0.3,0.4c0.1,0,0.2,0,0.2,0.2c0,0.2-0.1,0.2-0.2,0.2c-0.3,0-0.3,0.1-0.3,0.3c0,0.3,0,0.6,0,0.9
			c0,0.4,0.1,0.5,0.5,0.6c0.1,0,0.1,0,0.2,0.1c0,0.1-0.1,0.1-0.1,0.1c-0.3,0.2-0.8,0.1-1-0.2c-0.1-0.1-0.1-0.3-0.1-0.4
			c0-0.2,0-0.4,0-0.5l0,0v-0.5c0-0.2,0-0.4-0.2-0.3c-0.1,0-0.1-0.1-0.1-0.2s0-0.2,0.1-0.2c0.3,0,0.3-0.2,0.2-0.4
			c0-0.3,0.1-0.3,0.3-0.3S33.4,51.9,33.4,52.1L33.4,52.1z M32.3,63.2c0-0.3,0-0.6,0-0.9c0-0.3,0.1-0.3,0.3-0.3c0.2,0,0.3,0,0.3,0.3
			c0,0.6,0,1.2,0,1.9c0,0.3-0.1,0.3-0.3,0.3s-0.4,0-0.3-0.3S32.3,63.5,32.3,63.2z M32.6,61.7c-0.2,0-0.4-0.1-0.3-0.3
			c0-0.2,0.2-0.3,0.3-0.3c0.2,0,0.3,0.2,0.3,0.3C33,61.5,32.8,61.7,32.6,61.7C32.6,61.7,32.6,61.7,32.6,61.7L32.6,61.7z M31,40.9
			c0.1-0.1,0.1,0,0.2,0.1c0.2,0.2,0.5,0.3,0.8,0.2c0.2,0,0.3-0.1,0.3-0.3c0-0.2-0.1-0.3-0.3-0.3c-0.2-0.1-0.4-0.1-0.6-0.2
			c-0.3-0.1-0.5-0.3-0.5-0.5c0-0.3,0.1-0.5,0.3-0.7c0.4-0.3,1-0.2,1.4,0.1c0.1,0.1,0.2,0.2,0.1,0.3s-0.2-0.1-0.2-0.1
			c-0.2-0.2-0.5-0.2-0.7-0.1c-0.1,0-0.2,0.1-0.2,0.3c0,0.1,0.1,0.2,0.2,0.3c0.1,0,0.3,0.1,0.4,0.1c0.5,0.1,0.7,0.4,0.7,0.8
			c0,0.4-0.4,0.7-0.8,0.7c-0.1,0-0.1,0-0.2,0c-0.4,0-0.7-0.1-0.9-0.5C31,41,30.9,40.9,31,40.9L31,40.9z M29.7,49.2c0-0.3,0-0.7,0-1
			c0-0.3,0.2-0.2,0.3-0.2s0.3,0,0.3,0.2c0,0.7,0,1.3,0,2c0,0.3-0.2,0.2-0.3,0.2s-0.3,0-0.3-0.2C29.7,49.9,29.7,49.5,29.7,49.2
			L29.7,49.2z M29.9,63.8c0.1-0.1,0.1,0,0.2,0.1c0.2,0.2,0.5,0.3,0.8,0.3c0.2,0,0.3-0.1,0.3-0.3c0-0.2-0.1-0.3-0.3-0.3
			s-0.4-0.1-0.5-0.1c-0.3-0.1-0.5-0.3-0.5-0.5c0-0.3,0.1-0.6,0.3-0.7c0.5-0.3,1.1-0.2,1.5,0.2c0,0.1,0.1,0.2,0.1,0.3
			c-0.1,0.1-0.2,0-0.2-0.1c-0.2-0.2-0.5-0.2-0.7-0.2c-0.1,0-0.2,0.1-0.3,0.3c0,0.1,0.1,0.3,0.2,0.3c0.1,0,0.3,0.1,0.4,0.1
			c0.5,0.1,0.7,0.4,0.7,0.7c0,0.4-0.3,0.7-0.7,0.8c-0.1,0-0.2,0-0.2,0c-0.4,0.1-0.8-0.1-1-0.5C29.9,63.9,29.9,63.8,29.9,63.8
			L29.9,63.8z M31.8,54.9c-0.2,0-0.3,0-0.3-0.3c0-0.4,0-0.9,0-1.3c0-0.4-0.2-0.6-0.4-0.5c-0.3,0-0.5,0.3-0.5,0.6c0,0,0,0,0,0
			c0,0.4,0,0.9,0,1.3c0,0.3-0.2,0.2-0.3,0.2s-0.3,0-0.3-0.2c0-0.9,0-1.9,0-2.8c0-0.3,0.1-0.2,0.3-0.3c0.2,0,0.3,0,0.3,0.3
			c0,0.3,0,0.5,0,0.9c0.2-0.1,0.3-0.2,0.4-0.2c0.4-0.2,0.8-0.1,1.1,0.3c0.1,0.1,0.1,0.3,0.1,0.4c0,0.5,0,1,0,1.4
			C32.1,54.9,32,54.9,31.8,54.9z M30,39.4c0-0.3,0.1-0.3,0.3-0.3s0.3,0,0.3,0.3c0,0.3,0,0.6,0,0.9s0,0.6,0,0.9
			c0,0.3-0.1,0.3-0.3,0.3s-0.3,0-0.3-0.3C30,40.6,30,40,30,39.4z M31.2,47.1c0.2,0,0.3,0,0.3,0.3c0,0.9,0,1.9,0,2.8
			c0,0.3-0.2,0.2-0.3,0.2s-0.3,0-0.3-0.2c0-0.5,0-0.9,0-1.4s0-0.9,0-1.4C30.9,47.1,31,47.1,31.2,47.1L31.2,47.1z M30.3,38.1
			c0.2,0,0.3,0.1,0.4,0.3c0,0.2-0.1,0.4-0.3,0.4c-0.2,0-0.4-0.1-0.4-0.3c0,0,0,0,0,0C29.9,38.2,30.1,38.1,30.3,38.1L30.3,38.1z
			 M30,47c0.2,0,0.3,0.1,0.3,0.3c0,0,0,0,0,0c0,0.2-0.1,0.3-0.4,0.3c-0.2,0-0.4-0.1-0.4-0.3S29.8,47,30,47C30,47,30,47,30,47L30,47z
			 M28.6,66.9c-0.1,0-0.2,0-0.4-0.1c-0.4,0-0.5,0.1-0.5,0.5c0,0.4,0,0.8,0,1.2c0,0.2-0.1,0.3-0.3,0.3c-0.2,0-0.4,0-0.4-0.3
			c0-0.6,0-1.2,0-1.9c0-0.1,0-0.3,0.1-0.3s0.4-0.1,0.5,0.1c0.1,0.1,0.1,0.2,0.2,0c0,0,0.1-0.1,0.1-0.1c0.2-0.1,0.4-0.1,0.6-0.1
			C28.7,66.5,28.5,66.7,28.6,66.9L28.6,66.9z M27.8,71.2c0-0.3,0.1-0.3,0.3-0.3c0.2,0,0.3,0.1,0.3,0.3c0,0.3,0,0.6,0,0.9
			s0,0.6,0,0.9c0,0.2-0.1,0.3-0.3,0.3s-0.3-0.1-0.3-0.3C27.8,72.4,27.8,71.8,27.8,71.2L27.8,71.2z M28.1,70.6
			c-0.2,0-0.3-0.1-0.3-0.3c0,0,0,0,0-0.1c0-0.2,0.1-0.3,0.3-0.3c0,0,0,0,0.1,0c0.2,0,0.3,0.1,0.3,0.3C28.4,70.5,28.3,70.6,28.1,70.6
			L28.1,70.6z M24,62.8c0-0.2-0.1-0.5-0.4-0.4c-0.2,0-0.4,0.1-0.5,0.4c0,0,0,0.1,0,0.1c0,0.4,0,0.9,0,1.3c0,0.3-0.1,0.3-0.3,0.3
			c-0.2,0-0.3,0-0.3-0.3c0-0.6,0-1.2,0-1.8c0-0.1-0.1-0.3,0.1-0.3s0.4-0.1,0.5,0.1s0.2,0.1,0.2,0c0.4-0.3,0.9-0.2,1.2,0.2
			c0,0,0,0,0,0c0.2-0.3,0.6-0.4,1-0.3c0.2,0,0.4,0.2,0.5,0.5c0.1,0.6,0.1,1.2,0,1.8c0,0.3-0.3,0.1-0.4,0.2c-0.2,0-0.2,0-0.2-0.2
			c0-0.4,0-0.9,0-1.3c0-0.3,0-0.5-0.3-0.5c-0.3,0-0.5,0.2-0.5,0.5c0,0,0,0,0,0.1c0,0.4,0,0.9,0,1.3c0,0.3-0.2,0.3-0.3,0.3
			s-0.3,0-0.3-0.3C24.1,63.7,24,63.2,24,62.8L24,62.8z M22.1,48.2c0-0.3,0.2-0.2,0.3-0.2s0.3,0,0.3,0.2c0,0.3,0,0.7,0,1s0,0.7,0,1
			c0,0.3-0.2,0.2-0.3,0.2s-0.3,0-0.3-0.2C22.2,49.5,22.2,48.9,22.1,48.2L22.1,48.2z M22.1,47.4c0-0.2,0.1-0.3,0.3-0.4c0,0,0,0,0.1,0
			c0.2,0,0.4,0.1,0.4,0.3c0,0,0,0,0,0c0,0.2-0.1,0.4-0.3,0.4C22.3,47.7,22.1,47.6,22.1,47.4C22.1,47.4,22.1,47.4,22.1,47.4
			L22.1,47.4z M22.3,51.8c0-0.2,0.1-0.2,0.3-0.2s0.3,0,0.3,0.2c0,0.5,0,0.9,0,1.4s0,0.9,0,1.4c0,0.3-0.1,0.3-0.3,0.3s-0.3,0-0.3-0.3
			C22.4,53.7,22.4,52.8,22.3,51.8L22.3,51.8z M23.5,52.7c0-0.3,0.2-0.2,0.3-0.2s0.3,0,0.3,0.2c0,0.3,0,0.7,0,1c0,0.3,0,0.6,0,1
			c0,0.3-0.1,0.2-0.3,0.2s-0.3,0-0.3-0.2C23.5,54,23.5,53.3,23.5,52.7L23.5,52.7z M23.7,52c0.3-0.6,0.3-0.6,0.9-0.5
			c-0.3,0.2-0.5,0.5-0.7,0.7c-0.1,0.1-0.1,0.1-0.2,0.1S23.6,52.1,23.7,52L23.7,52z M25.4,66.4c0.7,0,1.2,0.5,1.2,1.2
			c0,0,0,0.1,0,0.1c0.1,0.7-0.4,1.3-1.1,1.3c-0.1,0-0.1,0-0.2,0c-0.7,0-1.2-0.5-1.2-1.1c0,0,0-0.1,0-0.1c-0.1-0.7,0.5-1.3,1.1-1.3
			C25.3,66.4,25.4,66.4,25.4,66.4L25.4,66.4z M25.8,55c-0.6,0-1.2-0.5-1.2-1.1c0-0.1,0-0.1,0-0.2c0-0.7,0.5-1.3,1.1-1.3
			c0,0,0.1,0,0.1,0c0.7,0.1,1.2,0.7,1.2,1.4C27,54.4,26.5,54.9,25.8,55L25.8,55z M25.9,48.8c0-0.5,0-1,0-1.4c0-0.2,0.1-0.2,0.3-0.2
			s0.3,0,0.3,0.2c0,0.9,0,1.9,0,2.8c0,0.3-0.1,0.3-0.3,0.3s-0.3,0-0.3-0.3C26,49.7,25.9,49.2,25.9,48.8L25.9,48.8z M28.4,48.4
			c-0.3-0.2-0.7-0.2-0.9,0.1c-0.1,0.1-0.1,0.2-0.2,0.1c-0.1-0.1,0-0.2,0.1-0.3c0.3-0.4,0.8-0.5,1.2-0.4c0.4,0.1,0.7,0.4,0.7,0.8
			c0,0.3,0,0.5,0,0.8h0c0,0.2,0,0.3,0,0.5c0,0.1,0.1,0.3-0.1,0.4c-0.2,0-0.4,0.1-0.5-0.1c-0.1-0.1-0.1,0-0.2,0
			c-0.3,0.2-0.8,0.2-1.1,0c-0.2-0.2-0.3-0.6-0.2-0.9c0.2-0.4,0.6-0.6,1-0.5c0,0,0.1,0,0.1,0c0.1,0,0.3,0.2,0.3,0
			C28.6,48.7,28.5,48.5,28.4,48.4L28.4,48.4z M28,47.6c0.1-0.4,0.5-0.7,1-0.6c-0.3,0.2-0.5,0.5-0.7,0.7c-0.1,0-0.1,0.1-0.2,0
			C28,47.7,28,47.6,28,47.6L28,47.6z M27,61c0.2,0,0.3,0.1,0.3,0.3c0,0.2-0.1,0.3-0.3,0.3c0,0,0,0,0,0c-0.2,0-0.3-0.1-0.3-0.3
			C26.6,61.2,26.8,61,27,61C27,61,27,61,27,61L27,61z M26.7,62.2c0-0.2,0.1-0.2,0.3-0.2s0.4,0,0.3,0.2c0,0.3,0,0.6,0,1s0,0.7,0,1
			c0,0.3-0.2,0.2-0.3,0.2s-0.3,0-0.3-0.2C26.7,63.5,26.7,62.9,26.7,62.2L26.7,62.2z M27.9,64.3c-0.1-0.1-0.2-0.2-0.2-0.3
			c0-0.1,0-0.2,0-0.2s0.1,0,0.2,0.1c0.2,0.2,0.5,0.3,0.8,0.3c0.2,0,0.3-0.1,0.4-0.3c0-0.2-0.1-0.3-0.3-0.4c-0.1,0-0.3-0.1-0.4-0.1
			c-0.4-0.1-0.6-0.3-0.6-0.7c0-0.4,0.3-0.7,0.6-0.7c0.1,0,0.2-0.1,0.3-0.1c0.3,0,0.7,0.1,0.9,0.4c0.1,0.1,0.1,0.2,0,0.3
			s-0.1,0-0.2-0.1c-0.2-0.2-0.4-0.2-0.7-0.2c-0.2,0-0.3,0.1-0.3,0.3c0,0.2,0.1,0.3,0.3,0.3c0.2,0.1,0.4,0.1,0.6,0.2
			c0.4,0.1,0.6,0.5,0.5,0.9c0,0.1-0.1,0.2-0.2,0.3C29,64.6,28.4,64.6,27.9,64.3L27.9,64.3z M29.6,53.2c-0.1,0.1-0.1,0-0.2-0.1
			c-0.2-0.3-0.5-0.4-0.8-0.3c-0.3,0.1-0.5,0.4-0.5,0.7c0,0.2,0,0.4,0,0.5c0,0.3,0.2,0.5,0.5,0.6c0.3,0.1,0.6,0,0.7-0.3
			c0-0.1,0.1-0.2,0.2-0.1c0.1,0.1,0,0.2,0,0.2c-0.3,0.5-1,0.7-1.6,0.4c0,0-0.1,0-0.1-0.1c-0.5-0.4-0.6-1-0.4-1.5
			c0.2-0.5,0.6-0.8,1.2-0.8c0.4,0,0.8,0.2,0.9,0.6C29.6,53,29.6,53.1,29.6,53.2L29.6,53.2z M26,39.1c0.2,0,0.4-0.1,0.5,0.1
			c0.1,0.1,0.1,0.1,0.2,0c0.4-0.3,0.9-0.3,1.2,0.1c0,0,0,0,0,0c0.1,0.1,0.1,0,0.2,0c0.2-0.2,0.4-0.3,0.7-0.3c0.3,0,0.7,0.2,0.7,0.6
			c0,0,0,0,0,0.1c0,0.5,0,1.1,0,1.6c0,0.3-0.2,0.2-0.3,0.2s-0.3,0-0.3-0.2c0-0.5,0-0.9,0-1.4c0-0.3,0-0.5-0.4-0.5
			c-0.3,0-0.5,0.3-0.5,0.5c0,0,0,0,0,0c0,0.4,0,0.8,0,1.2c0,0.3-0.1,0.3-0.3,0.3s-0.3,0-0.3-0.3c0-0.4,0-0.9,0-1.3
			c0-0.2-0.1-0.4-0.3-0.5c-0.3,0-0.5,0.2-0.5,0.5c0,0,0,0,0,0c0,0.4,0,0.9,0,1.3c0,0.3-0.1,0.3-0.3,0.3s-0.3,0-0.3-0.3
			c0-0.3,0-0.6,0-0.9s0-0.6,0-0.9C25.9,39.3,25.8,39.1,26,39.1z M25.6,43.6c0.1,0.2,0.1,0.1,0.2,0c0.3-0.3,0.9-0.2,1.2,0.1
			c0.1,0.1,0.2,0,0.2,0c0.2-0.2,0.5-0.3,0.7-0.2c0.3,0,0.6,0.3,0.6,0.6c0,0.6,0,1.1,0,1.7c0,0.3-0.2,0.2-0.3,0.2s-0.3,0-0.3-0.2
			c0-0.5,0-0.9,0-1.4c0-0.3,0-0.5-0.4-0.5c-0.3,0-0.5,0.2-0.5,0.6c0,0.4,0,0.8,0,1.2c0,0.3-0.1,0.3-0.3,0.3s-0.3,0-0.3-0.3
			c0-0.4,0-0.9,0-1.3c0-0.2-0.1-0.5-0.4-0.5c-0.3,0-0.5,0.2-0.5,0.5c0,0,0,0,0,0c0,0.4,0,0.9,0,1.3c0,0.3-0.2,0.2-0.3,0.2
			s-0.3,0-0.3-0.2c0-0.3,0-0.7,0-1c0-0.3,0-0.6,0-0.9c0-0.1-0.1-0.3,0.1-0.3C25.2,43.6,25.5,43.5,25.6,43.6z M24.7,39.3
			c0-0.3,0.2-0.2,0.3-0.2c0.2,0,0.3,0,0.3,0.2c0,0.3,0,0.6,0,1s0,0.6,0,1c0,0.2-0.1,0.3-0.3,0.3c-0.2,0-0.3,0-0.3-0.2
			C24.7,40.6,24.7,40,24.7,39.3L24.7,39.3z M25,38.1c0.2,0,0.3,0.2,0.3,0.4c0,0.2-0.2,0.3-0.4,0.3l0,0c-0.2,0-0.3-0.2-0.3-0.4
			C24.7,38.2,24.9,38.1,25,38.1L25,38.1z M25.4,48.6c0,0.3,0,0.6,0,0.9h0c0,0.2,0,0.3,0,0.5c0,0.1,0.1,0.3-0.1,0.4
			c-0.2,0-0.4,0.1-0.5-0.1c-0.1-0.2-0.2,0-0.2,0.1c-0.3,0.2-0.7,0.2-1,0c-0.2-0.2-0.4-0.5-0.3-0.7c0-0.3,0.3-0.6,0.6-0.7
			c0.2,0,0.4-0.1,0.5,0c0.1,0,0.3,0.2,0.4,0c0-0.2-0.1-0.4-0.3-0.5c-0.3-0.2-0.6-0.1-0.9,0.1c-0.1,0.1-0.1,0.1-0.2,0.1
			c-0.1-0.1,0-0.1,0-0.2c0.3-0.4,0.7-0.6,1.1-0.4C25,48,25.3,48.2,25.4,48.6L25.4,48.6z M24.4,43.8c0,0.3,0,0.6,0,1s0,0.6,0,0.9
			c0,0.1,0.1,0.3-0.1,0.3s-0.4,0.1-0.5-0.1c-0.1-0.2-0.1-0.1-0.2,0c-0.3,0.2-0.7,0.3-1,0.1c-0.3-0.2-0.4-0.5-0.4-0.8
			c0-0.4,0-0.9,0-1.3c0-0.3,0.2-0.3,0.3-0.3c0.2,0,0.3,0,0.3,0.3c0,0.4,0,0.9,0,1.3c0,0.4,0.2,0.5,0.5,0.5c0.3,0,0.5-0.2,0.5-0.5
			c0,0,0,0,0,0c0-0.4,0-0.9,0-1.3c0-0.3,0.1-0.3,0.3-0.3S24.4,43.6,24.4,43.8L24.4,43.8z M23.1,39c0.6,0,1.2,0.5,1.2,1.2
			c0,0,0,0.1,0,0.1c0.1,0.7-0.4,1.2-1.1,1.3c-0.1,0-0.1,0-0.2,0c-0.6,0-1.2-0.5-1.2-1.1c0-0.1,0-0.1,0-0.2c0-0.7,0.4-1.2,1.1-1.3
			C23,39,23,39,23.1,39L23.1,39z M19.1,64.1c0,0.3-0.1,0.3-0.3,0.3c-0.2,0-0.4,0-0.3-0.3c0-0.3,0-0.6,0-1c0-0.3,0-0.6,0-0.8
			c0-0.1-0.1-0.3,0.1-0.3s0.4-0.1,0.5,0.1s0.1,0.1,0.2,0c0.4-0.3,0.9-0.2,1.1,0.1c0.1,0.1,0.2,0,0.2,0c0.2-0.2,0.4-0.3,0.7-0.3
			c0.3,0,0.6,0.2,0.7,0.5c0,0,0,0,0,0c0,0.6,0,1.2,0,1.7c0,0.3-0.3,0.1-0.4,0.2c-0.2,0-0.2,0-0.2-0.2c0-0.5,0-0.9,0-1.4
			c0-0.2-0.1-0.4-0.3-0.5c-0.3,0-0.5,0.2-0.5,0.5c0,0,0,0,0,0c0,0.4,0,0.9,0,1.3c0,0.2-0.1,0.3-0.3,0.3c-0.2,0-0.4,0-0.3-0.3
			c0-0.4,0-0.9,0-1.3c0-0.2-0.1-0.5-0.4-0.4c-0.2,0-0.4,0.1-0.5,0.4c0,0,0,0,0,0.1C19.1,63.2,19.1,63.7,19.1,64.1L19.1,64.1z
			 M18.3,53.7c0-0.3,0-0.7,0-1c0-0.3,0.1-0.2,0.3-0.2s0.3-0.1,0.3,0.2c0,0.7,0,1.3,0,2c0,0.3-0.2,0.2-0.3,0.2s-0.3,0.1-0.3-0.2
			C18.4,54.3,18.3,54,18.3,53.7L18.3,53.7z M19.6,52.1c0-0.3,0.1-0.3,0.3-0.3s0.4,0.1,0.3,0.3c-0.1,0.3,0.1,0.4,0.4,0.4
			c0.1,0,0.2,0,0.2,0.2s-0.1,0.2-0.2,0.2c-0.4-0.1-0.4,0.2-0.4,0.4c0,0.3,0,0.6,0,0.9c0,0.3,0.1,0.5,0.5,0.5c0.1,0,0.2,0,0.2,0.1
			s-0.1,0.1-0.1,0.1c-0.4,0.2-0.8,0.1-1-0.2c-0.1-0.1-0.1-0.3-0.1-0.4c0-0.2,0-0.4,0-0.5l0,0c0-0.2,0-0.4,0-0.5c0-0.2,0-0.3-0.2-0.3
			c-0.1,0-0.2-0.1-0.2-0.2c0-0.1,0-0.2,0.1-0.2C19.7,52.5,19.6,52.3,19.6,52.1L19.6,52.1z M21.8,54.7c0,0.3-0.2,0.2-0.3,0.2
			s-0.3,0-0.3-0.2c0-0.3,0-0.7,0-1c0-0.3,0-0.6,0-1c0-0.3,0.2-0.2,0.3-0.2s0.3,0,0.3,0.2C21.8,53.4,21.8,54,21.8,54.7L21.8,54.7z
			 M21.5,52.2c-0.2,0-0.3-0.1-0.4-0.3c0-0.2,0.1-0.3,0.3-0.3c0.2,0,0.3,0.1,0.4,0.3C21.8,52,21.7,52.2,21.5,52.2L21.5,52.2z
			 M19.9,71c0.2-0.1,0.5-0.2,0.6,0.1c0.2,0.4,0.3,0.8,0.5,1.2l0.4-1c0-0.1,0.1-0.2,0.1-0.3c0.1-0.2,0.3-0.1,0.4-0.1
			c0.2,0.1,0,0.2,0,0.3c-0.3,0.6-0.6,1.3-0.9,1.9c0,0.1-0.1,0.2-0.2,0.2s-0.2-0.1-0.2-0.2c-0.3-0.6-0.6-1.2-0.8-1.8
			C19.9,71.2,19.7,71,19.9,71L19.9,71z M21.1,49.1c0.2,0.4,0.4,0.7,0.7,1.1c0.1,0.2,0.1,0.2-0.1,0.2c-0.3,0.1-0.6-0.1-0.8-0.4
			c-0.1-0.3-0.3-0.5-0.5-0.8c-0.1-0.2-0.2-0.3-0.4-0.3s-0.1,0.2-0.1,0.4c0,0.2,0,0.4,0,0.7c0,0.4-0.1,0.5-0.5,0.4
			c-0.2,0-0.1-0.1-0.1-0.2v-1.4c0-0.5,0-0.9,0-1.4c0-0.2,0-0.3,0.3-0.3c0.4,0,0.8,0,1.2,0c0.4,0,0.7,0.2,0.8,0.6
			c0.1,0.4,0,0.8-0.3,1C21,48.8,21,48.9,21.1,49.1L21.1,49.1z M20.8,38.2c0.3,0.1,0.5,0.3,0.6,0.6c0,0.1,0.1,0.1,0,0.2
			c-0.1,0-0.1,0-0.2,0c0,0,0,0,0,0c-0.3-0.4-0.8-0.5-1.2-0.3c-0.5,0.2-0.8,0.6-0.8,1.1c-0.2,0.7,0.3,1.3,0.9,1.5c0.1,0,0.2,0,0.3,0
			c0.3,0,0.5-0.1,0.7-0.3c0.1-0.1,0.1-0.2,0.2-0.1c0.1,0.1,0,0.2,0,0.2c-0.1,0.3-0.3,0.5-0.6,0.5c-0.8,0.3-1.8-0.1-2.1-0.9
			c-0.1-0.2-0.1-0.5-0.1-0.7c-0.1-0.9,0.6-1.7,1.6-1.8C20.4,38,20.6,38.1,20.8,38.2L20.8,38.2z M18.7,51.5c0.2,0,0.3,0.1,0.3,0.3
			c0,0,0,0,0,0c0,0.2-0.1,0.4-0.3,0.4c-0.2,0-0.3-0.2-0.3-0.4C18.3,51.6,18.5,51.5,18.7,51.5L18.7,51.5z M17.6,51.6
			c0.2,0,0.2,0,0.2,0.2S17.8,52,17.6,52c-0.3,0-0.6,0-0.9,0c-0.2,0-0.3,0-0.3,0.2c0,0.7,0,0.7,0.6,0.7c0.1,0,0.1,0,0.2,0
			c0.2,0,0.4-0.1,0.4,0.2c0,0.3-0.2,0.2-0.4,0.2c-0.2,0-0.4,0-0.6,0c-0.2,0-0.2,0.1-0.2,0.3c0,0.8,0,0.8,0.7,0.8c0.2,0,0.4,0,0.6,0
			c0.2,0,0.2,0,0.2,0.2s-0.1,0.2-0.2,0.2c-0.3,0-0.6,0-1,0c-0.3,0-0.8,0.2-1-0.1c-0.2-0.2-0.1-0.7-0.1-1c0-0.6,0-1.3,0-1.9
			c0-0.2,0-0.3,0.3-0.3C16.6,51.6,17.1,51.6,17.6,51.6L17.6,51.6z M18.1,63.2c0.1,0.7-0.4,1.2-1.1,1.3c-0.1,0-0.1,0-0.2,0
			c-0.7,0-1.2-0.5-1.2-1.2c0,0,0-0.1,0-0.1c0-0.7,0.5-1.3,1.1-1.3c0,0,0.1,0,0.1,0c0.7,0,1.2,0.5,1.2,1.2
			C18.1,63.1,18.1,63.2,18.1,63.2L18.1,63.2z M14.7,39.1c0.2,0,0.4-0.2,0.5,0.1c0.1,0.2,0.1,0,0.2,0c0.2-0.2,0.5-0.2,0.8-0.2
			c0.3,0,0.6,0.3,0.6,0.6c0,0.6,0.1,1.1,0,1.7c0,0.3-0.2,0.2-0.4,0.2s-0.2,0-0.2-0.2c0-0.4,0-0.8,0-1.2c0-0.3,0-0.6-0.4-0.6
			c-0.3,0-0.5,0.2-0.5,0.6s0,0.8,0,1.2c0,0.3-0.1,0.3-0.3,0.3s-0.3,0-0.3-0.3c0-0.3,0-0.6,0-1c0-0.3,0-0.5,0-0.8
			C14.6,39.3,14.5,39.1,14.7,39.1L14.7,39.1z M11.7,41.3c-0.1,0.3-0.3,0.2-0.6,0.2c-0.1,0-0.1-0.1,0-0.2c0.5-1,0.9-2,1.4-3
			c0.1-0.2,0.3-0.2,0.4,0c0.5,1,0.9,2,1.4,3c0.2,0.4-0.2,0.1-0.2,0.2c-0.3,0.1-0.4,0-0.5-0.3c0-0.3-0.3-0.5-0.6-0.5c0,0-0.1,0-0.1,0
			c-0.1,0-0.1,0-0.2,0C12.1,40.7,11.8,40.8,11.7,41.3L11.7,41.3z M12.5,63.6c-0.3-0.7-0.2-1.5,0.3-2.1c0.5-0.5,1.2-0.6,1.8-0.4
			c0.3,0.1,0.5,0.3,0.6,0.6c0,0.1,0.1,0.1,0,0.2s-0.1,0-0.2-0.1c-0.3-0.4-0.8-0.5-1.2-0.3c-0.4,0.1-0.7,0.5-0.8,1
			c-0.1,0.5,0,1.1,0.5,1.4c0.4,0.3,1,0.3,1.4-0.1c0.1-0.1,0.1-0.3,0.3-0.1c0.1,0.1,0,0.2-0.1,0.3c-0.2,0.4-0.7,0.5-1.1,0.5
			C13.4,64.6,12.8,64.2,12.5,63.6L12.5,63.6z M16.4,77.4c-0.2-0.3-0.3-0.5-0.5-0.8c-0.1-0.2-0.2-0.2-0.4-0.2c-0.2,0-0.1,0.2-0.1,0.3
			c0,0.3,0,0.6,0,0.9s-0.2,0.2-0.4,0.2s-0.3,0.1-0.3-0.2c0-1,0-1.9,0-2.9c0-0.1,0-0.2,0.2-0.2c0.4,0,0.9,0,1.3,0
			c0.3,0,0.6,0.3,0.7,0.6c0.1,0.3,0,0.7-0.3,1c-0.2,0.2-0.2,0.3-0.1,0.5c0.2,0.4,0.5,0.8,0.7,1.2C16.7,77.9,16.7,77.9,16.4,77.4
			L16.4,77.4z M16.7,73.3c0.4-0.9,0.8-1.8,1.3-2.7c0.1-0.2,0.1-0.5,0.4-0.5c0.3,0,0.3,0.3,0.4,0.5c0.4,0.8,0.7,1.6,1.1,2.4
			c0,0.1,0.3,0.3,0,0.4c-0.2,0.1-0.5,0.1-0.6-0.1c0,0,0,0,0-0.1c-0.1-0.2-0.1-0.5-0.3-0.5c-0.4,0-0.8,0-1.2,0
			c-0.1,0-0.2,0.2-0.2,0.3C17.3,73.3,17.1,73.4,16.7,73.3L16.7,73.3z M19.7,76.7c-0.2,0-0.4,0-0.7,0s-0.4,0-0.7,0s-0.2,0.1-0.2,0.3
			c0.1,0.4,0.6,0.7,1.1,0.5c0.1,0,0.2-0.1,0.3-0.2c0.1-0.1,0.1-0.3,0.3-0.1c0.1,0.1,0,0.2-0.1,0.3c-0.4,0.5-1,0.6-1.5,0.3
			c-0.6-0.3-0.9-0.9-0.7-1.6c0.2-0.6,0.7-1,1.4-0.9c0.6,0,1.1,0.5,1.1,1.1C20,76.6,20,76.7,19.7,76.7L19.7,76.7z M22.7,77.7
			c0,0.4-0.3,0.8-0.7,0.9c-0.5,0.2-1,0.1-1.4-0.3c-0.1-0.1-0.1-0.1-0.1-0.2c0-0.1-0.1-0.1,0-0.2s0.1,0,0.2,0.1
			c0.2,0.2,0.4,0.3,0.6,0.3c0.5,0,0.8-0.3,0.8-1c-0.3,0.4-0.9,0.4-1.3,0.1c-0.4-0.3-0.6-0.9-0.4-1.3c0-0.4,0.4-0.8,0.8-0.9
			c0.1,0,0.2,0,0.3,0c0.3,0.2,0.7,0.2,1,0.1c0.2,0,0.2,0,0.2,0.2C22.7,76.3,22.7,77,22.7,77.7L22.7,77.7z M22.7,73.3
			c-0.2,0-0.4,0-0.3-0.3c0-0.3,0-0.6,0-1s0-0.6,0-0.9c0-0.3,0.2-0.2,0.3-0.3s0.3,0,0.3,0.3c0,0.6,0,1.2,0,1.9
			C23,73.3,22.9,73.3,22.7,73.3L22.7,73.3z M22.7,70.6c-0.2,0-0.3-0.2-0.3-0.3c0-0.2,0.2-0.3,0.3-0.3l0,0c0.2,0,0.3,0.1,0.3,0.3
			C23,70.5,22.9,70.6,22.7,70.6L22.7,70.6z M22.8,68.6c0-0.3,0-0.5,0-0.8v-0.7c0-0.2,0-0.4-0.2-0.3c-0.1,0-0.1-0.1-0.1-0.2
			s0-0.2,0.1-0.2c0.2,0,0.2-0.1,0.2-0.3c0-0.4,0.4-0.8,0.8-0.7c0.1,0,0.2,0,0.3,0.1c0.1,0,0.2,0.1,0.2,0.2c0,0.1-0.1,0.1-0.2,0.1
			c-0.2,0-0.4,0.1-0.4,0.3c0,0,0,0.1,0,0.1c0,0.2,0,0.4,0.3,0.3c0.1,0,0.3,0,0.3,0.2s-0.1,0.2-0.3,0.2c-0.2,0-0.3,0.1-0.3,0.3
			c0,0.5,0,1,0,1.5c0,0.3-0.1,0.3-0.3,0.3S22.8,68.9,22.8,68.6L22.8,68.6z M25.3,77.8c-0.2,0-0.4,0.1-0.5,0c-0.1-0.2-0.2-0.1-0.3,0
			c-0.2,0.2-0.5,0.2-0.8,0.1c-0.3,0-0.5-0.3-0.6-0.5c0-0.6-0.1-1.1,0-1.7c0-0.3,0.2-0.2,0.4-0.2c0.2,0,0.3,0,0.3,0.2
			c0,0.4,0,0.9,0,1.3s0.1,0.6,0.4,0.6c0.3,0,0.5-0.2,0.5-0.6c0-0.4,0-0.8,0-1.2c0-0.3,0.1-0.3,0.3-0.3s0.3,0,0.3,0.3
			c0,0.3,0,0.6,0,1c0,0.3,0,0.6,0,0.8C25.4,77.6,25.5,77.7,25.3,77.8L25.3,77.8z M25.5,73.3c-0.2,0.1-0.4,0.1-0.5,0s-0.1-0.1-0.2,0
			c-0.3,0.2-0.8,0.2-1.1,0c-0.2-0.2-0.3-0.6-0.2-0.9c0.2-0.4,0.6-0.6,1-0.5c0.1,0,0.1,0,0.2,0c0.1,0,0.2,0.1,0.3,0
			c0-0.1,0-0.2-0.1-0.3c-0.3-0.3-0.7-0.3-1-0.1c0,0,0,0,0,0c-0.1,0.1-0.1,0.2-0.2,0.1c-0.1-0.1,0-0.2,0.1-0.3
			c0.3-0.3,0.8-0.5,1.2-0.4c0.4,0.1,0.7,0.4,0.7,0.8c0,0.3,0,0.5,0,0.8h0c0,0.2,0,0.3,0,0.5C25.6,73.1,25.7,73.2,25.5,73.3
			L25.5,73.3z M26.6,74.8c0,0.5,0,1,0,1.4c0,0.5,0,0.9,0,1.4c0,0.2-0.1,0.3-0.3,0.3c-0.2,0-0.3,0-0.3-0.2c0-0.9,0-1.9,0-2.8
			c0-0.3,0.1-0.2,0.3-0.3C26.5,74.5,26.6,74.5,26.6,74.8L26.6,74.8z M26.3,72.7c0-0.4,0-0.7,0-1.1c0-0.2,0-0.4-0.2-0.3
			c-0.1,0-0.1-0.1-0.1-0.2s0-0.2,0.1-0.2c0.3,0,0.3-0.2,0.2-0.3c0-0.3,0.1-0.3,0.3-0.3c0.2,0,0.3,0.1,0.3,0.3c0,0.3,0.1,0.4,0.3,0.3
			c0.1,0,0.2,0,0.2,0.2s-0.1,0.2-0.2,0.2c-0.3-0.1-0.4,0.1-0.3,0.4c0,0.3,0,0.6,0,0.9c0,0.3,0.1,0.6,0.5,0.5c0.1,0,0.1,0,0.2,0.1
			c0,0.1,0,0.1-0.1,0.2c-0.1,0.1-0.3,0.1-0.4,0.1C26.7,73.5,26.3,73.2,26.3,72.7C26.3,72.8,26.3,72.8,26.3,72.7L26.3,72.7z
			 M29.2,77.4c0,0.3-0.3,0.5-0.5,0.3c-0.2-0.2-0.3,0-0.4,0c-0.3,0.2-0.7,0.1-1-0.1c-0.2-0.2-0.3-0.6-0.1-0.9
			c0.2-0.4,0.7-0.6,1.2-0.5c0.1,0,0.2,0.1,0.3,0c0.1-0.1,0-0.3-0.1-0.4c-0.3-0.3-0.7-0.3-1,0c-0.1,0.1-0.1,0.2-0.2,0.1
			s0-0.2,0.1-0.3c0.3-0.4,0.8-0.5,1.2-0.4c0.4,0.1,0.7,0.4,0.7,0.8c0,0.2,0,0.5,0,0.7l0,0C29.2,77.1,29.2,77.2,29.2,77.4L29.2,77.4z
			 M31.1,77.8c-0.4,0.2-0.8,0.1-1-0.2c-0.1-0.1-0.1-0.3-0.1-0.4c0-0.3,0-0.6,0-1c0-0.2,0.1-0.4-0.3-0.4c-0.1,0-0.1-0.1-0.1-0.2
			s0-0.2,0.1-0.2c0.3,0,0.3-0.2,0.3-0.3c0-0.3,0.1-0.4,0.3-0.3c0.3-0.1,0.3,0.1,0.3,0.3c0,0.3,0,0.4,0.3,0.3c0.1,0,0.2,0,0.2,0.2
			s-0.1,0.2-0.2,0.2c-0.3-0.1-0.3,0.1-0.3,0.4c0,0.3,0,0.6,0,1s0.1,0.5,0.5,0.5c0.1,0,0.2,0,0.2,0.1C31.2,77.7,31.1,77.8,31.1,77.8
			L31.1,77.8z M30.1,73.4c-0.7,0-1.2-0.5-1.2-1.2c0,0,0-0.1,0-0.1c0-0.7,0.5-1.2,1.2-1.3c0,0,0.1,0,0.1,0c0.7,0,1.2,0.5,1.2,1.2
			c0,0,0,0.1,0,0.1c0.1,0.7-0.4,1.2-1.1,1.3C30.2,73.4,30.1,73.4,30.1,73.4L30.1,73.4z M32.1,75.7c0,0.3,0,0.6,0,0.9s0,0.7,0,1
			c0,0.3-0.2,0.2-0.3,0.2s-0.3,0.1-0.3-0.2c0-0.7,0-1.3,0-2c0-0.3,0.2-0.2,0.4-0.2C32,75.4,32.1,75.4,32.1,75.7L32.1,75.7z
			 M31.8,75.1c-0.2,0-0.3-0.1-0.3-0.3c0,0,0,0,0,0c0-0.2,0.1-0.3,0.3-0.4c0.2,0,0.3,0.1,0.4,0.3c0,0,0,0,0,0
			C32.1,74.9,32,75.1,31.8,75.1C31.8,75.1,31.8,75.1,31.8,75.1L31.8,75.1z M32.1,73.3c-0.2,0-0.4,0.1-0.3-0.2c0-0.3,0-0.7,0-1
			c0-0.3,0-0.6,0-0.9c0-0.1-0.1-0.3,0.1-0.3c0.2,0,0.4-0.1,0.5,0.1c0.1,0.1,0.1,0.1,0.2,0.1c0.3-0.2,0.7-0.3,1-0.1
			c0.4,0.2,0.4,0.5,0.4,0.8c0,0.4,0,0.9,0,1.3c0,0.2-0.1,0.2-0.3,0.2s-0.3,0.1-0.3-0.2c0-0.4,0-0.9,0-1.3c0-0.3-0.1-0.5-0.4-0.5
			c-0.3,0-0.5,0.2-0.5,0.5c0,0,0,0,0,0c0,0.4,0,0.9,0,1.3C32.4,73.3,32.3,73.3,32.1,73.3L32.1,73.3z M33.7,77.9
			c-0.7,0-1.2-0.5-1.2-1.1c0-0.1,0-0.1,0-0.2c-0.1-0.7,0.5-1.3,1.1-1.3c0,0,0.1,0,0.1,0c0.7,0,1.2,0.5,1.2,1.2c0,0,0,0.1,0,0.1
			c0.1,0.7-0.4,1.3-1.1,1.3C33.8,77.9,33.8,77.9,33.7,77.9L33.7,77.9z M37.6,77.6c0,0.3-0.2,0.2-0.4,0.2c-0.2,0-0.3,0-0.3-0.2
			c0-0.4,0-0.9,0-1.3c0-0.3-0.1-0.5-0.4-0.5c-0.3,0-0.5,0.2-0.5,0.5c0,0,0,0,0,0c0,0.4,0,0.9,0,1.3c0,0.2-0.1,0.3-0.3,0.3
			c-0.2,0-0.4,0-0.3-0.2c0-0.3,0-0.7,0-1c0-0.3,0-0.6,0-0.8c0-0.1-0.1-0.3,0.1-0.3s0.4-0.1,0.5,0c0.1,0.2,0.2,0.1,0.3,0
			c0.2-0.1,0.5-0.2,0.7-0.1c0.3,0,0.5,0.3,0.6,0.5C37.6,76.5,37.6,77,37.6,77.6L37.6,77.6z M38.2,64.4c-0.2,0-0.3,0-0.3-0.3
			c0-0.4,0-0.8,0-1.2c0-0.5-0.1-0.6-0.4-0.6c-0.3,0-0.5,0.2-0.5,0.6c0,0.4,0,0.8,0,1.2c0,0.3-0.1,0.3-0.3,0.3s-0.3,0-0.3-0.3
			c0-0.3,0-0.6,0-1c0-0.3,0-0.6,0-0.9c0-0.1-0.1-0.3,0.1-0.3s0.4-0.1,0.5,0.1s0.1,0.1,0.2,0c0.7-0.4,1.3-0.1,1.3,0.7
			c0,0.4,0,0.9,0,1.3C38.5,64.4,38.3,64.4,38.2,64.4L38.2,64.4z M39.5,41.3c0,0.3-0.2,0.2-0.3,0.2c-0.2,0-0.3,0-0.3-0.2
			c0-0.4,0-0.9,0-1.3c0-0.3-0.1-0.5-0.4-0.5c-0.3,0-0.5,0.2-0.5,0.5c0,0,0,0,0,0c0,0.4,0,0.9,0,1.3c0,0.3-0.2,0.2-0.3,0.3
			s-0.3,0-0.3-0.3c0-0.3,0-0.6,0-1c0-0.3,0-0.6,0-0.9c0-0.1-0.1-0.3,0.1-0.3s0.4-0.1,0.5,0.1c0.1,0.2,0.2,0.1,0.2,0
			c0.2-0.1,0.4-0.2,0.6-0.2c0.4,0,0.7,0.3,0.7,0.6c0,0,0,0,0,0C39.5,40.2,39.4,40.8,39.5,41.3L39.5,41.3z"/>
		<path id="Path_960" class="st1" d="M15.5,75c-0.3,0.1-0.1,0.3-0.1,0.5c0,0,0,0.1,0,0.1c0.1,0.2-0.1,0.4,0.1,0.5
			c0.2,0.1,0.5,0,0.7-0.2c0,0,0,0,0-0.1c0.2-0.2,0.2-0.4,0-0.6C16.1,75,15.8,74.9,15.5,75z"/>
		<path id="Path_961" class="st1" d="M20,47.6c-0.2,0.1-0.1,0.3-0.1,0.5c0,0,0,0,0,0.1l0,0v0.4c0,0.1,0,0.2,0.1,0.2
			c0.3,0,0.5-0.1,0.7-0.3c0.1-0.2,0.1-0.5,0-0.6C20.6,47.6,20.3,47.5,20,47.6z"/>
		<path id="Path_962" class="st1" d="M21.8,75.7c-0.2-0.1-0.5,0-0.6,0.2c-0.2,0.4-0.2,0.9,0,1.2c0.2,0.2,0.5,0.2,0.7,0.1
			c0.3-0.2,0.2-0.5,0.2-0.7C22.1,76.2,22.2,75.9,21.8,75.7z"/>
		<path id="Path_963" class="st1" d="M13.1,40.3l-0.5-1c-0.2,0.4-0.4,0.7-0.4,1C12.3,40.4,12.7,40.3,13.1,40.3
			C13,40.3,13,40.3,13.1,40.3z"/>
		<path id="Path_964" class="st1" d="M18.5,72.2c0.2,0,0.2-0.1,0.1-0.2c-0.1-0.3-0.2-0.5-0.4-0.9l-0.5,1.1
			C18.1,72.2,18.3,72.2,18.5,72.2z"/>
		<path id="Path_965" class="st1" d="M19,75.7c-0.2-0.1-0.4-0.1-0.6,0.1c-0.1,0.1-0.2,0.2-0.2,0.4c0,0.1,0.2,0.1,0.3,0.1
			c0.1,0,0.1,0,0.2,0c0,0,0.1,0,0.1,0c0.1,0,0.3,0.1,0.4-0.1C19.3,76,19.2,75.8,19,75.7z"/>
		<path id="Path_966" class="st1" d="M30.1,71.2c-0.3,0-0.5,0.2-0.5,0.5c-0.1,0.3-0.1,0.6,0,0.9c0.1,0.2,0.2,0.5,0.5,0.5
			c0.3,0,0.5-0.2,0.5-0.5c0-0.1,0.1-0.3,0.1-0.4c0-0.2,0-0.3-0.1-0.5C30.6,71.4,30.4,71.2,30.1,71.2z"/>
		<path id="Path_967" class="st1" d="M16.8,62.3c-0.2,0-0.5,0.2-0.5,0.4c-0.1,0.3-0.1,0.7,0,1c0,0.2,0.2,0.4,0.5,0.4
			c0.3,0,0.5-0.2,0.5-0.4c0-0.2,0.1-0.3,0.1-0.5c0-0.2,0-0.4-0.1-0.5C17.3,62.5,17.1,62.3,16.8,62.3z"/>
		<path id="Path_968" class="st1" d="M25.8,68.3c0.1-0.2,0.2-0.4,0.1-0.7c0-0.2,0-0.4-0.1-0.6c-0.1-0.2-0.3-0.3-0.5-0.3
			c-0.2,0-0.4,0.1-0.4,0.3c-0.2,0.4-0.2,0.9,0,1.3c0.1,0.2,0.4,0.3,0.6,0.2C25.7,68.5,25.8,68.4,25.8,68.3z"/>
		<path id="Path_969" class="st1" d="M33.8,75.7c-0.4,0-0.6,0.3-0.6,0.9c0,0.2,0,0.4,0.1,0.6c0.1,0.2,0.2,0.3,0.4,0.3
			c0.2,0,0.4-0.1,0.5-0.3c0.1-0.2,0.1-0.4,0.1-0.6C34.3,76,34.1,75.7,33.8,75.7z"/>
		<path id="Path_970" class="st1" d="M34.6,62.3c-0.2,0-0.4,0.1-0.5,0.3c-0.1,0.2-0.1,0.4-0.1,0.6c0,0.2,0,0.4,0.1,0.5
			c0.1,0.2,0.2,0.4,0.5,0.4c0.2,0,0.4-0.1,0.5-0.3c0.1-0.4,0.1-0.8,0-1.1C35,62.4,34.8,62.3,34.6,62.3z"/>
		<path id="Path_971" class="st1" d="M23,41.2c0.3,0,0.6-0.3,0.6-0.9c0-0.2,0-0.4-0.1-0.6c-0.1-0.3-0.3-0.4-0.6-0.4
			c-0.2,0-0.3,0.2-0.4,0.4c-0.1,0.2-0.1,0.4-0.1,0.6C22.5,40.9,22.7,41.2,23,41.2z"/>
		<path id="Path_972" class="st1" d="M28.2,49.2c-0.3,0-0.5,0.2-0.5,0.5c0,0.2,0.1,0.4,0.4,0.4c0,0,0.1,0,0.1,0
			c0.3,0,0.5-0.1,0.4-0.4C28.6,49.3,28.5,49.2,28.2,49.2z"/>
		<path id="Path_973" class="st1" d="M24.6,72.1c-0.3,0-0.5,0.2-0.5,0.5c0,0.2,0.1,0.4,0.4,0.4c0,0,0.1,0,0.1,0
			c0.3,0,0.5-0.1,0.5-0.5C25.1,72.2,24.9,72.1,24.6,72.1z"/>
		<path id="Path_974" class="st1" d="M24.4,49.2c-0.3,0-0.5,0.2-0.5,0.5c0,0.2,0.2,0.4,0.4,0.4c0,0,0.1,0,0.1,0
			c0.3,0,0.5-0.1,0.4-0.5C24.8,49.3,24.7,49.2,24.4,49.2z"/>
		<path id="Path_975" class="st1" d="M25.8,52.8c-0.3,0-0.5,0.2-0.5,0.4c-0.1,0.3-0.1,0.6,0,0.9c0,0.3,0.2,0.4,0.5,0.5
			c0.3,0,0.5-0.2,0.5-0.5c0-0.1,0-0.2,0.1-0.3c0-0.2,0-0.4-0.1-0.6C26.3,53,26.1,52.8,25.8,52.8z"/>
		<path id="Path_976" class="st1" d="M35.4,53.7c-0.3,0-0.5,0.1-0.5,0.4c0,0.2,0.1,0.4,0.4,0.4c0,0,0,0,0.1,0c0.3,0,0.5-0.1,0.5-0.5
			C35.9,53.8,35.7,53.7,35.4,53.7z"/>
		<path id="Path_977" class="st1" d="M28.3,76.6c-0.3,0-0.5,0.1-0.5,0.4c0,0.2,0.1,0.4,0.3,0.4c0,0,0.1,0,0.1,0
			c0.3,0,0.5-0.1,0.5-0.5C28.7,76.7,28.5,76.6,28.3,76.6z"/>
	</g>
</g>
</svg>
